{
classes = (
{
automatic = 1;
code = "dotlessbeh-ar hamza-ar highhamza-ar alef-ar alefHamzaabove-ar alefHamzabelow-ar alefMadda-ar alefWasla-ar beh-ar peh-ar teh-ar tehRing-ar theh-ar tteh-ar jeem-ar tcheh-ar hah-ar hahHamzaabove-ar hahThreedotsabove-ar khah-ar dal-ar thal-ar ddal-ar dalRing-ar dul-ar dalVinvertedabove-ar reh-ar zain-ar rreh-ar rehRing-ar rehVbelow-ar rehDotbelowdotabove-ar jeh-ar seen-ar seenDotbelowDotabove-ar sheen-ar sad-ar dad-ar tah-ar zah-ar ain-ar ghain-ar feh-ar veh-ar dotlessfeh-ar dotlessqaf-ar qaf-ar kaf-ar keheh-ar gaf-ar kafRing-ar ng-ar lam-ar lamVabove-ar meem-ar noon-ar noonghunna-ar noonRing-ar heh-ar hehgoal-ar hehgoalHamzaabove-ar hehDoachashmee-ar tehMarbuta-ar tehMarbutagoal-ar waw-ar wawring-ar wawTwodots-ar wawHamzaabove-ar oe-ar u-ar yu-ar ve-ar alefMaksura-ar yeh-ar yehHamzaabove-ar yehVabove-ar yeh-farsi yehTail-ar e-ar yehbarree-ar yehbarreeHamzaabove-ar ae-ar kashida-ar lam_alef-ar lam_alefHamzaabove-ar lam_alefHamzabelow-ar lam_alefMadda-ar allah-ar";
name = ArabicLetters;
},
{
automatic = 1;

glyphs = (
{
glyphname = "dotlessbeh-ar";
lastChange = "2016-02-01 06:45:56 +0000";
layers = (
{
anchors = (
{
name = bottom;
position = "{773, -197}";
},
{
name = top;
position = "{727, 749}";
}
);
layerId = "93A312F7-B931-4485-B08E-C367313EB5E7";
name = Regular;
paths = (
{
closed = 1;
nodes = (
"694 -49 OFFCURVE",
"841 -33 OFFCURVE",
"992 -6 CURVE SMOOTH",
"1255 36 OFFCURVE",
"1466 110 OFFCURVE",
"1466 358 CURVE SMOOTH",
"1466 438 OFFCURVE",
"1405 685 OFFCURVE",
"1369 838 CURVE",
"1366 849 OFFCURVE",
"1357 850 OFFCURVE",
"1349 842 CURVE SMOOTH",
"1259 751 LINE",
"1254 745 OFFCURVE",
"1252 739 OFFCURVE",
"1254 731 CURVE SMOOTH",
"1365 254 LINE SMOOTH",
"1367 245 OFFCURVE",
"1365 239 OFFCURVE",
"1356 235 CURVE SMOOTH",
"1233 181 OFFCURVE",
"929 110 OFFCURVE",
"652 115 CURVE SMOOTH",
"417 119 OFFCURVE",
"223 184 OFFCURVE",
"243 385 CURVE SMOOTH",
"255 510 LINE SMOOTH",
"256 519 OFFCURVE",
"251 525 OFFCURVE",
"242 526 CURVE SMOOTH",
"187 531 LINE SMOOTH",
"178 532 OFFCURVE",
"171 526 OFFCURVE",
"170 517 CURVE SMOOTH",
"155 385 LINE SMOOTH",
"120 82 OFFCURVE",
"262 -37 OFFCURVE",
"579 -46 CURVE SMOOTH"
);
}
);
width = 1586;
}
);
unicode = 066E;
userData = {
com.typemytype.robofont.guides = (
{
angle = 0;
isGlobal = 0;
x = 383;
y = 1092;
}
);
};
},
{
glyphname = "hamza-ar";
lastChange = "2016-02-01 08:54:15 +0000";
layers = (
{
anchors = (
{
name = bottom;
position = "{453, -173}";
},
{
name = top;
position = "{453, 804}";
}
);
layerId = "93A312F7-B931-4485-B08E-C367313EB5E7";
name = Regular;
paths = (
{
closed = 1;
nodes = (
"379 70 OFFCURVE",
"549 170 OFFCURVE",
"745 274 CURVE SMOOTH",
"753 278 OFFCURVE",
"757 284 OFFCURVE",
"756 292 CURVE",
"749 405 LINE SMOOTH",
"748 416 OFFCURVE",
"741 421 OFFCURVE",
"731 415 CURVE SMOOTH",
"430 236 LINE SMOOTH",
"423 232 OFFCURVE",
"415 232 OFFCURVE",
"409 238 CURVE",
"236 397 LINE",
"229 404 OFFCURVE",
"228 411 OFFCURVE",
"234 418 CURVE SMOOTH",
"322 521 OFFCURVE",
"441 538 OFFCURVE",
"567 534 CURVE",
"577 533 OFFCURVE",
"583 539 OFFCURVE",
"582 548 CURVE SMOOTH",
"572 625 LINE SMOOTH",
"571 633 OFFCURVE",
"568 639 OFFCURVE",
"559 642 CURVE",
"366 697 OFFCURVE",
"150 580 OFFCURVE",
"150 389 CURVE SMOOTH",
"150 305 OFFCURVE",
"239 216 OFFCURVE",
"301 170 CURVE SMOOTH",
"310 163 OFFCURVE",
"309 155 OFFCURVE",
"300 149 CURVE",
"195 85 LINE SMOOTH",
"188 81 OFFCURVE",
"185 76 OFFCURVE",
"185 67 CURVE SMOOTH",
"184 -23 LINE SMOOTH",
"184 -35 OFFCURVE",
"192 -40 OFFCURVE",
"202 -34 CURVE SMOOTH"
);
}
);
width = 876;
}
);
unicode = 0621;
},
{
glyphname = "alef-ar";
lastChange = "2016-02-01 08:54:15 +0000";
layers = (
{
anchors = (
{
name = bottom;
position = "{255, -180}";
},
{
name = top;
position = "{225, 1484}";
}
);
layerId = "93A312F7-B931-4485-B08E-C367313EB5E7";
name = Regular;
paths = (
{
closed = 1;
nodes = (
"299 -3 LINE",
"304 -1 OFFCURVE",
"308 3 OFFCURVE",
"308 10 CURVE",
"301 1321 LINE",
"301 1337 OFFCURVE",
"287 1344 OFFCURVE",
"274 1337 CURVE SMOOTH",
"157 1274 LINE SMOOTH",
"153 1272 OFFCURVE",
"150 1268 OFFCURVE",
"150 1262 CURVE",
"202 -13 LINE",
"202 -25 OFFCURVE",
"214 -33 OFFCURVE",
"225 -29 CURVE SMOOTH"
);
}
);
width = 428;
}
);
unicode = 0627;
},
{
glyphname = "alef-ar.fina";
lastChange = "2016-02-01 08:54:15 +0000";
layers = (
{
anchors = (
{
name = bottom;
position = "{423, -150}";
},
{
name = top;
position = "{220, 1480}";
}
);
layerId = "93A312F7-B931-4485-B08E-C367313EB5E7";
name = Regular;
paths = (
{
closed = 1;
nodes = (
"579 0 LINE",
"621 52 OFFCURVE",
"621 104 OFFCURVE",
"579 156 CURVE",
"521 156 LINE SMOOTH",
"474 156 OFFCURVE",
"379 174 OFFCURVE",
"318 211 CURVE SMOOTH",
"311 215 OFFCURVE",
"308 220 OFFCURVE",
"308 229 CURVE",
"291 1322 LINE",
"291 1334 OFFCURVE",
"284 1339 OFFCURVE",
"273 1332 CURVE SMOOTH",
"159 1260 LINE",
"152 1255 OFFCURVE",
"150 1251 OFFCURVE",
"150 1242 CURVE",
"196 342 LINE SMOOTH",
"208 107 OFFCURVE",
"267 0 OFFCURVE",
"479 0 CURVE SMOOTH"
);
}
);
width = 579;
}
);
unicode = FE8E;
},
{
glyphname = "alef-ar.short";
lastChange = "2016-02-01 08:54:15 +0000";
layers = (
{
anchors = (
{
name = bottom;
position = "{255, -179}";
},
{
name = top;
position = "{225, 1333}";
}
);
layerId = "93A312F7-B931-4485-B08E-C367313EB5E7";
name = Regular;
paths = (
{
closed = 1;
nodes = (
"299 -3 LINE",
"304 -1 OFFCURVE",
"308 3 OFFCURVE",
"308 10 CURVE",
"301 1171 LINE",
"301 1187 OFFCURVE",
"287 1194 OFFCURVE",
"274 1187 CURVE SMOOTH",
"157 1124 LINE SMOOTH",
"153 1122 OFFCURVE",
"150 1118 OFFCURVE",
"150 1112 CURVE",
"202 -13 LINE",
"203 -25 OFFCURVE",
"214 -33 OFFCURVE",
"225 -29 CURVE SMOOTH"
);
}
);
width = 428;
}
);
userData = {
com.typemytype.robofont.guides = (
{
angle = 0;
isGlobal = 0;
x = 293;
y = 1187;
}
);
};
},
{
glyphname = "alef-ar.fina.short";
lastChange = "2016-02-01 08:54:15 +0000";
layers = (
{
anchors = (
{
name = bottom;
position = "{408, -150}";
},
{
name = top;
position = "{295, 1324}";
}
);
layerId = "93A312F7-B931-4485-B08E-C367313EB5E7";
name = Regular;
paths = (
{
closed = 1;
nodes = (
"579 0 LINE",
"621 52 OFFCURVE",
"621 104 OFFCURVE",
"579 156 CURVE",
"521 156 LINE SMOOTH",
"474 156 OFFCURVE",
"379 174 OFFCURVE",
"318 211 CURVE SMOOTH",
"311 215 OFFCURVE",
"308 220 OFFCURVE",
"308 229 CURVE",
"291 1162 LINE",
"291 1174 OFFCURVE",
"284 1179 OFFCURVE",
"273 1172 CURVE SMOOTH",
"159 1100 LINE",
"152 1095 OFFCURVE",
"149 1091 OFFCURVE",
"150 1082 CURVE",
"196 342 LINE SMOOTH",
"211 107 OFFCURVE",
"267 0 OFFCURVE",
"479 0 CURVE SMOOTH"
);
}
);
width = 579;
}
);
rightMetricsKey = z;
userData = {
com.schriftgestaltung.Glyphs.rightMetricsKey = z;
com.typemytype.robofont.guides = (
{
angle = 0;
isGlobal = 0;
x = 285;
y = 1176;
}
);
};
},
{
glyphname = "dotlessbeh-ar.fina";
lastChange = "2016-02-01 08:54:15 +0000";
layers = (
{
anchors = (
{
name = bottom;
position = "{773, -197}";
},
{
name = top;
position = "{727, 749}";
}
);
layerId = "93A312F7-B931-4485-B08E-C367313EB5E7";
name = Regular;
paths = (
{
closed = 1;
nodes = (
"843 -52 OFFCURVE",
"1306 14 OFFCURVE",
"1412 140 CURVE SMOOTH",
"1420 149 OFFCURVE",
"1427 148 OFFCURVE",
"1432 138 CURVE",
"1483 45 OFFCURVE",
"1590 0 OFFCURVE",
"1694 0 CURVE SMOOTH",
"1734 0 LINE",
"1776 52 OFFCURVE",
"1776 104 OFFCURVE",
"1734 156 CURVE",
"1694 156 LINE SMOOTH",
"1558 156 OFFCURVE",
"1469 208 OFFCURVE",
"1449 360 CURVE SMOOTH",
"1413 627 LINE",
"1412 638 OFFCURVE",
"1401 643 OFFCURVE",
"1393 634 CURVE",
"1313 551 LINE",
"1308 545 OFFCURVE",
"1306 539 OFFCURVE",
"1307 531 CURVE SMOOTH",
"1355 232 LINE",
"1356 223 OFFCURVE",
"1354 217 OFFCURVE",
"1345 214 CURVE SMOOTH",
"1206 164 OFFCURVE",
"895 111 OFFCURVE",
"652 116 CURVE SMOOTH",
"417 121 OFFCURVE",
"223 185 OFFCURVE",
"243 386 CURVE SMOOTH",
"255 511 LINE SMOOTH",
"256 520 OFFCURVE",
"251 526 OFFCURVE",
"242 527 CURVE SMOOTH",
"187 532 LINE SMOOTH",
"178 533 OFFCURVE",
"171 527 OFFCURVE",
"170 518 CURVE SMOOTH",
"155 386 LINE SMOOTH",
"120 83 OFFCURVE",
"262 -39 OFFCURVE",
"579 -46 CURVE SMOOTH"
);
}
);
width = 1734;
}
);
},
{
glyphname = "dotlessbeh-ar.medi";
lastChange = "2016-02-01 08:54:15 +0000";
layers = (
{
anchors = (
{
name = bottom;
position = "{322, -155}";
},
{
name = top;
position = "{460, 687}";
}
);
layerId = "93A312F7-B931-4485-B08E-C367313EB5E7";
name = Regular;
paths = (
{
closed = 1;
nodes = (
"38 0 LINE SMOOTH",
"146 0 OFFCURVE",
"282 13 OFFCURVE",
"383 104 CURVE SMOOTH",
"390 110 OFFCURVE",
"397 110 OFFCURVE",
"404 103 CURVE SMOOTH",
"478 25 OFFCURVE",
"617 0 OFFCURVE",
"768 0 CURVE SMOOTH",
"794 0 LINE",
"836 52 OFFCURVE",
"836 104 OFFCURVE",
"794 156 CURVE",
"754 156 LINE SMOOTH",
"685 156 OFFCURVE",
"562 171 OFFCURVE",
"493 195 CURVE SMOOTH",
"485 198 OFFCURVE",
"482 204 OFFCURVE",
"483 213 CURVE",
"504 514 LINE",
"505 523 OFFCURVE",
"501 530 OFFCURVE",
"492 531 CURVE",
"438 534 LINE",
"429 535 OFFCURVE",
"421 530 OFFCURVE",
"420 521 CURVE SMOOTH",
"395 310 LINE SMOOTH",
"377 154 OFFCURVE",
"158 156 OFFCURVE",
"44 156 CURVE SMOOTH",
"0 156 LINE SMOOTH",
"-103 156 OFFCURVE",
"-103 0 OFFCURVE",
"0 0 CURVE SMOOTH"
);
}
);
width = 794;
}
);
},
{
glyphname = "dotlessbeh-ar.init";
lastChange = "2016-02-01 08:54:15 +0000";
layers = (
{
anchors = (
{
name = bottom;
position = "{254, -156}";
},
{
name = top;
position = "{361, 981}";
}
);
layerId = "93A312F7-B931-4485-B08E-C367313EB5E7";
name = Regular;
paths = (
{
closed = 1;
nodes = (
"342 1 OFFCURVE",
"529 91 OFFCURVE",
"529 338 CURVE SMOOTH",
"529 418 OFFCURVE",
"468 665 OFFCURVE",
"432 818 CURVE",
"429 829 OFFCURVE",
"420 830 OFFCURVE",
"412 822 CURVE SMOOTH",
"322 731 LINE",
"317 725 OFFCURVE",
"315 719 OFFCURVE",
"317 711 CURVE SMOOTH",
"428 244 LINE SMOOTH",
"430 235 OFFCURVE",
"428 229 OFFCURVE",
"419 225 CURVE SMOOTH",
"316 179 OFFCURVE",
"209 156 OFFCURVE",
"0 156 CURVE SMOOTH",
"-103 156 OFFCURVE",
"-103 0 OFFCURVE",
"0 0 CURVE SMOOTH"
);
}
);
width = 649;
}
);
},
{
glyphname = "peh-ar.init";
lastChange = "2016-02-01 08:54:15 +0000";
layers = (
{
anchors = (
{
name = top;
position = "{473, 1008}";
}
);
components = (
{
name = "threedotsdownbelow-ar";
transform = "{1, 0, 0, 1, 22, -21}";
}
);
layerId = "93A312F7-B931-4485-B08E-C367313EB5E7";
name = Regular;
paths = (
{
closed = 1;
nodes = (
"80 0 LINE SMOOTH",
"260 0 OFFCURVE",
"521 79 OFFCURVE",
"546 182 CURVE",
"566 242 OFFCURVE",
"578 314 OFFCURVE",
"578 368 CURVE SMOOTH",
"578 448 OFFCURVE",
"517 695 OFFCURVE",
"481 848 CURVE",
"478 859 OFFCURVE",
"469 860 OFFCURVE",
"461 852 CURVE SMOOTH",
"371 761 LINE",
"366 755 OFFCURVE",
"364 749 OFFCURVE",
"366 741 CURVE SMOOTH",
"494 277 LINE SMOOTH",
"501 252 OFFCURVE",
"489 245 OFFCURVE",
"473 236 CURVE",
"401 205 OFFCURVE",
"270 156 OFFCURVE",
"80 156 CURVE SMOOTH",
"0 156 LINE SMOOTH",
"-103 156 OFFCURVE",
"-103 0 OFFCURVE",
"0 0 CURVE SMOOTH"
);
}
);
width = 698;
}
);
unicode = FB58;
},
{
glyphname = "hah-ar";
lastChange = "2016-02-01 08:54:15 +0000";
layers = (
{
anchors = (
{
name = bottom;
position = "{700, -842}";
},
{
name = center;
position = "{710, -81}";
},
{
name = top;
position = "{389, 906}";
}
);
layerId = "93A312F7-B931-4485-B08E-C367313EB5E7";
name = Regular;
paths = (
{
closed = 1;
nodes = (
"1091 -645 OFFCURVE",
"1140 -614 OFFCURVE",
"1188 -493 CURVE SMOOTH",
"1193 -480 OFFCURVE",
"1180 -470 OFFCURVE",
"1164 -473 CURVE SMOOTH",
"876 -529 OFFCURVE",
"416 -580 OFFCURVE",
"278 -332 CURVE SMOOTH",
"250 -279 OFFCURVE",
"241 -207 OFFCURVE",
"263 -118 CURVE SMOOTH",
"348 224 OFFCURVE",
"706 432 OFFCURVE",
"1068 437 CURVE SMOOTH",
"1074 437 OFFCURVE",
"1079 441 OFFCURVE",
"1081 446 CURVE",
"1129 592 LINE SMOOTH",
"1133 604 OFFCURVE",
"1124 616 OFFCURVE",
"1110 615 CURVE SMOOTH",
"823 600 OFFCURVE",
"682 678 OFFCURVE",
"534 724 CURVE SMOOTH",
"365 776 OFFCURVE",
"299 759 OFFCURVE",
"168 617 CURVE",
"164 613 OFFCURVE",
"163 608 OFFCURVE",
"164 604 CURVE",
"195 522 LINE SMOOTH",
"200 508 OFFCURVE",
"215 505 OFFCURVE",
"226 516 CURVE SMOOTH",
"327 616 OFFCURVE",
"367 611 OFFCURVE",
"470 579 CURVE SMOOTH",
"691 510 LINE",
"407 414 OFFCURVE",
"154 104 OFFCURVE",
"150 -220 CURVE SMOOTH",
"144 -707 OFFCURVE",
"552 -725 OFFCURVE",
"919 -671 CURVE SMOOTH"
);
}
);
width = 1250;
}
);
unicode = 062D;
},
{
glyphname = "hah-ar.fina";
lastChange = "2016-02-01 08:54:15 +0000";
layers = (
{
anchors = (
{
name = bottom;
position = "{690, -822}";
},
{
name = center;
position = "{590, -104}";
},
{
name = top;
position = "{393, 924}";
}
);
layerId = "93A312F7-B931-4485-B08E-C367313EB5E7";
name = Regular;
paths = (
{
closed = 1;
nodes = (
"1091 -625 OFFCURVE",
"1140 -594 OFFCURVE",
"1188 -473 CURVE SMOOTH",
"1193 -460 OFFCURVE",
"1180 -450 OFFCURVE",
"1164 -453 CURVE SMOOTH",
"876 -509 OFFCURVE",
"416 -560 OFFCURVE",
"278 -312 CURVE SMOOTH",
"250 -259 OFFCURVE",
"241 -187 OFFCURVE",
"263 -98 CURVE SMOOTH",
"312 100 OFFCURVE",
"452 253 OFFCURVE",
"632 347 CURVE",
"705 126 OFFCURVE",
"850 0 OFFCURVE",
"1060 0 CURVE SMOOTH",
"1114 0 LINE",
"1156 52 OFFCURVE",
"1156 104 OFFCURVE",
"1114 156 CURVE",
"1074 156 LINE SMOOTH",
"960 156 OFFCURVE",
"789 202 OFFCURVE",
"725 390 CURVE",
"833 432 OFFCURVE",
"950 455 OFFCURVE",
"1068 457 CURVE SMOOTH",
"1074 457 OFFCURVE",
"1079 461 OFFCURVE",
"1081 466 CURVE",
"1129 612 LINE SMOOTH",
"1133 624 OFFCURVE",
"1124 636 OFFCURVE",
"1110 635 CURVE SMOOTH",
"823 620 OFFCURVE",
"682 698 OFFCURVE",
"534 744 CURVE SMOOTH",
"365 796 OFFCURVE",
"299 779 OFFCURVE",
"168 637 CURVE",
"164 633 OFFCURVE",
"163 628 OFFCURVE",
"164 624 CURVE",
"195 542 LINE SMOOTH",
"200 528 OFFCURVE",
"215 525 OFFCURVE",
"226 536 CURVE SMOOTH",
"327 636 OFFCURVE",
"367 631 OFFCURVE",
"470 599 CURVE SMOOTH",
"691 530 LINE",
"407 434 OFFCURVE",
"154 124 OFFCURVE",
"150 -200 CURVE SMOOTH",
"144 -687 OFFCURVE",
"552 -705 OFFCURVE",
"919 -651 CURVE SMOOTH"
);
}
);
width = 1114;
}
);
unicode = FEA2;
},
{
glyphname = "hah-ar.medi";
lastChange = "2016-02-01 08:54:15 +0000";
layers = (
{
anchors = (
{
name = bottom;
position = "{670, -115}";
},
{
name = top;
position = "{449, 842}";
}
);
layerId = "93A312F7-B931-4485-B08E-C367313EB5E7";
name = Regular;
paths = (
{
closed = 1;
nodes = (
"306 0 OFFCURVE",
"590 127 OFFCURVE",
"838 220 CURVE SMOOTH",
"880 236 OFFCURVE",
"918 249 OFFCURVE",
"952 259 CURVE",
"1037 123 OFFCURVE",
"1133 0 OFFCURVE",
"1357 0 CURVE SMOOTH",
"1397 0 LINE",
"1439 52 OFFCURVE",
"1439 104 OFFCURVE",
"1397 156 CURVE",
"1357 156 LINE SMOOTH",
"1219 156 OFFCURVE",
"1136 205 OFFCURVE",
"1083 285 CURVE",
"1141 291 OFFCURVE",
"1194 288 OFFCURVE",
"1257 281 CURVE",
"1266 281 OFFCURVE",
"1271 285 OFFCURVE",
"1274 293 CURVE",
"1323 442 LINE",
"1326 453 OFFCURVE",
"1322 459 OFFCURVE",
"1310 459 CURVE",
"1099 449 OFFCURVE",
"929 524 OFFCURVE",
"741 600 CURVE SMOOTH",
"488 702 OFFCURVE",
"395 754 OFFCURVE",
"233 559 CURVE",
"227 553 OFFCURVE",
"227 547 OFFCURVE",
"229 539 CURVE",
"259 442 LINE SMOOTH",
"262 431 OFFCURVE",
"271 429 OFFCURVE",
"279 438 CURVE SMOOTH",
"347 510 OFFCURVE",
"384 537 OFFCURVE",
"437 537 CURVE SMOOTH",
"542 537 OFFCURVE",
"771 414 OFFCURVE",
"934 378 CURVE",
"724 320 OFFCURVE",
"382 156 OFFCURVE",
"0 156 CURVE SMOOTH",
"-103 156 OFFCURVE",
"-103 0 OFFCURVE",
"0 0 CURVE SMOOTH"
);
}
);
width = 1397;
}
);
unicode = FEA4;
},
{
glyphname = "hah-ar.init";
lastChange = "2016-02-01 08:54:15 +0000";
layers = (
{
anchors = (
{
name = bottom;
position = "{625, -131}";
},
{
name = top;
position = "{442, 846}";
}
);
layerId = "93A312F7-B931-4485-B08E-C367313EB5E7";
name = Regular;
paths = (
{
closed = 1;
nodes = (
"296 0 OFFCURVE",
"590 127 OFFCURVE",
"838 220 CURVE SMOOTH",
"1033 294 OFFCURVE",
"1123 296 OFFCURVE",
"1257 281 CURVE",
"1266 281 OFFCURVE",
"1271 285 OFFCURVE",
"1274 293 CURVE",
"1323 442 LINE",
"1326 453 OFFCURVE",
"1322 459 OFFCURVE",
"1310 459 CURVE",
"1099 449 OFFCURVE",
"929 524 OFFCURVE",
"741 600 CURVE SMOOTH",
"488 702 OFFCURVE",
"395 754 OFFCURVE",
"233 559 CURVE",
"227 553 OFFCURVE",
"227 547 OFFCURVE",
"229 539 CURVE",
"259 442 LINE SMOOTH",
"262 431 OFFCURVE",
"271 429 OFFCURVE",
"279 438 CURVE SMOOTH",
"347 510 OFFCURVE",
"384 537 OFFCURVE",
"437 537 CURVE SMOOTH",
"542 537 OFFCURVE",
"771 414 OFFCURVE",
"934 378 CURVE",
"724 320 OFFCURVE",
"382 156 OFFCURVE",
"0 156 CURVE SMOOTH",
"-103 156 OFFCURVE",
"-103 0 OFFCURVE",
"0 0 CURVE SMOOTH"
);
}
);
width = 1444;
}
);
unicode = FEA3;
},
{
glyphname = "dal-ar";
lastChange = "2016-02-01 08:54:15 +0000";
layers = (
{
anchors = (
{
name = bottom;
position = "{447, -200}";
},
{
name = top;
position = "{541, 1007}";
}
);
layerId = "93A312F7-B931-4485-B08E-C367313EB5E7";
name = Regular;
paths = (
{
closed = 1;
nodes = (
"509 -49 OFFCURVE",
"743 -8 OFFCURVE",
"818 46 CURVE SMOOTH",
"864 79 OFFCURVE",
"883 134 OFFCURVE",
"883 199 CURVE SMOOTH",
"885 374 OFFCURVE",
"819 481 OFFCURVE",
"581 848 CURVE SMOOTH",
"576 856 OFFCURVE",
"566 856 OFFCURVE",
"563 852 CURVE",
"563 851 OFFCURVE",
"562 851 OFFCURVE",
"562 850 CURVE",
"482 727 LINE",
"478 720 OFFCURVE",
"478 713 OFFCURVE",
"483 705 CURVE",
"738 351 OFFCURVE",
"769 253 OFFCURVE",
"781 187 CURVE",
"652 142 OFFCURVE",
"484 108 OFFCURVE",
"332 126 CURVE SMOOTH",
"265 134 OFFCURVE",
"258 159 OFFCURVE",
"253 268 CURVE",
"252 278 OFFCURVE",
"246 283 OFFCURVE",
"237 283 CURVE SMOOTH",
"170 283 LINE SMOOTH",
"161 283 OFFCURVE",
"156 278 OFFCURVE",
"155 269 CURVE SMOOTH",
"141 104 OFFCURVE",
"136 -49 OFFCURVE",
"389 -49 CURVE SMOOTH"
);
}
);
width = 1003;
}
);
unicode = 062F;
},
{
glyphname = "dal-ar.fina";
lastChange = "2016-02-01 08:54:15 +0000";
layers = (
{
anchors = (
{
name = bottom;
position = "{447, -200}";
},
{
name = top;
position = "{765, 1042}";
}
);
layerId = "93A312F7-B931-4485-B08E-C367313EB5E7";
name = Regular;
paths = (
{
closed = 1;
nodes = (
"509 -49 OFFCURVE",
"721 -8 OFFCURVE",
"796 46 CURVE SMOOTH",
"827 68 OFFCURVE",
"844 100 OFFCURVE",
"852 138 CURVE SMOOTH",
"854 149 OFFCURVE",
"858 149 OFFCURVE",
"863 139 CURVE",
"907 41 OFFCURVE",
"993 0 OFFCURVE",
"1101 0 CURVE SMOOTH",
"1141 0 LINE",
"1183 52 OFFCURVE",
"1183 104 OFFCURVE",
"1141 156 CURVE",
"1113 156 LINE SMOOTH",
"937 156 OFFCURVE",
"894 216 OFFCURVE",
"855 457 CURVE SMOOTH",
"786 880 LINE SMOOTH",
"784 891 OFFCURVE",
"776 895 OFFCURVE",
"767 888 CURVE SMOOTH",
"663 809 LINE",
"657 804 OFFCURVE",
"653 799 OFFCURVE",
"655 790 CURVE SMOOTH",
"771 193 LINE SMOOTH",
"773 183 OFFCURVE",
"769 178 OFFCURVE",
"761 175 CURVE",
"633 136 OFFCURVE",
"459 108 OFFCURVE",
"332 126 CURVE SMOOTH",
"266 136 OFFCURVE",
"259 159 OFFCURVE",
"253 268 CURVE",
"252 278 OFFCURVE",
"246 283 OFFCURVE",
"237 283 CURVE SMOOTH",
"170 283 LINE SMOOTH",
"161 283 OFFCURVE",
"156 278 OFFCURVE",
"155 269 CURVE SMOOTH",
"141 104 OFFCURVE",
"136 -49 OFFCURVE",
"389 -49 CURVE SMOOTH"
);
}
);
width = 1141;
}
);
unicode = FEAA;
userData = {
com.typemytype.robofont.guides = (
{
angle = 0;
isGlobal = 0;
x = 2480;
y = "-225";
}
);
};
},
{
glyphname = "reh-ar";
lastChange = "2016-02-01 08:54:15 +0000";
layers = (
{
anchors = (
{
name = bottom;
position = "{260, -565}";
},
{
name = top;
position = "{485, 840}";
}
);
layerId = "93A312F7-B931-4485-B08E-C367313EB5E7";
name = Regular;
paths = (
{
closed = 1;
nodes = (
"533 -347 OFFCURVE",
"653 -146 OFFCURVE",
"672 40 CURVE SMOOTH",
"684 161 OFFCURVE",
"622 393 OFFCURVE",
"577 584 CURVE SMOOTH",
"574 595 OFFCURVE",
"565 596 OFFCURVE",
"557 588 CURVE SMOOTH",
"467 497 LINE",
"462 491 OFFCURVE",
"460 485 OFFCURVE",
"462 477 CURVE SMOOTH",
"586 41 LINE SMOOTH",
"588 33 OFFCURVE",
"588 28 OFFCURVE",
"585 21 CURVE SMOOTH",
"464 -253 OFFCURVE",
"302 -380 OFFCURVE",
"-35 -306 CURVE SMOOTH",
"-44 -304 OFFCURVE",
"-50 -310 OFFCURVE",
"-53 -319 CURVE SMOOTH",
"-73 -377 LINE",
"-75 -385 OFFCURVE",
"-71 -391 OFFCURVE",
"-62 -394 CURVE SMOOTH",
"144 -463 OFFCURVE",
"288 -484 OFFCURVE",
"410 -416 CURVE SMOOTH"
);
}
);
width = 794;
}
);
unicode = 0631;
userData = {
com.typemytype.robofont.guides = (
{
angle = 0;
isGlobal = 0;
x = "-844";
y = "-463";
}
);
};
},
{
glyphname = "reh-ar.fina";
lastChange = "2016-02-01 08:54:15 +0000";
layers = (
{
anchors = (
{
name = bottom;
position = "{290, -565}";
},
{
name = top;
position = "{560, 745}";
}
);
layerId = "93A312F7-B931-4485-B08E-C367313EB5E7";
name = Regular;
paths = (
{
closed = 1;
nodes = (
"539 -349 OFFCURVE",
"687 -126 OFFCURVE",
"710 90 CURVE",
"763 25 OFFCURVE",
"828 0 OFFCURVE",
"916 0 CURVE SMOOTH",
"1009 0 LINE",
"1051 52 OFFCURVE",
"1051 104 OFFCURVE",
"1009 156 CURVE",
"916 156 LINE SMOOTH",
"753 156 OFFCURVE",
"719 225 OFFCURVE",
"666 454 CURVE SMOOTH",
"635 587 LINE SMOOTH",
"632 601 OFFCURVE",
"618 607 OFFCURVE",
"607 597 CURVE SMOOTH",
"520 518 LINE",
"515 514 OFFCURVE",
"514 510 OFFCURVE",
"515 504 CURVE",
"616 86 LINE",
"618 79 OFFCURVE",
"616 73 OFFCURVE",
"614 67 CURVE SMOOTH",
"494 -261 OFFCURVE",
"292 -378 OFFCURVE",
"-35 -306 CURVE SMOOTH",
"-44 -304 OFFCURVE",
"-50 -310 OFFCURVE",
"-53 -319 CURVE SMOOTH",
"-73 -377 LINE",
"-75 -385 OFFCURVE",
"-71 -391 OFFCURVE",
"-62 -394 CURVE SMOOTH",
"144 -463 OFFCURVE",
"286 -481 OFFCURVE",
"410 -416 CURVE SMOOTH"
);
}
);
width = 1009;
}
);
unicode = FEAE;
userData = {
com.typemytype.robofont.guides = (
{
angle = 0;
isGlobal = 0;
x = 618;
y = 606;
}
);
};
},
{
glyphname = "seen-ar";
lastChange = "2016-02-01 08:54:15 +0000";
layers = (
{
anchors = (
{
name = bottom;
position = "{614, -612}";
},
{
name = top;
position = "{645, 620}";
}
);
layerId = "93A312F7-B931-4485-B08E-C367313EB5E7";
name = Regular;
paths = (
{
closed = 1;
nodes = (
"709 -462 OFFCURVE",
"1021 -380 OFFCURVE",
"1125 -236 CURVE SMOOTH",
"1170 -174 OFFCURVE",
"1164 -95 OFFCURVE",
"1154 19 CURVE",
"1249 -23 OFFCURVE",
"1542 -15 OFFCURVE",
"1619 83 CURVE",
"1693 37 OFFCURVE",
"1796 -3 OFFCURVE",
"1887 -5 CURVE SMOOTH",
"2099 -12 OFFCURVE",
"2189 40 OFFCURVE",
"2183 268 CURVE SMOOTH",
"2179 356 OFFCURVE",
"2151 583 OFFCURVE",
"2116 730 CURVE SMOOTH",
"2113 741 OFFCURVE",
"2104 742 OFFCURVE",
"2096 734 CURVE SMOOTH",
"2006 643 LINE",
"2001 637 OFFCURVE",
"1999 631 OFFCURVE",
"2001 623 CURVE SMOOTH",
"2098 185 LINE SMOOTH",
"2101 173 OFFCURVE",
"2092 164 OFFCURVE",
"2081 161 CURVE",
"1943 133 OFFCURVE",
"1824 143 OFFCURVE",
"1703 196 CURVE SMOOTH",
"1698 198 OFFCURVE",
"1694 203 OFFCURVE",
"1695 210 CURVE SMOOTH",
"1729 506 LINE SMOOTH",
"1730 516 OFFCURVE",
"1724 522 OFFCURVE",
"1715 523 CURVE SMOOTH",
"1655 528 LINE",
"1647 529 OFFCURVE",
"1640 524 OFFCURVE",
"1639 515 CURVE SMOOTH",
"1610 302 LINE SMOOTH",
"1593 175 OFFCURVE",
"1482 149 OFFCURVE",
"1344 151 CURVE SMOOTH",
"1220 153 OFFCURVE",
"1139 167 OFFCURVE",
"1125 263 CURVE SMOOTH",
"1092 495 LINE SMOOTH",
"1090 511 OFFCURVE",
"1075 516 OFFCURVE",
"1063 507 CURVE SMOOTH",
"967 436 LINE SMOOTH",
"963 433 OFFCURVE",
"961 428 OFFCURVE",
"962 423 CURVE",
"1055 -154 LINE SMOOTH",
"1056 -160 OFFCURVE",
"1053 -167 OFFCURVE",
"1047 -169 CURVE",
"995 -193 OFFCURVE",
"766 -287 OFFCURVE",
"536 -287 CURVE SMOOTH",
"340 -287 OFFCURVE",
"219 -189 OFFCURVE",
"263 53 CURVE SMOOTH",
"293 218 LINE SMOOTH",
"295 228 OFFCURVE",
"288 235 OFFCURVE",
"279 236 CURVE SMOOTH",
"215 245 LINE SMOOTH",
"207 246 OFFCURVE",
"200 242 OFFCURVE",
"198 233 CURVE",
"162 33 LINE SMOOTH",
"116 -222 OFFCURVE",
"192 -462 OFFCURVE",
"512 -462 CURVE SMOOTH"
);
}
);
width = 2303;
}
);
unicode = 0633;
},
{
glyphname = "seen-ar.fina";
lastChange = "2016-02-01 08:54:15 +0000";
layers = (
{
anchors = (
{
name = bottom;
position = "{614, -612}";
},
{
name = top;
position = "{645, 620}";
}
);
layerId = "93A312F7-B931-4485-B08E-C367313EB5E7";
name = Regular;
paths = (
{
closed = 1;
nodes = (
"710 -462 OFFCURVE",
"1022 -380 OFFCURVE",
"1126 -236 CURVE SMOOTH",
"1171 -174 OFFCURVE",
"1165 -96 OFFCURVE",
"1155 18 CURVE",
"1221 0 OFFCURVE",
"1296 -8 OFFCURVE",
"1357 -8 CURVE SMOOTH",
"1469 -7 OFFCURVE",
"1580 24 OFFCURVE",
"1621 76 CURVE",
"1695 30 OFFCURVE",
"1798 -1 OFFCURVE",
"1889 -3 CURVE SMOOTH",
"2032 -8 OFFCURVE",
"2136 14 OFFCURVE",
"2179 100 CURVE SMOOTH",
"2186 113 OFFCURVE",
"2198 115 OFFCURVE",
"2208 103 CURVE SMOOTH",
"2261 36 OFFCURVE",
"2337 0 OFFCURVE",
"2426 0 CURVE SMOOTH",
"2496 0 LINE",
"2538 52 OFFCURVE",
"2538 104 OFFCURVE",
"2496 156 CURVE",
"2426 156 LINE SMOOTH",
"2272 156 OFFCURVE",
"2242 226 OFFCURVE",
"2206 454 CURVE SMOOTH",
"2185 587 LINE SMOOTH",
"2183 601 OFFCURVE",
"2168 606 OFFCURVE",
"2157 597 CURVE SMOOTH",
"2070 528 LINE SMOOTH",
"2065 524 OFFCURVE",
"2064 520 OFFCURVE",
"2065 514 CURVE SMOOTH",
"2120 181 LINE",
"2121 172 OFFCURVE",
"2117 164 OFFCURVE",
"2108 162 CURVE SMOOTH",
"1966 134 OFFCURVE",
"1827 141 OFFCURVE",
"1705 198 CURVE SMOOTH",
"1699 201 OFFCURVE",
"1696 206 OFFCURVE",
"1697 212 CURVE",
"1731 506 LINE SMOOTH",
"1732 516 OFFCURVE",
"1726 522 OFFCURVE",
"1717 523 CURVE SMOOTH",
"1657 528 LINE",
"1649 529 OFFCURVE",
"1642 524 OFFCURVE",
"1641 515 CURVE SMOOTH",
"1612 298 LINE SMOOTH",
"1595 173 OFFCURVE",
"1494 150 OFFCURVE",
"1365 150 CURVE SMOOTH",
"1307 150 OFFCURVE",
"1246 152 OFFCURVE",
"1201 168 CURVE SMOOTH",
"1162 182 OFFCURVE",
"1134 208 OFFCURVE",
"1126 262 CURVE SMOOTH",
"1093 495 LINE SMOOTH",
"1091 511 OFFCURVE",
"1076 516 OFFCURVE",
"1064 507 CURVE SMOOTH",
"968 436 LINE SMOOTH",
"964 433 OFFCURVE",
"962 428 OFFCURVE",
"963 423 CURVE",
"1056 -154 LINE SMOOTH",
"1057 -160 OFFCURVE",
"1054 -167 OFFCURVE",
"1048 -169 CURVE",
"996 -193 OFFCURVE",
"767 -287 OFFCURVE",
"537 -287 CURVE SMOOTH",
"341 -287 OFFCURVE",
"217 -188 OFFCURVE",
"264 53 CURVE SMOOTH",
"294 208 LINE SMOOTH",
"296 218 OFFCURVE",
"289 225 OFFCURVE",
"280 226 CURVE SMOOTH",
"216 235 LINE SMOOTH",
"208 236 OFFCURVE",
"201 232 OFFCURVE",
"199 223 CURVE SMOOTH",
"163 33 LINE SMOOTH",
"115 -222 OFFCURVE",
"193 -462 OFFCURVE",
"513 -462 CURVE SMOOTH"
);
}
);
width = 2496;
}
);
unicode = FEB2;
},
{
glyphname = "seen-ar.medi";
lastChange = "2016-02-01 08:54:15 +0000";
layers = (
{
anchors = (
{
name = bottom;
position = "{990, -170}";
},
{
name = top;
position = "{872, 760}";
}
);
layerId = "93A312F7-B931-4485-B08E-C367313EB5E7";
name = Regular;
paths = (
{
closed = 1;
nodes = (
"753 -5 OFFCURVE",
"864 19 OFFCURVE",
"905 71 CURVE",
"979 25 OFFCURVE",
"1082 -3 OFFCURVE",
"1173 -5 CURVE SMOOTH",
"1316 -10 OFFCURVE",
"1420 14 OFFCURVE",
"1463 100 CURVE SMOOTH",
"1470 113 OFFCURVE",
"1482 115 OFFCURVE",
"1492 103 CURVE SMOOTH",
"1545 36 OFFCURVE",
"1621 0 OFFCURVE",
"1710 0 CURVE SMOOTH",
"1770 0 LINE",
"1812 52 OFFCURVE",
"1812 104 OFFCURVE",
"1770 156 CURVE",
"1710 156 LINE SMOOTH",
"1545 156 OFFCURVE",
"1509 220 OFFCURVE",
"1490 454 CURVE SMOOTH",
"1479 587 LINE SMOOTH",
"1478 601 OFFCURVE",
"1462 606 OFFCURVE",
"1451 597 CURVE SMOOTH",
"1364 528 LINE SMOOTH",
"1359 524 OFFCURVE",
"1358 520 OFFCURVE",
"1359 514 CURVE SMOOTH",
"1404 181 LINE SMOOTH",
"1405 172 OFFCURVE",
"1401 164 OFFCURVE",
"1392 162 CURVE SMOOTH",
"1250 134 OFFCURVE",
"1111 141 OFFCURVE",
"989 188 CURVE",
"983 190 OFFCURVE",
"980 196 OFFCURVE",
"981 202 CURVE",
"1015 506 LINE SMOOTH",
"1016 516 OFFCURVE",
"1010 522 OFFCURVE",
"1001 523 CURVE SMOOTH",
"941 528 LINE",
"933 529 OFFCURVE",
"926 524 OFFCURVE",
"925 515 CURVE SMOOTH",
"896 288 LINE SMOOTH",
"880 163 OFFCURVE",
"778 147 OFFCURVE",
"649 147 CURVE SMOOTH",
"578 147 OFFCURVE",
"489 156 OFFCURVE",
"421 176 CURVE",
"415 178 OFFCURVE",
"413 184 OFFCURVE",
"413 190 CURVE",
"438 506 LINE SMOOTH",
"439 516 OFFCURVE",
"433 522 OFFCURVE",
"423 523 CURVE",
"363 526 LINE",
"355 526 OFFCURVE",
"348 522 OFFCURVE",
"347 513 CURVE SMOOTH",
"329 367 LINE SMOOTH",
"307 189 OFFCURVE",
"282 160 OFFCURVE",
"112 157 CURVE SMOOTH",
"0 157 LINE SMOOTH",
"-103 157 OFFCURVE",
"-103 0 OFFCURVE",
"0 0 CURVE SMOOTH",
"98 0 LINE SMOOTH",
"188 0 OFFCURVE",
"274 34 OFFCURVE",
"307 76 CURVE",
"374 1 OFFCURVE",
"530 -6 OFFCURVE",
"641 -6 CURVE SMOOTH"
);
}
);
width = 1770;
}
);
unicode = FEB4;
},
{
glyphname = "seen-ar.init";
lastChange = "2016-02-01 08:54:15 +0000";
layers = (
{
anchors = (
{
name = bottom;
position = "{995, -170}";
},
{
name = top;
position = "{877, 760}";
}
);
layerId = "93A312F7-B931-4485-B08E-C367313EB5E7";
name = Regular;
paths = (
{
closed = 1;
nodes = (
"763 -4 OFFCURVE",
"874 25 OFFCURVE",
"915 77 CURVE",
"989 31 OFFCURVE",
"1092 -1 OFFCURVE",
"1183 -3 CURVE SMOOTH",
"1395 -10 OFFCURVE",
"1485 42 OFFCURVE",
"1479 270 CURVE SMOOTH",
"1475 358 OFFCURVE",
"1437 583 OFFCURVE",
"1402 730 CURVE SMOOTH",
"1399 741 OFFCURVE",
"1390 742 OFFCURVE",
"1382 734 CURVE SMOOTH",
"1292 643 LINE",
"1287 637 OFFCURVE",
"1285 631 OFFCURVE",
"1287 623 CURVE SMOOTH",
"1394 187 LINE SMOOTH",
"1397 175 OFFCURVE",
"1388 166 OFFCURVE",
"1377 163 CURVE",
"1239 135 OFFCURVE",
"1120 145 OFFCURVE",
"999 198 CURVE SMOOTH",
"994 200 OFFCURVE",
"990 205 OFFCURVE",
"991 212 CURVE SMOOTH",
"1025 506 LINE SMOOTH",
"1026 516 OFFCURVE",
"1020 522 OFFCURVE",
"1011 523 CURVE SMOOTH",
"951 528 LINE",
"943 529 OFFCURVE",
"936 524 OFFCURVE",
"935 515 CURVE SMOOTH",
"906 299 LINE SMOOTH",
"890 174 OFFCURVE",
"788 148 OFFCURVE",
"659 148 CURVE SMOOTH",
"588 148 OFFCURVE",
"499 157 OFFCURVE",
"431 187 CURVE",
"425 189 OFFCURVE",
"423 195 OFFCURVE",
"423 201 CURVE",
"448 506 LINE SMOOTH",
"449 516 OFFCURVE",
"443 522 OFFCURVE",
"433 523 CURVE",
"373 526 LINE",
"365 526 OFFCURVE",
"358 522 OFFCURVE",
"357 513 CURVE SMOOTH",
"339 378 LINE SMOOTH",
"315 198 OFFCURVE",
"282 170 OFFCURVE",
"105 159 CURVE",
"0 157 LINE SMOOTH",
"-103 155 OFFCURVE",
"-103 0 OFFCURVE",
"0 0 CURVE SMOOTH",
"108 0 LINE SMOOTH",
"198 0 OFFCURVE",
"284 45 OFFCURVE",
"317 87 CURVE",
"384 12 OFFCURVE",
"540 -5 OFFCURVE",
"651 -5 CURVE SMOOTH"
);
}
);
width = 1599;
}
);
unicode = FEB3;
},
{
glyphname = "sad-ar";
lastChange = "2016-02-01 08:54:15 +0000";
layers = (
{
anchors = (
{
name = bottom;
position = "{615, -612}";
},
{
name = top;
position = "{645, 620}";
}
);
layerId = "93A312F7-B931-4485-B08E-C367313EB5E7";
name = Regular;
paths = (
{
closed = 1;
nodes = (
"711 -462 OFFCURVE",
"1023 -371 OFFCURVE",
"1127 -236 CURVE SMOOTH",
"1169 -181 OFFCURVE",
"1170 -128 OFFCURVE",
"1151 73 CURVE",
"1372 -63 OFFCURVE",
"1984 -31 OFFCURVE",
"2172 151 CURVE",
"2370 375 OFFCURVE",
"2066 677 OFFCURVE",
"1847 679 CURVE SMOOTH",
"1693 680 OFFCURVE",
"1502 619 OFFCURVE",
"1178 221 CURVE",
"1119 271 OFFCURVE",
"1124 364 OFFCURVE",
"1106 502 CURVE SMOOTH",
"1104 518 OFFCURVE",
"1089 523 OFFCURVE",
"1077 514 CURVE SMOOTH",
"981 443 LINE SMOOTH",
"977 440 OFFCURVE",
"975 435 OFFCURVE",
"976 430 CURVE",
"1057 -154 LINE SMOOTH",
"1058 -160 OFFCURVE",
"1055 -167 OFFCURVE",
"1049 -169 CURVE",
"977 -203 OFFCURVE",
"808 -287 OFFCURVE",
"538 -287 CURVE SMOOTH",
"332 -287 OFFCURVE",
"221 -189 OFFCURVE",
"265 53 CURVE SMOOTH",
"295 218 LINE SMOOTH",
"297 228 OFFCURVE",
"290 235 OFFCURVE",
"281 236 CURVE SMOOTH",
"217 245 LINE SMOOTH",
"209 246 OFFCURVE",
"202 242 OFFCURVE",
"200 233 CURVE",
"164 33 LINE SMOOTH",
"118 -222 OFFCURVE",
"174 -462 OFFCURVE",
"514 -462 CURVE SMOOTH"
);
},
{
closed = 1;
nodes = (
"1497 470 OFFCURVE",
"1635 527 OFFCURVE",
"1777 527 CURVE SMOOTH",
"1960 527 OFFCURVE",
"2099 353 OFFCURVE",
"2137 278 CURVE",
"2141 269 OFFCURVE",
"2139 263 OFFCURVE",
"2131 258 CURVE SMOOTH",
"1894 116 OFFCURVE",
"1519 116 OFFCURVE",
"1262 187 CURVE"
);
}
);
width = 2356;
}
);
unicode = 0635;
},
{
glyphname = "sad-ar.fina";
lastChange = "2016-02-01 08:54:15 +0000";
layers = (
{
anchors = (
{
name = bottom;
position = "{615, -612}";
},
{
name = top;
position = "{645, 620}";
}
);
layerId = "93A312F7-B931-4485-B08E-C367313EB5E7";
name = Regular;
paths = (
{
closed = 1;
nodes = (
"709 -462 OFFCURVE",
"1012 -380 OFFCURVE",
"1116 -236 CURVE SMOOTH",
"1157 -179 OFFCURVE",
"1167 -131 OFFCURVE",
"1149 53 CURVE",
"1259 12 OFFCURVE",
"1404 -7 OFFCURVE",
"1551 -5 CURVE SMOOTH",
"1738 -4 OFFCURVE",
"1966 29 OFFCURVE",
"2092 80 CURVE SMOOTH",
"2100 83 OFFCURVE",
"2106 82 OFFCURVE",
"2112 75 CURVE",
"2172 10 OFFCURVE",
"2270 0 OFFCURVE",
"2420 0 CURVE SMOOTH",
"2460 0 LINE",
"2502 52 OFFCURVE",
"2502 104 OFFCURVE",
"2460 156 CURVE",
"2420 156 LINE SMOOTH",
"2367 156 OFFCURVE",
"2262 159 OFFCURVE",
"2190 173 CURVE SMOOTH",
"2180 175 OFFCURVE",
"2176 181 OFFCURVE",
"2179 191 CURVE SMOOTH",
"2251 411 OFFCURVE",
"2060 687 OFFCURVE",
"1831 689 CURVE SMOOTH",
"1684 690 OFFCURVE",
"1486 573 OFFCURVE",
"1183 213 CURVE",
"1177 205 OFFCURVE",
"1170 204 OFFCURVE",
"1163 208 CURVE SMOOTH",
"1129 227 OFFCURVE",
"1125 251 OFFCURVE",
"1091 503 CURVE SMOOTH",
"1089 517 OFFCURVE",
"1081 521 OFFCURVE",
"1072 514 CURVE SMOOTH",
"971 438 LINE",
"965 433 OFFCURVE",
"962 428 OFFCURVE",
"963 419 CURVE",
"1057 -165 LINE",
"1038 -174 OFFCURVE",
"788 -287 OFFCURVE",
"536 -287 CURVE SMOOTH",
"340 -287 OFFCURVE",
"219 -188 OFFCURVE",
"263 53 CURVE SMOOTH",
"293 219 LINE",
"295 228 OFFCURVE",
"290 235 OFFCURVE",
"281 236 CURVE SMOOTH",
"215 245 LINE SMOOTH",
"206 246 OFFCURVE",
"200 243 OFFCURVE",
"198 233 CURVE SMOOTH",
"162 33 LINE SMOOTH",
"116 -222 OFFCURVE",
"192 -462 OFFCURVE",
"512 -462 CURVE SMOOTH"
);
},
{
closed = 1;
nodes = (
"1493 450 OFFCURVE",
"1656 535 OFFCURVE",
"1797 535 CURVE SMOOTH",
"1976 535 OFFCURVE",
"2086 310 OFFCURVE",
"2104 248 CURVE",
"2107 240 OFFCURVE",
"2103 233 OFFCURVE",
"2094 230 CURVE",
"1807 119 OFFCURVE",
"1506 133 OFFCURVE",
"1265 175 CURVE"
);
}
);
width = 2460;
}
);
unicode = FEBA;
},
{
glyphname = "sad-ar.medi";
lastChange = "2016-02-01 08:54:15 +0000";
layers = (
{
anchors = (
{
name = bottom;
position = "{847, -167}";
},
{
name = top;
position = "{998, 839}";
}
);
layerId = "93A312F7-B931-4485-B08E-C367313EB5E7";
name = Regular;
paths = (
{
closed = 1;
nodes = (
"942 -1 OFFCURVE",
"1172 34 OFFCURVE",
"1297 96 CURVE SMOOTH",
"1303 99 OFFCURVE",
"1309 97 OFFCURVE",
"1315 90 CURVE SMOOTH",
"1375 24 OFFCURVE",
"1472 0 OFFCURVE",
"1622 0 CURVE SMOOTH",
"1662 0 LINE",
"1704 52 OFFCURVE",
"1704 104 OFFCURVE",
"1662 156 CURVE",
"1622 156 LINE SMOOTH",
"1569 156 OFFCURVE",
"1464 159 OFFCURVE",
"1392 173 CURVE SMOOTH",
"1382 175 OFFCURVE",
"1378 181 OFFCURVE",
"1381 191 CURVE SMOOTH",
"1453 411 OFFCURVE",
"1262 687 OFFCURVE",
"1033 689 CURVE SMOOTH",
"886 690 OFFCURVE",
"688 576 OFFCURVE",
"384 215 CURVE",
"379 208 OFFCURVE",
"372 206 OFFCURVE",
"364 209 CURVE SMOOTH",
"332 222 OFFCURVE",
"334 237 OFFCURVE",
"341 321 CURVE SMOOTH",
"357 507 LINE SMOOTH",
"358 516 OFFCURVE",
"352 523 OFFCURVE",
"343 523 CURVE SMOOTH",
"282 525 LINE SMOOTH",
"273 525 OFFCURVE",
"267 522 OFFCURVE",
"266 512 CURVE SMOOTH",
"240 313 LINE SMOOTH",
"224 206 OFFCURVE",
"200 156 OFFCURVE",
"40 156 CURVE SMOOTH",
"0 156 LINE SMOOTH",
"-103 156 OFFCURVE",
"-103 0 OFFCURVE",
"0 0 CURVE SMOOTH",
"40 0 LINE SMOOTH",
"135 0 OFFCURVE",
"215 27 OFFCURVE",
"269 89 CURVE",
"381 27 OFFCURVE",
"566 -4 OFFCURVE",
"753 -2 CURVE SMOOTH"
);
},
{
closed = 1;
nodes = (
"695 453 OFFCURVE",
"858 535 OFFCURVE",
"999 535 CURVE SMOOTH",
"1178 535 OFFCURVE",
"1288 316 OFFCURVE",
"1306 255 CURVE",
"1309 247 OFFCURVE",
"1305 240 OFFCURVE",
"1296 237 CURVE",
"984 113 OFFCURVE",
"738 130 OFFCURVE",
"467 178 CURVE"
);
}
);
width = 1662;
}
);
unicode = FEBC;
},
{
glyphname = "sad-ar.init";
lastChange = "2016-02-01 08:54:15 +0000";
layers = (
{
anchors = (
{
name = bottom;
position = "{847, -167}";
},
{
name = top;
position = "{998, 839}";
}
);
layerId = "93A312F7-B931-4485-B08E-C367313EB5E7";
name = Regular;
paths = (
{
closed = 1;
nodes = (
"962 -2 OFFCURVE",
"1223 45 OFFCURVE",
"1368 171 CURVE SMOOTH",
"1554 336 OFFCURVE",
"1338 687 OFFCURVE",
"1053 689 CURVE SMOOTH",
"905 690 OFFCURVE",
"706 571 OFFCURVE",
"400 206 CURVE",
"395 199 OFFCURVE",
"388 197 OFFCURVE",
"380 200 CURVE",
"332 215 OFFCURVE",
"333 221 OFFCURVE",
"341 317 CURVE SMOOTH",
"357 507 LINE SMOOTH",
"358 516 OFFCURVE",
"352 523 OFFCURVE",
"343 523 CURVE SMOOTH",
"282 525 LINE SMOOTH",
"273 525 OFFCURVE",
"267 522 OFFCURVE",
"266 512 CURVE",
"240 322 LINE SMOOTH",
"225 215 OFFCURVE",
"200 156 OFFCURVE",
"40 156 CURVE SMOOTH",
"0 156 LINE SMOOTH",
"-103 156 OFFCURVE",
"-103 0 OFFCURVE",
"0 0 CURVE SMOOTH",
"40 0 LINE SMOOTH",
"132 0 OFFCURVE",
"210 37 OFFCURVE",
"264 95 CURVE",
"376 24 OFFCURVE",
"543 -7 OFFCURVE",
"717 -5 CURVE SMOOTH"
);
},
{
closed = 1;
nodes = (
"715 449 OFFCURVE",
"852 524 OFFCURVE",
"993 524 CURVE SMOOTH",
"1185 524 OFFCURVE",
"1309 362 OFFCURVE",
"1343 298 CURVE",
"1347 289 OFFCURVE",
"1345 283 OFFCURVE",
"1336 278 CURVE SMOOTH",
"1082 139 OFFCURVE",
"711 131 OFFCURVE",
"487 174 CURVE"
);
}
);
width = 1557;
}
);
unicode = FEBB;
},
{
glyphname = "tah-ar";
lastChange = "2016-02-01 08:54:15 +0000";
layers = (
{
anchors = (
{
name = bottom;
position = "{692, -170}";
},
{
name = top;
position = "{1065, 885}";
}
);
layerId = "93A312F7-B931-4485-B08E-C367313EB5E7";
name = Regular;
paths = (
{
closed = 1;
nodes = (
"628 -27 OFFCURVE",
"1135 -29 OFFCURVE",
"1380 209 CURVE SMOOTH",
"1564 390 OFFCURVE",
"1347 733 OFFCURVE",
"1085 734 CURVE SMOOTH",
"922 735 OFFCURVE",
"741 607 OFFCURVE",
"573 421 CURVE",
"599 505 OFFCURVE",
"603 600 OFFCURVE",
"599 734 CURVE SMOOTH",
"582 1314 LINE",
"582 1331 OFFCURVE",
"565 1340 OFFCURVE",
"551 1329 CURVE SMOOTH",
"437 1244 LINE",
"434 1242 OFFCURVE",
"431 1238 OFFCURVE",
"431 1233 CURVE",
"483 382 OFFCURVE",
"526 362 OFFCURVE",
"344 170 CURVE SMOOTH",
"341 167 OFFCURVE",
"338 166 OFFCURVE",
"334 166 CURVE",
"169 183 LINE SMOOTH",
"157 184 OFFCURVE",
"147 174 OFFCURVE",
"151 161 CURVE",
"182 31 OFFCURVE",
"214 -4 OFFCURVE",
"328 -10 CURVE SMOOTH"
);
},
{
closed = 1;
nodes = (
"757 482 OFFCURVE",
"860 563 OFFCURVE",
"1010 563 CURVE SMOOTH",
"1211 563 OFFCURVE",
"1316 394 OFFCURVE",
"1341 321 CURVE SMOOTH",
"1343 315 OFFCURVE",
"1340 308 OFFCURVE",
"1333 305 CURVE",
"1078 177 OFFCURVE",
"751 145 OFFCURVE",
"445 159 CURVE"
);
}
);
width = 1568;
}
);
unicode = 0637;
},
{
glyphname = "tah-ar.fina";
lastChange = "2016-02-01 08:54:15 +0000";
layers = (
{
anchors = (
{
name = bottom;
position = "{692, -170}";
},
{
name = top;
position = "{1065, 885}";
}
);
layerId = "93A312F7-B931-4485-B08E-C367313EB5E7";
name = Regular;
paths = (
{
closed = 1;
nodes = (
"561 -13 OFFCURVE",
"919 -17 OFFCURVE",
"1182 84 CURVE",
"1189 86 OFFCURVE",
"1195 85 OFFCURVE",
"1199 81 CURVE SMOOTH",
"1263 15 OFFCURVE",
"1413 0 OFFCURVE",
"1562 0 CURVE SMOOTH",
"1596 0 LINE SMOOTH",
"1600 0 OFFCURVE",
"1603 2 OFFCURVE",
"1606 5 CURVE",
"1643 53 OFFCURVE",
"1643 103 OFFCURVE",
"1606 151 CURVE",
"1603 154 OFFCURVE",
"1600 156 OFFCURVE",
"1596 156 CURVE SMOOTH",
"1562 156 LINE SMOOTH",
"1510 156 OFFCURVE",
"1408 161 OFFCURVE",
"1337 172 CURVE",
"1352 184 OFFCURVE",
"1367 196 OFFCURVE",
"1380 209 CURVE SMOOTH",
"1564 390 OFFCURVE",
"1347 716 OFFCURVE",
"1085 734 CURVE SMOOTH",
"922 745 OFFCURVE",
"741 617 OFFCURVE",
"573 431 CURVE",
"599 515 OFFCURVE",
"604 610 OFFCURVE",
"599 744 CURVE SMOOTH",
"578 1321 LINE SMOOTH",
"577 1337 OFFCURVE",
"561 1345 OFFCURVE",
"548 1336 CURVE SMOOTH",
"434 1256 LINE",
"430 1254 OFFCURVE",
"428 1249 OFFCURVE",
"428 1245 CURVE",
"481 379 OFFCURVE",
"520 365 OFFCURVE",
"344 180 CURVE SMOOTH",
"341 177 OFFCURVE",
"338 176 OFFCURVE",
"334 176 CURVE",
"169 193 LINE SMOOTH",
"157 194 OFFCURVE",
"147 184 OFFCURVE",
"151 171 CURVE",
"182 41 OFFCURVE",
"214 6 OFFCURVE",
"328 0 CURVE SMOOTH"
);
},
{
closed = 1;
nodes = (
"757 492 OFFCURVE",
"860 573 OFFCURVE",
"1010 563 CURVE SMOOTH",
"1211 550 OFFCURVE",
"1316 392 OFFCURVE",
"1341 321 CURVE SMOOTH",
"1343 315 OFFCURVE",
"1340 308 OFFCURVE",
"1333 305 CURVE",
"1078 177 OFFCURVE",
"751 155 OFFCURVE",
"445 169 CURVE"
);
}
);
width = 1602;
}
);
unicode = FEC2;
},
{
glyphname = "tah-ar.medi";
lastChange = "2016-02-01 08:54:15 +0000";
layers = (
{
anchors = (
{
name = bottom;
position = "{600, -150}";
},
{
name = top;
position = "{954, 884}";
}
);
layerId = "93A312F7-B931-4485-B08E-C367313EB5E7";
name = Regular;
paths = (
{
closed = 1;
nodes = (
"556 -4 OFFCURVE",
"841 1 OFFCURVE",
"1059 83 CURVE",
"1065 85 OFFCURVE",
"1070 83 OFFCURVE",
"1074 79 CURVE SMOOTH",
"1139 14 OFFCURVE",
"1287 0 OFFCURVE",
"1436 0 CURVE SMOOTH",
"1476 0 LINE",
"1518 52 OFFCURVE",
"1518 104 OFFCURVE",
"1476 156 CURVE",
"1436 156 LINE SMOOTH",
"1387 156 OFFCURVE",
"1293 161 OFFCURVE",
"1223 171 CURVE",
"1239 183 OFFCURVE",
"1254 195 OFFCURVE",
"1268 209 CURVE SMOOTH",
"1452 390 OFFCURVE",
"1235 733 OFFCURVE",
"973 734 CURVE SMOOTH",
"810 735 OFFCURVE",
"629 607 OFFCURVE",
"461 421 CURVE",
"487 505 OFFCURVE",
"491 600 OFFCURVE",
"487 734 CURVE SMOOTH",
"470 1317 LINE",
"470 1333 OFFCURVE",
"454 1342 OFFCURVE",
"440 1332 CURVE SMOOTH",
"333 1252 LINE SMOOTH",
"329 1249 OFFCURVE",
"327 1245 OFFCURVE",
"327 1241 CURVE",
"360 399 OFFCURVE",
"408 368 OFFCURVE",
"210 160 CURVE SMOOTH",
"207 157 OFFCURVE",
"204 156 OFFCURVE",
"201 156 CURVE SMOOTH",
"0 156 LINE SMOOTH",
"-103 156 OFFCURVE",
"-103 0 OFFCURVE",
"0 0 CURVE SMOOTH",
"320 -1 LINE SMOOTH"
);
},
{
closed = 1;
nodes = (
"645 482 OFFCURVE",
"748 563 OFFCURVE",
"898 563 CURVE SMOOTH",
"1099 563 OFFCURVE",
"1204 394 OFFCURVE",
"1229 321 CURVE SMOOTH",
"1231 315 OFFCURVE",
"1228 308 OFFCURVE",
"1221 305 CURVE",
"940 166 OFFCURVE",
"639 165 OFFCURVE",
"333 159 CURVE"
);
}
);
width = 1476;
}
);
unicode = FEC4;
},
{
glyphname = "tah-ar.init";
lastChange = "2016-02-01 08:54:15 +0000";
layers = (
{
anchors = (
{
name = bottom;
position = "{600, -150}";
},
{
name = top;
position = "{954, 884}";
}
);
layerId = "93A312F7-B931-4485-B08E-C367313EB5E7";
name = Regular;
paths = (
{
closed = 1;
nodes = (
"320 0 LINE SMOOTH",
"643 0 OFFCURVE",
"1058 5 OFFCURVE",
"1268 209 CURVE SMOOTH",
"1452 390 OFFCURVE",
"1235 733 OFFCURVE",
"973 734 CURVE SMOOTH",
"810 735 OFFCURVE",
"629 607 OFFCURVE",
"461 421 CURVE",
"487 505 OFFCURVE",
"491 600 OFFCURVE",
"487 734 CURVE SMOOTH",
"470 1317 LINE",
"470 1333 OFFCURVE",
"454 1342 OFFCURVE",
"440 1332 CURVE SMOOTH",
"336 1257 LINE SMOOTH",
"332 1254 OFFCURVE",
"330 1250 OFFCURVE",
"330 1246 CURVE SMOOTH",
"358 393 OFFCURVE",
"395 356 OFFCURVE",
"210 160 CURVE SMOOTH",
"207 157 OFFCURVE",
"204 156 OFFCURVE",
"201 156 CURVE SMOOTH",
"0 156 LINE SMOOTH",
"-103 156 OFFCURVE",
"-103 0 OFFCURVE",
"0 0 CURVE SMOOTH"
);
},
{
closed = 1;
nodes = (
"645 482 OFFCURVE",
"748 563 OFFCURVE",
"898 563 CURVE SMOOTH",
"1099 563 OFFCURVE",
"1204 394 OFFCURVE",
"1229 321 CURVE SMOOTH",
"1231 315 OFFCURVE",
"1228 308 OFFCURVE",
"1221 305 CURVE",
"940 166 OFFCURVE",
"639 165 OFFCURVE",
"333 159 CURVE"
);
}
);
width = 1456;
}
);
unicode = FEC3;
},
{
glyphname = "ain-ar";
lastChange = "2016-02-01 08:54:15 +0000";
layers = (
{
anchors = (
{
name = bottom;
position = "{742, -863}";
},
{
name = top;
position = "{515, 1180}";
}
);
layerId = "93A312F7-B931-4485-B08E-C367313EB5E7";
name = Regular;
paths = (
{
closed = 1;
nodes = (
"887 -711 OFFCURVE",
"1060 -687 OFFCURVE",
"1192 -657 CURVE",
"1206 -653 OFFCURVE",
"1210 -643 OFFCURVE",
"1216 -621 CURVE SMOOTH",
"1244 -512 LINE SMOOTH",
"1247 -501 OFFCURVE",
"1242 -495 OFFCURVE",
"1230 -497 CURVE SMOOTH",
"1090 -517 OFFCURVE",
"901 -538 OFFCURVE",
"731 -523 CURVE SMOOTH",
"531 -505 OFFCURVE",
"356 -438 OFFCURVE",
"312 -261 CURVE",
"254 98 OFFCURVE",
"640 346 OFFCURVE",
"976 425 CURVE",
"984 428 OFFCURVE",
"987 434 OFFCURVE",
"988 442 CURVE",
"1000 578 LINE SMOOTH",
"1001 590 OFFCURVE",
"993 594 OFFCURVE",
"983 591 CURVE SMOOTH",
"819 541 OFFCURVE",
"703 488 OFFCURVE",
"556 418 CURVE SMOOTH",
"525 403 OFFCURVE",
"498 400 OFFCURVE",
"472 425 CURVE",
"363 514 OFFCURVE",
"278 624 OFFCURVE",
"263 746 CURVE",
"263 754 OFFCURVE",
"264 758 OFFCURVE",
"270 765 CURVE",
"389 879 OFFCURVE",
"545 905 OFFCURVE",
"761 835 CURVE SMOOTH",
"771 832 OFFCURVE",
"781 838 OFFCURVE",
"778 848 CURVE",
"750 958 LINE SMOOTH",
"748 967 OFFCURVE",
"748 971 OFFCURVE",
"739 975 CURVE",
"471 1107 OFFCURVE",
"139 974 OFFCURVE",
"150 692 CURVE",
"161 546 OFFCURVE",
"246 424 OFFCURVE",
"391 294 CURVE",
"284 170 OFFCURVE",
"227 13 OFFCURVE",
"211 -155 CURVE SMOOTH",
"170 -588 OFFCURVE",
"457 -718 OFFCURVE",
"772 -713 CURVE SMOOTH"
);
}
);
width = 1121;
}
);
unicode = 0639;
},
{
glyphname = "ain-ar.fina";
lastChange = "2016-02-01 08:54:15 +0000";
layers = (
{
anchors = (
{
name = bottom;
position = "{694, -785}";
},
{
name = top;
position = "{625, 1121}";
}
);
layerId = "93A312F7-B931-4485-B08E-C367313EB5E7";
name = Regular;
paths = (
{
closed = 1;
nodes = (
"829 -631 OFFCURVE",
"1002 -607 OFFCURVE",
"1134 -577 CURVE",
"1148 -573 OFFCURVE",
"1152 -563 OFFCURVE",
"1158 -541 CURVE SMOOTH",
"1186 -432 LINE SMOOTH",
"1189 -421 OFFCURVE",
"1184 -415 OFFCURVE",
"1172 -417 CURVE SMOOTH",
"801 -467 OFFCURVE",
"336 -509 OFFCURVE",
"254 -181 CURVE",
"247 -143 OFFCURVE",
"246 -127 OFFCURVE",
"250 -96 CURVE SMOOTH",
"271 53 OFFCURVE",
"398 196 OFFCURVE",
"544 287 CURVE",
"552 293 OFFCURVE",
"558 291 OFFCURVE",
"565 283 CURVE SMOOTH",
"803 9 OFFCURVE",
"960 0 OFFCURVE",
"1109 0 CURVE SMOOTH",
"1132 0 LINE",
"1174 52 OFFCURVE",
"1174 104 OFFCURVE",
"1132 156 CURVE",
"1104 156 LINE SMOOTH",
"887 156 OFFCURVE",
"781 253 OFFCURVE",
"674 365 CURVE SMOOTH",
"666 373 OFFCURVE",
"668 380 OFFCURVE",
"676 386 CURVE",
"808 474 OFFCURVE",
"1015 567 OFFCURVE",
"1024 706 CURVE SMOOTH",
"1037 881 OFFCURVE",
"811 968 OFFCURVE",
"623 967 CURVE SMOOTH",
"494 966 OFFCURVE",
"330 914 OFFCURVE",
"237 873 CURVE SMOOTH",
"230 870 OFFCURVE",
"227 865 OFFCURVE",
"224 858 CURVE SMOOTH",
"152 679 LINE",
"148 670 OFFCURVE",
"152 665 OFFCURVE",
"160 660 CURVE",
"272 582 OFFCURVE",
"365 508 OFFCURVE",
"458 422 CURVE",
"466 414 OFFCURVE",
"465 407 OFFCURVE",
"457 401 CURVE SMOOTH",
"340 311 OFFCURVE",
"160 123 OFFCURVE",
"153 -135 CURVE SMOOTH",
"142 -528 OFFCURVE",
"399 -638 OFFCURVE",
"714 -633 CURVE SMOOTH"
);
},
{
closed = 1;
nodes = (
"583 491 OFFCURVE",
"576 492 OFFCURVE",
"570 499 CURVE",
"429 642 OFFCURVE",
"306 737 OFFCURVE",
"294 745 CURVE",
"294 745 OFFCURVE",
"302 749 OFFCURVE",
"314 753 CURVE",
"491 821 OFFCURVE",
"779 863 OFFCURVE",
"920 700 CURVE",
"926 692 OFFCURVE",
"925 684 OFFCURVE",
"916 679 CURVE SMOOTH",
"591 495 LINE"
);
}
);
width = 1132;
}
);
unicode = FECA;
},
{
glyphname = "ain-ar.medi";
lastChange = "2016-02-01 08:54:15 +0000";
layers = (
{
anchors = (
{
name = bottom;
position = "{530, -150}";
},
{
name = top;
position = "{572, 897}";
}
);
layerId = "93A312F7-B931-4485-B08E-C367313EB5E7";
name = Regular;
paths = (
{
closed = 1;
nodes = (
"40 0 LINE SMOOTH",
"190 0 OFFCURVE",
"386 16 OFFCURVE",
"524 104 CURVE SMOOTH",
"532 109 OFFCURVE",
"538 108 OFFCURVE",
"545 103 CURVE",
"671 21 OFFCURVE",
"853 0 OFFCURVE",
"1020 0 CURVE SMOOTH",
"1060 0 LINE",
"1102 52 OFFCURVE",
"1102 104 OFFCURVE",
"1060 156 CURVE",
"1020 156 LINE SMOOTH",
"919 156 OFFCURVE",
"754 165 OFFCURVE",
"690 182 CURVE SMOOTH",
"676 186 OFFCURVE",
"674 194 OFFCURVE",
"684 201 CURVE SMOOTH",
"791 276 OFFCURVE",
"951 388 OFFCURVE",
"950 484 CURVE SMOOTH",
"949 662 OFFCURVE",
"731 746 OFFCURVE",
"572 745 CURVE SMOOTH",
"443 744 OFFCURVE",
"279 688 OFFCURVE",
"186 647 CURVE SMOOTH",
"179 644 OFFCURVE",
"175 639 OFFCURVE",
"173 632 CURVE",
"111 447 LINE SMOOTH",
"108 438 OFFCURVE",
"111 431 OFFCURVE",
"119 427 CURVE SMOOTH",
"217 375 OFFCURVE",
"326 302 OFFCURVE",
"428 213 CURVE SMOOTH",
"437 205 OFFCURVE",
"435 196 OFFCURVE",
"424 193 CURVE SMOOTH",
"317 167 OFFCURVE",
"172 156 OFFCURVE",
"40 156 CURVE SMOOTH",
"0 156 LINE SMOOTH",
"-103 156 OFFCURVE",
"-103 0 OFFCURVE",
"0 0 CURVE SMOOTH"
);
},
{
closed = 1;
nodes = (
"550 252 OFFCURVE",
"544 254 OFFCURVE",
"537 262 CURVE",
"412 395 OFFCURVE",
"248 498 OFFCURVE",
"233 508 CURVE",
"233 509 OFFCURVE",
"241 513 OFFCURVE",
"252 517 CURVE SMOOTH",
"335 550 OFFCURVE",
"458 591 OFFCURVE",
"556 590 CURVE SMOOTH",
"640 589 OFFCURVE",
"781 555 OFFCURVE",
"844 483 CURVE",
"850 475 OFFCURVE",
"848 468 OFFCURVE",
"840 462 CURVE SMOOTH",
"558 258 LINE SMOOTH"
);
}
);
width = 1060;
}
);
unicode = FECC;
},
{
glyphname = "ain-ar.init";
lastChange = "2016-02-01 08:54:15 +0000";
layers = (
{
anchors = (
{
name = bottom;
position = "{524, -140}";
},
{
name = top;
position = "{514, 1006}";
}
);
layerId = "93A312F7-B931-4485-B08E-C367313EB5E7";
name = Regular;
paths = (
{
closed = 1;
nodes = (
"40 0 LINE SMOOTH",
"395 0 OFFCURVE",
"602 56 OFFCURVE",
"958 183 CURVE SMOOTH",
"966 186 OFFCURVE",
"970 191 OFFCURVE",
"972 199 CURVE SMOOTH",
"1001 333 LINE SMOOTH",
"1003 344 OFFCURVE",
"986 352 OFFCURVE",
"975 347 CURVE SMOOTH",
"823 282 OFFCURVE",
"672 232 OFFCURVE",
"516 200 CURVE SMOOTH",
"499 196 OFFCURVE",
"486 199 OFFCURVE",
"476 212 CURVE SMOOTH",
"368 350 OFFCURVE",
"313 466 OFFCURVE",
"283 594 CURVE SMOOTH",
"281 603 OFFCURVE",
"281 610 OFFCURVE",
"289 615 CURVE SMOOTH",
"435 713 OFFCURVE",
"607 712 OFFCURVE",
"789 637 CURVE SMOOTH",
"799 633 OFFCURVE",
"808 638 OFFCURVE",
"807 648 CURVE",
"791 758 LINE SMOOTH",
"790 767 OFFCURVE",
"790 772 OFFCURVE",
"782 776 CURVE",
"528 925 OFFCURVE",
"185 838 OFFCURVE",
"166 556 CURVE",
"164 452 OFFCURVE",
"215 327 OFFCURVE",
"325 169 CURVE",
"224 155 OFFCURVE",
"116 156 OFFCURVE",
"40 156 CURVE SMOOTH",
"0 156 LINE SMOOTH",
"-103 156 OFFCURVE",
"-103 0 OFFCURVE",
"0 0 CURVE SMOOTH"
);
}
);
width = 1121;
}
);
unicode = FECB;
},
{
glyphname = "dotlessfeh-ar";
lastChange = "2016-02-01 08:54:15 +0000";
layers = (
{
anchors = (
{
name = bottom;
position = "{737, -188}";
},
{
name = top;
position = "{1174, 1124}";
}
);
layerId = "93A312F7-B931-4485-B08E-C367313EB5E7";
name = Regular;
paths = (
{
closed = 1;
nodes = (
"784 -41 OFFCURVE",
"1023 1 OFFCURVE",
"1201 47 CURVE SMOOTH",
"1468 117 OFFCURVE",
"1485 294 OFFCURVE",
"1485 440 CURVE",
"1470 696 OFFCURVE",
"1343 970 OFFCURVE",
"1178 970 CURVE SMOOTH",
"977 970 OFFCURVE",
"879 723 OFFCURVE",
"879 517 CURVE SMOOTH",
"879 251 OFFCURVE",
"1202 280 OFFCURVE",
"1359 356 CURVE SMOOTH",
"1373 363 OFFCURVE",
"1386 355 OFFCURVE",
"1387 339 CURVE SMOOTH",
"1390 257 LINE",
"1282 205 OFFCURVE",
"940 120 OFFCURVE",
"652 125 CURVE SMOOTH",
"417 129 OFFCURVE",
"224 194 OFFCURVE",
"243 395 CURVE SMOOTH",
"255 518 LINE SMOOTH",
"256 527 OFFCURVE",
"250 533 OFFCURVE",
"241 534 CURVE SMOOTH",
"186 539 LINE SMOOTH",
"177 540 OFFCURVE",
"170 534 OFFCURVE",
"169 525 CURVE SMOOTH",
"155 395 LINE SMOOTH",
"121 92 OFFCURVE",
"262 -27 OFFCURVE",
"579 -36 CURVE SMOOTH"
);
},
{
closed = 1;
nodes = (
"982 486 OFFCURVE",
"967 499 OFFCURVE",
"967 504 CURVE SMOOTH",
"969 672 OFFCURVE",
"1032 804 OFFCURVE",
"1143 804 CURVE SMOOTH",
"1242 804 OFFCURVE",
"1342 646 OFFCURVE",
"1372 485 CURVE",
"1374 478 OFFCURVE",
"1158 424 OFFCURVE",
"1011 476 CURVE SMOOTH"
);
}
);
width = 1605;
}
);
unicode = 06A1;
},
{
glyphname = "dotlessfeh-ar.fina";
lastChange = "2016-02-01 08:54:15 +0000";
layers = (
{
anchors = (
{
name = bottom;
position = "{737, -200}";
},
{
name = top;
position = "{1420, 1021}";
}
);
layerId = "93A312F7-B931-4485-B08E-C367313EB5E7";
name = Regular;
paths = (
{
closed = 1;
nodes = (
"826 -50 OFFCURVE",
"1122 2 OFFCURVE",
"1318 75 CURVE SMOOTH",
"1324 77 OFFCURVE",
"1329 77 OFFCURVE",
"1336 74 CURVE",
"1450 31 OFFCURVE",
"1603 0 OFFCURVE",
"1766 0 CURVE SMOOTH",
"1806 0 LINE",
"1848 52 OFFCURVE",
"1848 104 OFFCURVE",
"1806 156 CURVE",
"1766 156 LINE SMOOTH",
"1663 156 OFFCURVE",
"1540 165 OFFCURVE",
"1540 165 CURVE SMOOTH",
"1540 165 OFFCURVE",
"1666 365 OFFCURVE",
"1666 458 CURVE SMOOTH",
"1667 705 OFFCURVE",
"1517 869 OFFCURVE",
"1420 871 CURVE SMOOTH",
"1251 875 OFFCURVE",
"1089 608 OFFCURVE",
"1091 371 CURVE SMOOTH",
"1092 299 OFFCURVE",
"1104 239 OFFCURVE",
"1136 171 CURVE",
"996 143 OFFCURVE",
"803 114 OFFCURVE",
"652 117 CURVE SMOOTH",
"417 121 OFFCURVE",
"224 186 OFFCURVE",
"243 387 CURVE SMOOTH",
"255 550 LINE",
"256 559 OFFCURVE",
"250 565 OFFCURVE",
"241 566 CURVE SMOOTH",
"186 571 LINE SMOOTH",
"177 572 OFFCURVE",
"171 566 OFFCURVE",
"170 557 CURVE SMOOTH",
"155 387 LINE SMOOTH",
"121 84 OFFCURVE",
"262 -36 OFFCURVE",
"579 -44 CURVE SMOOTH"
);
},
{
closed = 1;
nodes = (
"1258 246 OFFCURVE",
"1167 321 OFFCURVE",
"1177 441 CURVE SMOOTH",
"1185 535 OFFCURVE",
"1290 687 OFFCURVE",
"1385 687 CURVE SMOOTH",
"1506 687 OFFCURVE",
"1565 455 OFFCURVE",
"1577 403 CURVE",
"1578 395 OFFCURVE",
"1577 389 OFFCURVE",
"1573 383 CURVE SMOOTH",
"1529 316 OFFCURVE",
"1476 256 OFFCURVE",
"1411 206 CURVE",
"1405 201 OFFCURVE",
"1399 200 OFFCURVE",
"1391 203 CURVE"
);
}
);
width = 1806;
}
);
},
{
glyphname = "dotlessfeh-ar.medi";
lastChange = "2016-02-01 08:54:15 +0000";
layers = (
{
anchors = (
{
name = bottom;
position = "{427, -151}";
},
{
name = top;
position = "{521, 1021}";
}
);
layerId = "93A312F7-B931-4485-B08E-C367313EB5E7";
name = Regular;
paths = (
{
closed = 1;
nodes = (
"40 0 LINE SMOOTH",
"215 0 OFFCURVE",
"334 31 OFFCURVE",
"427 78 CURVE",
"542 33 OFFCURVE",
"699 0 OFFCURVE",
"867 0 CURVE SMOOTH",
"907 0 LINE",
"949 52 OFFCURVE",
"949 104 OFFCURVE",
"907 156 CURVE",
"867 156 LINE SMOOTH",
"764 156 OFFCURVE",
"641 165 OFFCURVE",
"641 165 CURVE",
"686 226 OFFCURVE",
"762 338 OFFCURVE",
"763 454 CURVE SMOOTH",
"765 654 OFFCURVE",
"662 868 OFFCURVE",
"521 871 CURVE SMOOTH",
"352 875 OFFCURVE",
"189 608 OFFCURVE",
"192 371 CURVE SMOOTH",
"193 279 OFFCURVE",
"220 216 OFFCURVE",
"252 168 CURVE",
"210 163 OFFCURVE",
"117 156 OFFCURVE",
"40 156 CURVE SMOOTH",
"0 156 LINE SMOOTH",
"-103 156 OFFCURVE",
"-103 0 OFFCURVE",
"0 0 CURVE SMOOTH"
);
},
{
closed = 1;
nodes = (
"360 245 OFFCURVE",
"268 320 OFFCURVE",
"278 441 CURVE SMOOTH",
"286 535 OFFCURVE",
"391 687 OFFCURVE",
"486 687 CURVE SMOOTH",
"610 687 OFFCURVE",
"676 444 OFFCURVE",
"687 399 CURVE SMOOTH",
"688 395 OFFCURVE",
"687 391 OFFCURVE",
"684 387 CURVE SMOOTH",
"629 314 OFFCURVE",
"570 254 OFFCURVE",
"509 205 CURVE",
"506 201 OFFCURVE",
"500 200 OFFCURVE",
"495 202 CURVE"
);
}
);
width = 907;
}
);
},
{
glyphname = "dotlessfeh-ar.init";
lastChange = "2016-02-01 08:54:15 +0000";
layers = (
{
anchors = (
{
name = bottom;
position = "{347, -150}";
},
{
name = top;
position = "{435, 1132}";
}
);
layerId = "93A312F7-B931-4485-B08E-C367313EB5E7";
name = Regular;
paths = (
{
closed = 1;
nodes = (
"40 0 LINE SMOOTH",
"193 0 OFFCURVE",
"313 -3 OFFCURVE",
"459 30 CURVE SMOOTH",
"734 93 OFFCURVE",
"754 253 OFFCURVE",
"742 452 CURVE SMOOTH",
"727 708 OFFCURVE",
"600 982 OFFCURVE",
"435 982 CURVE SMOOTH",
"234 982 OFFCURVE",
"136 735 OFFCURVE",
"136 529 CURVE SMOOTH",
"136 263 OFFCURVE",
"463 292 OFFCURVE",
"620 368 CURVE SMOOTH",
"634 375 OFFCURVE",
"648 367 OFFCURVE",
"648 351 CURVE SMOOTH",
"647 247 LINE SMOOTH",
"647 242 OFFCURVE",
"644 237 OFFCURVE",
"639 234 CURVE",
"434 150 OFFCURVE",
"91 156 OFFCURVE",
"40 156 CURVE SMOOTH",
"0 156 LINE SMOOTH",
"-103 156 OFFCURVE",
"-103 0 OFFCURVE",
"0 0 CURVE SMOOTH"
);
},
{
closed = 1;
nodes = (
"239 498 OFFCURVE",
"224 511 OFFCURVE",
"224 516 CURVE SMOOTH",
"226 684 OFFCURVE",
"289 816 OFFCURVE",
"400 816 CURVE SMOOTH",
"499 816 OFFCURVE",
"599 658 OFFCURVE",
"629 497 CURVE",
"631 490 OFFCURVE",
"415 436 OFFCURVE",
"268 488 CURVE SMOOTH"
);
}
);
width = 865;
}
);
},
{
glyphname = "dotlessqaf-ar";
lastChange = "2016-02-01 08:54:15 +0000";
layers = (
{
anchors = (
{
name = bottom;
position = "{666, -610}";
},
{
name = top;
position = "{965, 847}";
}
);
layerId = "93A312F7-B931-4485-B08E-C367313EB5E7";
name = Regular;
paths = (
{
closed = 1;
nodes = (
"708 -460 OFFCURVE",
"1126 -405 OFFCURVE",
"1243 -234 CURVE SMOOTH",
"1290 -166 OFFCURVE",
"1294 -72 OFFCURVE",
"1298 50 CURVE SMOOTH",
"1307 336 OFFCURVE",
"1165 697 OFFCURVE",
"964 697 CURVE SMOOTH",
"763 697 OFFCURVE",
"645 410 OFFCURVE",
"645 204 CURVE SMOOTH",
"645 -109 OFFCURVE",
"986 -72 OFFCURVE",
"1168 21 CURVE",
"1178 27 OFFCURVE",
"1186 22 OFFCURVE",
"1185 10 CURVE",
"1177 -165 LINE",
"1177 -173 OFFCURVE",
"1172 -178 OFFCURVE",
"1164 -181 CURVE SMOOTH",
"1107 -202 OFFCURVE",
"857 -285 OFFCURVE",
"557 -285 CURVE SMOOTH",
"379 -285 OFFCURVE",
"246 -203 OFFCURVE",
"256 -7 CURVE SMOOTH",
"257 12 OFFCURVE",
"260 32 OFFCURVE",
"298 239 CURVE SMOOTH",
"300 249 OFFCURVE",
"295 256 OFFCURVE",
"286 258 CURVE SMOOTH",
"218 272 LINE SMOOTH",
"209 274 OFFCURVE",
"202 269 OFFCURVE",
"200 260 CURVE",
"163 35 LINE",
"112 -219 OFFCURVE",
"213 -460 OFFCURVE",
"533 -460 CURVE SMOOTH"
);
},
{
closed = 1;
nodes = (
"1022 114 OFFCURVE",
"880 101 OFFCURVE",
"763 154 CURVE",
"756 158 OFFCURVE",
"753 163 OFFCURVE",
"752 171 CURVE",
"743 322 OFFCURVE",
"799 531 OFFCURVE",
"929 531 CURVE SMOOTH",
"1043 531 OFFCURVE",
"1162 344 OFFCURVE",
"1177 164 CURVE SMOOTH",
"1178 155 OFFCURVE",
"1173 149 OFFCURVE",
"1164 147 CURVE SMOOTH"
);
}
);
width = 1418;
}
);
unicode = 066F;
},
{
glyphname = "dotlessqaf-ar.fina";
lastChange = "2016-02-01 08:54:15 +0000";
layers = (
{
anchors = (
{
name = bottom;
position = "{666, -610}";
},
{
name = top;
position = "{965, 847}";
}
);
layerId = "93A312F7-B931-4485-B08E-C367313EB5E7";
name = Regular;
paths = (
{
closed = 1;
nodes = (
"708 -461 OFFCURVE",
"1126 -406 OFFCURVE",
"1243 -235 CURVE SMOOTH",
"1284 -176 OFFCURVE",
"1293 -98 OFFCURVE",
"1297 0 CURVE",
"1445 0 LINE",
"1487 52 OFFCURVE",
"1487 104 OFFCURVE",
"1445 156 CURVE",
"1295 156 LINE",
"1272 417 OFFCURVE",
"1141 696 OFFCURVE",
"964 696 CURVE SMOOTH",
"763 696 OFFCURVE",
"625 429 OFFCURVE",
"625 223 CURVE SMOOTH",
"625 -60 OFFCURVE",
"959 -36 OFFCURVE",
"1166 3 CURVE SMOOTH",
"1177 5 OFFCURVE",
"1182 -1 OFFCURVE",
"1182 -11 CURVE",
"1176 -165 LINE",
"1176 -173 OFFCURVE",
"1172 -179 OFFCURVE",
"1164 -182 CURVE SMOOTH",
"1107 -203 OFFCURVE",
"857 -286 OFFCURVE",
"557 -286 CURVE SMOOTH",
"379 -286 OFFCURVE",
"246 -204 OFFCURVE",
"256 -8 CURVE SMOOTH",
"257 11 OFFCURVE",
"261 31 OFFCURVE",
"299 238 CURVE SMOOTH",
"301 248 OFFCURVE",
"296 255 OFFCURVE",
"287 257 CURVE SMOOTH",
"219 271 LINE SMOOTH",
"210 273 OFFCURVE",
"203 268 OFFCURVE",
"201 259 CURVE",
"163 34 LINE SMOOTH",
"112 -220 OFFCURVE",
"213 -461 OFFCURVE",
"533 -461 CURVE SMOOTH"
);
},
{
closed = 1;
nodes = (
"991 129 OFFCURVE",
"821 138 OFFCURVE",
"724 185 CURVE SMOOTH",
"720 187 OFFCURVE",
"718 192 OFFCURVE",
"717 200 CURVE",
"710 349 OFFCURVE",
"799 530 OFFCURVE",
"929 530 CURVE SMOOTH",
"1046 530 OFFCURVE",
"1168 334 OFFCURVE",
"1178 149 CURVE"
);
}
);
width = 1445;
}
);
},
{
glyphname = "dotlesskaf-ar";
lastChange = "2016-02-01 08:54:15 +0000";
layers = (
{
anchors = (
{
name = bottom;
position = "{674, -187}";
},
{
name = top;
position = "{628, 807}";
}
);
layerId = "93A312F7-B931-4485-B08E-C367313EB5E7";
name = Regular;
paths = (
{
closed = 1;
nodes = (
"467 -28 OFFCURVE",
"648 -20 OFFCURVE",
"792 -4 CURVE SMOOTH",
"1109 31 OFFCURVE",
"1189 175 OFFCURVE",
"1184 520 CURVE SMOOTH",
"1172 1322 LINE",
"1172 1334 OFFCURVE",
"1165 1339 OFFCURVE",
"1154 1332 CURVE",
"1050 1260 LINE SMOOTH",
"1043 1255 OFFCURVE",
"1041 1251 OFFCURVE",
"1041 1242 CURVE",
"1069 594 OFFCURVE",
"1077 332 OFFCURVE",
"1061 227 CURVE",
"1059 217 OFFCURVE",
"1057 213 OFFCURVE",
"1048 210 CURVE SMOOTH",
"883 151 OFFCURVE",
"440 124 OFFCURVE",
"168 193 CURVE",
"158 196 OFFCURVE",
"152 192 OFFCURVE",
"151 181 CURVE SMOOTH",
"142 24 OFFCURVE",
"172 6 OFFCURVE",
"322 -11 CURVE SMOOTH"
);
}
);
width = 1304;
}
);
},
{
glyphname = "dotlesskaf-ar.fina";
lastChange = "2016-02-01 08:54:15 +0000";
layers = (
{
anchors = (
{
name = bottom;
position = "{674, -187}";
},
{
name = top;
position = "{627, 807}";
}
);
layerId = "93A312F7-B931-4485-B08E-C367313EB5E7";
name = Regular;
paths = (
{
closed = 1;
nodes = (
"467 -28 OFFCURVE",
"628 -20 OFFCURVE",
"772 -4 CURVE SMOOTH",
"955 16 OFFCURVE",
"1072 68 OFFCURVE",
"1112 179 CURVE",
"1150 68 OFFCURVE",
"1223 0 OFFCURVE",
"1360 0 CURVE SMOOTH",
"1460 0 LINE",
"1502 52 OFFCURVE",
"1502 104 OFFCURVE",
"1460 156 CURVE",
"1402 156 LINE SMOOTH",
"1315 156 OFFCURVE",
"1188 181 OFFCURVE",
"1188 268 CURVE",
"1172 1322 LINE",
"1172 1334 OFFCURVE",
"1165 1339 OFFCURVE",
"1154 1332 CURVE",
"1050 1260 LINE SMOOTH",
"1043 1255 OFFCURVE",
"1041 1251 OFFCURVE",
"1041 1242 CURVE",
"1069 594 OFFCURVE",
"1077 332 OFFCURVE",
"1061 227 CURVE",
"1059 217 OFFCURVE",
"1057 213 OFFCURVE",
"1048 210 CURVE SMOOTH",
"883 151 OFFCURVE",
"440 124 OFFCURVE",
"168 193 CURVE",
"158 196 OFFCURVE",
"152 192 OFFCURVE",
"151 181 CURVE SMOOTH",
"142 24 OFFCURVE",
"172 6 OFFCURVE",
"322 -11 CURVE SMOOTH"
);
}
);
width = 1460;
}
);
userData = {
com.typemytype.robofont.guides = (
{
angle = 0;
isGlobal = 0;
x = "-180";
y = 1345;
}
);
};
},
{
glyphname = "kaf-ar.medi";
lastChange = "2016-02-01 08:54:15 +0000";
layers = (
{
anchors = (
{
name = bottom;
position = "{338, -149}";
},
{
name = top;
position = "{439, 1315}";
}
);
layerId = "93A312F7-B931-4485-B08E-C367313EB5E7";
name = Regular;
paths = (
{
closed = 1;
nodes = (
"40 0 LINE SMOOTH",
"219 0 OFFCURVE",
"418 38 OFFCURVE",
"538 88 CURVE",
"554 94 OFFCURVE",
"568 102 OFFCURVE",
"605 168 CURVE SMOOTH",
"611 179 OFFCURVE",
"620 180 OFFCURVE",
"626 170 CURVE",
"719 33 OFFCURVE",
"805 0 OFFCURVE",
"871 0 CURVE SMOOTH",
"911 0 LINE",
"953 52 OFFCURVE",
"953 104 OFFCURVE",
"911 156 CURVE",
"871 156 LINE SMOOTH",
"759 156 OFFCURVE",
"708 195 OFFCURVE",
"653 302 CURVE SMOOTH",
"541 520 OFFCURVE",
"464 738 OFFCURVE",
"175 919 CURVE SMOOTH",
"164 926 OFFCURVE",
"165 935 OFFCURVE",
"177 939 CURVE SMOOTH",
"819 1139 LINE",
"827 1141 OFFCURVE",
"832 1146 OFFCURVE",
"833 1155 CURVE SMOOTH",
"849 1282 LINE SMOOTH",
"850 1293 OFFCURVE",
"844 1299 OFFCURVE",
"833 1295 CURVE SMOOTH",
"167 1075 LINE",
"159 1072 OFFCURVE",
"155 1069 OFFCURVE",
"152 1062 CURVE",
"47 843 LINE SMOOTH",
"43 835 OFFCURVE",
"46 828 OFFCURVE",
"54 823 CURVE",
"380 645 OFFCURVE",
"502 366 OFFCURVE",
"550 245 CURVE SMOOTH",
"553 237 OFFCURVE",
"550 230 OFFCURVE",
"542 226 CURVE",
"413 173 OFFCURVE",
"223 160 OFFCURVE",
"40 156 CURVE SMOOTH",
"0 156 LINE SMOOTH",
"-103 156 OFFCURVE",
"-103 0 OFFCURVE",
"0 0 CURVE SMOOTH"
);
}
);
width = 911;
}
);
unicode = FEDC;
},
{
glyphname = "kaf-ar.init";
lastChange = "2016-02-01 08:54:15 +0000";
layers = (
{
anchors = (
{
name = bottom;
position = "{337, -149}";
},
{
name = top;
position = "{395, 1273}";
}
);
layerId = "93A312F7-B931-4485-B08E-C367313EB5E7";
name = Regular;
paths = (
{
closed = 1;
nodes = (
"40 0 LINE SMOOTH",
"160 0 OFFCURVE",
"295 15 OFFCURVE",
"408 50 CURVE SMOOTH",
"550 96 OFFCURVE",
"631 171 OFFCURVE",
"613 328 CURVE SMOOTH",
"579 624 OFFCURVE",
"321 833 OFFCURVE",
"148 921 CURVE SMOOTH",
"136 927 OFFCURVE",
"137 936 OFFCURVE",
"150 940 CURVE SMOOTH",
"719 1119 LINE",
"727 1121 OFFCURVE",
"732 1126 OFFCURVE",
"733 1135 CURVE SMOOTH",
"749 1261 LINE",
"750 1272 OFFCURVE",
"744 1279 OFFCURVE",
"733 1275 CURVE SMOOTH",
"137 1075 LINE",
"129 1072 OFFCURVE",
"125 1069 OFFCURVE",
"122 1062 CURVE",
"18 844 LINE SMOOTH",
"14 836 OFFCURVE",
"17 829 OFFCURVE",
"25 824 CURVE",
"354 646 OFFCURVE",
"498 394 OFFCURVE",
"538 259 CURVE SMOOTH",
"541 250 OFFCURVE",
"538 244 OFFCURVE",
"530 240 CURVE SMOOTH",
"381 166 OFFCURVE",
"215 156 OFFCURVE",
"40 156 CURVE SMOOTH",
"0 156 LINE SMOOTH",
"-103 156 OFFCURVE",
"-103 0 OFFCURVE",
"0 0 CURVE SMOOTH"
);
}
);
width = 736;
}
);
unicode = FEDB;
},
{
glyphname = "keheh-ar";
lastChange = "2016-02-01 08:54:15 +0000";
layers = (
{
anchors = (
{
name = bottom;
position = "{683, -176}";
},
{
name = top;
position = "{524, 940}";
}
);
layerId = "93A312F7-B931-4485-B08E-C367313EB5E7";
name = Regular;
paths = (
{
closed = 1;
nodes = (
"891 -34 OFFCURVE",
"1173 40 OFFCURVE",
"1299 96 CURVE",
"1302 97 OFFCURVE",
"1304 101 OFFCURVE",
"1307 108 CURVE SMOOTH",
"1338 176 OFFCURVE",
"1367 274 OFFCURVE",
"1360 324 CURVE SMOOTH",
"1326 563 OFFCURVE",
"1081 828 OFFCURVE",
"908 920 CURVE",
"896 927 OFFCURVE",
"898 936 OFFCURVE",
"910 940 CURVE SMOOTH",
"1480 1119 LINE",
"1488 1121 OFFCURVE",
"1493 1126 OFFCURVE",
"1494 1135 CURVE SMOOTH",
"1510 1261 LINE",
"1511 1272 OFFCURVE",
"1505 1279 OFFCURVE",
"1494 1275 CURVE SMOOTH",
"898 1075 LINE",
"890 1072 OFFCURVE",
"886 1069 OFFCURVE",
"883 1062 CURVE",
"778 843 LINE SMOOTH",
"774 835 OFFCURVE",
"777 828 OFFCURVE",
"785 823 CURVE",
"1114 645 OFFCURVE",
"1245 391 OFFCURVE",
"1285 255 CURVE",
"1288 246 OFFCURVE",
"1285 240 OFFCURVE",
"1276 237 CURVE",
"1170 194 OFFCURVE",
"928 130 OFFCURVE",
"652 135 CURVE SMOOTH",
"417 139 OFFCURVE",
"224 204 OFFCURVE",
"243 405 CURVE SMOOTH",
"255 528 LINE SMOOTH",
"256 537 OFFCURVE",
"250 543 OFFCURVE",
"241 544 CURVE SMOOTH",
"186 549 LINE SMOOTH",
"177 550 OFFCURVE",
"170 544 OFFCURVE",
"169 535 CURVE SMOOTH",
"155 405 LINE SMOOTH",
"121 102 OFFCURVE",
"262 -17 OFFCURVE",
"579 -26 CURVE SMOOTH"
);
}
);
width = 1481;
}
);
unicode = 06A9;
},
{
glyphname = "keheh-ar.fina";
lastChange = "2016-02-01 08:54:15 +0000";
layers = (
{
anchors = (
{
name = bottom;
position = "{683, -176}";
},
{
name = top;
position = "{543, 1045}";
}
);
layerId = "93A312F7-B931-4485-B08E-C367313EB5E7";
name = Regular;
paths = (
{
closed = 1;
nodes = (
"851 -33 OFFCURVE",
"1134 18 OFFCURVE",
"1274 76 CURVE SMOOTH",
"1291 83 OFFCURVE",
"1303 98 OFFCURVE",
"1346 183 CURVE",
"1443 32 OFFCURVE",
"1533 0 OFFCURVE",
"1602 0 CURVE SMOOTH",
"1634 0 LINE",
"1676 52 OFFCURVE",
"1676 104 OFFCURVE",
"1634 156 CURVE",
"1602 156 LINE SMOOTH",
"1490 156 OFFCURVE",
"1439 191 OFFCURVE",
"1384 298 CURVE SMOOTH",
"1269 521 OFFCURVE",
"1191 749 OFFCURVE",
"885 932 CURVE",
"1550 1139 LINE",
"1558 1141 OFFCURVE",
"1563 1146 OFFCURVE",
"1564 1155 CURVE SMOOTH",
"1580 1282 LINE SMOOTH",
"1581 1293 OFFCURVE",
"1575 1299 OFFCURVE",
"1564 1295 CURVE SMOOTH",
"898 1075 LINE",
"890 1072 OFFCURVE",
"886 1069 OFFCURVE",
"883 1062 CURVE",
"778 843 LINE SMOOTH",
"774 835 OFFCURVE",
"777 828 OFFCURVE",
"785 823 CURVE",
"1124 638 OFFCURVE",
"1242 341 OFFCURVE",
"1286 228 CURVE",
"1171 186 OFFCURVE",
"940 130 OFFCURVE",
"652 135 CURVE SMOOTH",
"417 139 OFFCURVE",
"224 204 OFFCURVE",
"243 405 CURVE SMOOTH",
"255 528 LINE SMOOTH",
"256 537 OFFCURVE",
"250 543 OFFCURVE",
"241 544 CURVE SMOOTH",
"186 549 LINE SMOOTH",
"177 550 OFFCURVE",
"170 544 OFFCURVE",
"169 535 CURVE SMOOTH",
"155 405 LINE SMOOTH",
"121 102 OFFCURVE",
"262 -17 OFFCURVE",
"579 -26 CURVE SMOOTH"
);
}
);
width = 1634;
}
);
unicode = FB8F;
},
{
glyphname = "gaf-ar";
lastChange = "2016-02-01 08:54:15 +0000";
layers = (
{
anchors = (
{
name = bottom;
position = "{683, -176}";
},
{
name = top;
position = "{552, 1054}";
}
);
layerId = "93A312F7-B931-4485-B08E-C367313EB5E7";
name = Regular;
paths = (
{
closed = 1;
nodes = (
"891 -34 OFFCURVE",
"1173 40 OFFCURVE",
"1299 96 CURVE",
"1302 97 OFFCURVE",
"1304 101 OFFCURVE",
"1307 108 CURVE SMOOTH",
"1338 176 OFFCURVE",
"1367 274 OFFCURVE",
"1360 324 CURVE SMOOTH",
"1326 563 OFFCURVE",
"1081 828 OFFCURVE",
"908 920 CURVE",
"896 927 OFFCURVE",
"898 936 OFFCURVE",
"910 940 CURVE SMOOTH",
"1480 1119 LINE",
"1488 1121 OFFCURVE",
"1493 1126 OFFCURVE",
"1494 1135 CURVE SMOOTH",
"1510 1261 LINE",
"1511 1272 OFFCURVE",
"1505 1279 OFFCURVE",
"1494 1275 CURVE SMOOTH",
"898 1075 LINE",
"890 1072 OFFCURVE",
"886 1069 OFFCURVE",
"883 1062 CURVE",
"778 843 LINE SMOOTH",
"774 835 OFFCURVE",
"777 828 OFFCURVE",
"785 823 CURVE",
"1114 645 OFFCURVE",
"1245 391 OFFCURVE",
"1285 255 CURVE",
"1288 246 OFFCURVE",
"1285 240 OFFCURVE",
"1276 237 CURVE",
"1170 194 OFFCURVE",
"928 130 OFFCURVE",
"652 135 CURVE SMOOTH",
"417 139 OFFCURVE",
"224 204 OFFCURVE",
"243 405 CURVE SMOOTH",
"255 528 LINE SMOOTH",
"256 537 OFFCURVE",
"250 543 OFFCURVE",
"241 544 CURVE SMOOTH",
"186 549 LINE SMOOTH",
"177 550 OFFCURVE",
"170 544 OFFCURVE",
"169 535 CURVE SMOOTH",
"155 405 LINE SMOOTH",
"122 102 OFFCURVE",
"262 -17 OFFCURVE",
"579 -26 CURVE SMOOTH"
);
},
{
closed = 1;
nodes = (
"1364 1344 LINE",
"1372 1347 OFFCURVE",
"1376 1352 OFFCURVE",
"1378 1359 CURVE SMOOTH",
"1396 1426 LINE SMOOTH",
"1399 1437 OFFCURVE",
"1392 1444 OFFCURVE",
"1381 1440 CURVE",
"1005 1319 LINE",
"997 1316 OFFCURVE",
"993 1314 OFFCURVE",
"990 1306 CURVE",
"958 1233 LINE SMOOTH",
"953 1221 OFFCURVE",
"959 1214 OFFCURVE",
"971 1218 CURVE SMOOTH"
);
}
);
width = 1481;
}
);
unicode = 06AF;
},
{
glyphname = "gaf-ar.fina";
lastChange = "2016-02-01 08:54:15 +0000";
layers = (
{
anchors = (
{
name = bottom;
position = "{683, -176}";
},
{
name = top;
position = "{520, 1059}";
}
);
layerId = "93A312F7-B931-4485-B08E-C367313EB5E7";
name = Regular;
paths = (
{
closed = 1;
nodes = (
"797 -32 OFFCURVE",
"1023 0 OFFCURVE",
"1176 43 CURVE SMOOTH",
"1287 73 OFFCURVE",
"1295 102 OFFCURVE",
"1336 163 CURVE SMOOTH",
"1344 175 OFFCURVE",
"1351 176 OFFCURVE",
"1358 165 CURVE SMOOTH",
"1450 29 OFFCURVE",
"1536 0 OFFCURVE",
"1602 0 CURVE SMOOTH",
"1634 0 LINE",
"1676 52 OFFCURVE",
"1676 104 OFFCURVE",
"1634 156 CURVE",
"1602 156 LINE SMOOTH",
"1490 156 OFFCURVE",
"1439 191 OFFCURVE",
"1384 298 CURVE SMOOTH",
"1272 516 OFFCURVE",
"1195 738 OFFCURVE",
"906 919 CURVE SMOOTH",
"895 926 OFFCURVE",
"896 935 OFFCURVE",
"908 939 CURVE SMOOTH",
"1550 1139 LINE",
"1558 1141 OFFCURVE",
"1563 1146 OFFCURVE",
"1564 1155 CURVE SMOOTH",
"1580 1282 LINE SMOOTH",
"1581 1293 OFFCURVE",
"1575 1299 OFFCURVE",
"1564 1295 CURVE SMOOTH",
"898 1075 LINE",
"890 1072 OFFCURVE",
"886 1069 OFFCURVE",
"883 1062 CURVE",
"778 843 LINE SMOOTH",
"774 835 OFFCURVE",
"777 828 OFFCURVE",
"785 823 CURVE",
"1111 645 OFFCURVE",
"1233 363 OFFCURVE",
"1281 242 CURVE",
"1284 233 OFFCURVE",
"1281 226 OFFCURVE",
"1272 223 CURVE SMOOTH",
"1153 182 OFFCURVE",
"929 130 OFFCURVE",
"652 135 CURVE SMOOTH",
"417 139 OFFCURVE",
"224 204 OFFCURVE",
"243 405 CURVE SMOOTH",
"255 528 LINE SMOOTH",
"256 537 OFFCURVE",
"250 543 OFFCURVE",
"241 544 CURVE SMOOTH",
"186 549 LINE SMOOTH",
"177 550 OFFCURVE",
"170 544 OFFCURVE",
"169 535 CURVE SMOOTH",
"155 405 LINE SMOOTH",
"122 102 OFFCURVE",
"262 -17 OFFCURVE",
"579 -26 CURVE SMOOTH"
);
},
{
closed = 1;
nodes = (
"1434 1364 LINE",
"1442 1367 OFFCURVE",
"1446 1372 OFFCURVE",
"1448 1379 CURVE SMOOTH",
"1466 1446 LINE SMOOTH",
"1469 1457 OFFCURVE",
"1462 1464 OFFCURVE",
"1451 1460 CURVE",
"1005 1319 LINE SMOOTH",
"998 1317 OFFCURVE",
"993 1314 OFFCURVE",
"990 1306 CURVE",
"958 1232 LINE SMOOTH",
"953 1220 OFFCURVE",
"959 1213 OFFCURVE",
"971 1217 CURVE SMOOTH"
);
}
);
width = 1634;
}
);
unicode = FB93;
},
{
glyphname = "gaf-ar.medi";
lastChange = "2016-02-01 08:54:15 +0000";
layers = (
{
anchors = (
{
name = bottom;
position = "{338, -149}";
},
{
name = top;
position = "{478, 1460}";
}
);
layerId = "93A312F7-B931-4485-B08E-C367313EB5E7";
name = Regular;
paths = (
{
closed = 1;
nodes = (
"40 0 LINE SMOOTH",
"201 0 OFFCURVE",
"377 31 OFFCURVE",
"498 73 CURVE SMOOTH",
"568 98 OFFCURVE",
"571 103 OFFCURVE",
"615 187 CURVE",
"712 36 OFFCURVE",
"802 0 OFFCURVE",
"871 0 CURVE SMOOTH",
"903 0 LINE",
"945 52 OFFCURVE",
"945 104 OFFCURVE",
"903 156 CURVE",
"871 156 LINE SMOOTH",
"759 156 OFFCURVE",
"708 195 OFFCURVE",
"653 302 CURVE SMOOTH",
"538 525 OFFCURVE",
"460 749 OFFCURVE",
"154 932 CURVE",
"819 1139 LINE",
"827 1141 OFFCURVE",
"832 1146 OFFCURVE",
"833 1155 CURVE SMOOTH",
"849 1282 LINE SMOOTH",
"850 1293 OFFCURVE",
"844 1299 OFFCURVE",
"833 1295 CURVE SMOOTH",
"167 1075 LINE",
"159 1072 OFFCURVE",
"155 1069 OFFCURVE",
"152 1062 CURVE",
"47 843 LINE SMOOTH",
"43 835 OFFCURVE",
"46 828 OFFCURVE",
"54 823 CURVE",
"393 638 OFFCURVE",
"511 345 OFFCURVE",
"555 232 CURVE",
"427 174 OFFCURVE",
"229 156 OFFCURVE",
"40 156 CURVE SMOOTH",
"0 156 LINE SMOOTH",
"-103 156 OFFCURVE",
"-103 0 OFFCURVE",
"0 0 CURVE SMOOTH"
);
},
{
closed = 1;
nodes = (
"703 1364 LINE",
"711 1367 OFFCURVE",
"715 1372 OFFCURVE",
"717 1379 CURVE SMOOTH",
"735 1446 LINE SMOOTH",
"738 1457 OFFCURVE",
"731 1464 OFFCURVE",
"720 1460 CURVE",
"274 1319 LINE SMOOTH",
"267 1317 OFFCURVE",
"262 1314 OFFCURVE",
"259 1306 CURVE",
"227 1232 LINE SMOOTH",
"222 1220 OFFCURVE",
"228 1213 OFFCURVE",
"240 1217 CURVE SMOOTH"
);
}
);
width = 903;
}
);
unicode = FB95;
},
{
glyphname = "gaf-ar.init";
lastChange = "2016-02-01 08:54:15 +0000";
layers = (
{
anchors = (
{
name = bottom;
position = "{337, -149}";
},
{
name = top;
position = "{370, 1498}";
}
);
layerId = "93A312F7-B931-4485-B08E-C367313EB5E7";
name = Regular;
paths = (
{
closed = 1;
nodes = (
"40 0 LINE SMOOTH",
"216 0 OFFCURVE",
"425 33 OFFCURVE",
"548 112 CURVE SMOOTH",
"554 116 OFFCURVE",
"557 120 OFFCURVE",
"560 127 CURVE SMOOTH",
"591 194 OFFCURVE",
"619 278 OFFCURVE",
"613 328 CURVE SMOOTH",
"579 624 OFFCURVE",
"321 833 OFFCURVE",
"148 921 CURVE SMOOTH",
"136 927 OFFCURVE",
"137 936 OFFCURVE",
"150 940 CURVE SMOOTH",
"719 1119 LINE",
"727 1121 OFFCURVE",
"732 1126 OFFCURVE",
"733 1135 CURVE SMOOTH",
"749 1261 LINE",
"750 1272 OFFCURVE",
"744 1279 OFFCURVE",
"733 1275 CURVE SMOOTH",
"137 1075 LINE",
"129 1072 OFFCURVE",
"125 1069 OFFCURVE",
"122 1062 CURVE",
"18 844 LINE SMOOTH",
"14 836 OFFCURVE",
"17 829 OFFCURVE",
"25 824 CURVE",
"354 646 OFFCURVE",
"498 394 OFFCURVE",
"538 259 CURVE SMOOTH",
"541 250 OFFCURVE",
"538 244 OFFCURVE",
"530 240 CURVE SMOOTH",
"381 166 OFFCURVE",
"215 156 OFFCURVE",
"40 156 CURVE SMOOTH",
"0 156 LINE SMOOTH",
"-103 156 OFFCURVE",
"-103 0 OFFCURVE",
"0 0 CURVE SMOOTH"
);
},
{
closed = 1;
nodes = (
"603 1344 LINE",
"611 1347 OFFCURVE",
"615 1352 OFFCURVE",
"617 1359 CURVE SMOOTH",
"635 1426 LINE SMOOTH",
"638 1437 OFFCURVE",
"631 1444 OFFCURVE",
"620 1440 CURVE",
"244 1319 LINE",
"236 1316 OFFCURVE",
"232 1314 OFFCURVE",
"229 1306 CURVE",
"197 1233 LINE SMOOTH",
"192 1221 OFFCURVE",
"198 1214 OFFCURVE",
"210 1218 CURVE SMOOTH"
);
}
);
width = 776;
}
);
unicode = FB94;
},
{
glyphname = "lam-ar";
lastChange = "2016-02-01 08:54:15 +0000";
layers = (
{
anchors = (
{
name = bottom;
position = "{611, -606}";
},
{
name = top;
position = "{566, 502}";
}
);
layerId = "93A312F7-B931-4485-B08E-C367313EB5E7";
name = Regular;
paths = (
{
closed = 1;
nodes = (
"730 -456 OFFCURVE",
"1128 -376 OFFCURVE",
"1134 -131 CURVE",
"1099 1340 LINE",
"1099 1353 OFFCURVE",
"1090 1355 OFFCURVE",
"1080 1348 CURVE",
"958 1256 LINE",
"952 1251 OFFCURVE",
"950 1245 OFFCURVE",
"950 1237 CURVE",
"1025 -190 LINE",
"1025 -190 OFFCURVE",
"787 -287 OFFCURVE",
"525 -287 CURVE SMOOTH",
"345 -287 OFFCURVE",
"209 -190 OFFCURVE",
"268 25 CURVE",
"329 289 LINE SMOOTH",
"331 298 OFFCURVE",
"326 305 OFFCURVE",
"317 307 CURVE SMOOTH",
"256 321 LINE SMOOTH",
"247 323 OFFCURVE",
"240 320 OFFCURVE",
"238 310 CURVE",
"174 41 LINE",
"111 -185 OFFCURVE",
"156 -456 OFFCURVE",
"490 -456 CURVE SMOOTH"
);
}
);
width = 1254;
}
);
unicode = 0644;
},
{
glyphname = "lam-ar.fina";
lastChange = "2016-02-01 08:54:15 +0000";
layers = (
{
anchors = (
{
name = bottom;
position = "{611, -606}";
},
{
name = top;
position = "{598, 536}";
}
);
layerId = "93A312F7-B931-4485-B08E-C367313EB5E7";
name = Regular;
paths = (
{
closed = 1;
nodes = (
"730 -456 OFFCURVE",
"1128 -376 OFFCURVE",
"1134 -131 CURVE",
"1131 40 LINE",
"1131 52 OFFCURVE",
"1139 57 OFFCURVE",
"1149 49 CURVE",
"1189 22 OFFCURVE",
"1244 0 OFFCURVE",
"1339 0 CURVE SMOOTH",
"1379 0 LINE",
"1421 52 OFFCURVE",
"1421 104 OFFCURVE",
"1379 156 CURVE",
"1339 156 LINE SMOOTH",
"1292 156 OFFCURVE",
"1200 174 OFFCURVE",
"1138 193 CURVE",
"1130 196 OFFCURVE",
"1126 202 OFFCURVE",
"1126 210 CURVE",
"1099 1340 LINE",
"1099 1352 OFFCURVE",
"1090 1355 OFFCURVE",
"1080 1348 CURVE",
"958 1256 LINE",
"952 1251 OFFCURVE",
"950 1245 OFFCURVE",
"950 1237 CURVE",
"1024 -177 LINE",
"1024 -185 OFFCURVE",
"1021 -192 OFFCURVE",
"1013 -195 CURVE SMOOTH",
"961 -214 OFFCURVE",
"752 -287 OFFCURVE",
"525 -287 CURVE SMOOTH",
"345 -287 OFFCURVE",
"209 -190 OFFCURVE",
"268 25 CURVE",
"329 289 LINE SMOOTH",
"331 298 OFFCURVE",
"326 305 OFFCURVE",
"317 307 CURVE SMOOTH",
"256 321 LINE SMOOTH",
"247 323 OFFCURVE",
"240 320 OFFCURVE",
"238 310 CURVE",
"174 41 LINE",
"111 -185 OFFCURVE",
"156 -456 OFFCURVE",
"490 -456 CURVE SMOOTH"
);
}
);
width = 1379;
}
);
unicode = FEDE;
},
{
glyphname = "lam-ar.medi";
lastChange = "2016-02-01 08:54:15 +0000";
layers = (
{
anchors = (
{
name = bottom;
position = "{293, -149}";
},
{
name = top;
position = "{270, 1497}";
}
);
layerId = "93A312F7-B931-4485-B08E-C367313EB5E7";
name = Regular;
paths = (
{
closed = 1;
nodes = (
"40 0 LINE SMOOTH",
"125 0 OFFCURVE",
"241 35 OFFCURVE",
"309 93 CURVE SMOOTH",
"316 99 OFFCURVE",
"323 99 OFFCURVE",
"329 93 CURVE",
"374 53 OFFCURVE",
"432 0 OFFCURVE",
"570 0 CURVE SMOOTH",
"610 0 LINE",
"652 52 OFFCURVE",
"652 104 OFFCURVE",
"610 156 CURVE",
"570 156 LINE SMOOTH",
"523 156 OFFCURVE",
"431 175 OFFCURVE",
"369 194 CURVE",
"361 197 OFFCURVE",
"357 203 OFFCURVE",
"357 211 CURVE",
"340 1329 LINE",
"340 1342 OFFCURVE",
"332 1345 OFFCURVE",
"322 1338 CURVE SMOOTH",
"209 1258 LINE SMOOTH",
"203 1254 OFFCURVE",
"200 1248 OFFCURVE",
"200 1239 CURVE",
"249 208 LINE",
"249 200 OFFCURVE",
"246 194 OFFCURVE",
"238 191 CURVE",
"187 174 OFFCURVE",
"114 156 OFFCURVE",
"40 156 CURVE SMOOTH",
"0 156 LINE SMOOTH",
"-103 156 OFFCURVE",
"-103 0 OFFCURVE",
"0 0 CURVE SMOOTH"
);
}
);
width = 610;
}
);
unicode = FEE0;
},
{
glyphname = "lam-ar.init";
lastChange = "2016-02-01 08:54:15 +0000";
layers = (
{
anchors = (
{
name = bottom;
position = "{129, -150}";
},
{
name = top;
position = "{210, 1502}";
}
);
layerId = "93A312F7-B931-4485-B08E-C367313EB5E7";
name = Regular;
paths = (
{
closed = 1;
nodes = (
"40 0 LINE SMOOTH",
"270 0 OFFCURVE",
"365 87 OFFCURVE",
"349 324 CURVE SMOOTH",
"281 1330 LINE SMOOTH",
"280 1342 OFFCURVE",
"273 1346 OFFCURVE",
"263 1339 CURVE SMOOTH",
"149 1258 LINE",
"143 1253 OFFCURVE",
"139 1248 OFFCURVE",
"140 1239 CURVE SMOOTH",
"259 209 LINE SMOOTH",
"260 200 OFFCURVE",
"257 193 OFFCURVE",
"248 191 CURVE",
"193 174 OFFCURVE",
"95 156 OFFCURVE",
"40 156 CURVE SMOOTH",
"0 156 LINE SMOOTH",
"-103 156 OFFCURVE",
"-103 0 OFFCURVE",
"0 0 CURVE SMOOTH"
);
}
);
width = 471;
}
);
unicode = FEDF;
},
{
glyphname = "meem-ar";
lastChange = "2016-02-01 08:54:15 +0000";
layers = (
{
anchors = (
{
name = bottom;
position = "{259, -832}";
},
{
name = top;
position = "{555, 918}";
}
);
layerId = "93A312F7-B931-4485-B08E-C367313EB5E7";
name = Regular;
paths = (
{
closed = 1;
nodes = (
"318 -634 LINE SMOOTH",
"327 -630 OFFCURVE",
"329 -624 OFFCURVE",
"328 -616 CURVE SMOOTH",
"248 30 LINE SMOOTH",
"246 48 OFFCURVE",
"253 60 OFFCURVE",
"270 66 CURVE SMOOTH",
"455 129 OFFCURVE",
"697 138 OFFCURVE",
"899 120 CURVE SMOOTH",
"917 118 OFFCURVE",
"928 128 OFFCURVE",
"932 146 CURVE",
"964 291 LINE",
"967 304 OFFCURVE",
"969 314 OFFCURVE",
"968 327 CURVE",
"967 369 OFFCURVE",
"953 415 OFFCURVE",
"931 459 CURVE SMOOTH",
"852 617 OFFCURVE",
"666 767 OFFCURVE",
"553 767 CURVE SMOOTH",
"353 767 OFFCURVE",
"296 549 OFFCURVE",
"295 395 CURVE SMOOTH",
"294 217 LINE",
"211 172 OFFCURVE",
"138 82 OFFCURVE",
"152 -119 CURVE SMOOTH",
"187 -670 LINE SMOOTH",
"188 -681 OFFCURVE",
"195 -685 OFFCURVE",
"205 -681 CURVE SMOOTH"
);
},
{
closed = 1;
nodes = (
"425 255 OFFCURVE",
"412 262 OFFCURVE",
"407 281 CURVE SMOOTH",
"379 377 LINE SMOOTH",
"375 392 OFFCURVE",
"375 402 OFFCURVE",
"380 416 CURVE SMOOTH",
"406 494 OFFCURVE",
"451 596 OFFCURVE",
"535 596 CURVE SMOOTH",
"658 596 OFFCURVE",
"800 446 OFFCURVE",
"882 275 CURVE",
"728 287 OFFCURVE",
"581 285 OFFCURVE",
"443 259 CURVE SMOOTH"
);
}
);
width = 1088;
}
);
unicode = 0645;
},
{
glyphname = "meem-ar.fina";
lastChange = "2016-02-01 08:54:15 +0000";
layers = (
{
anchors = (
{
name = bottom;
position = "{293, -831}";
},
{
name = top;
position = "{768, 728}";
}
);
layerId = "93A312F7-B931-4485-B08E-C367313EB5E7";
name = Regular;
paths = (
{
closed = 1;
nodes = (
"320 -634 LINE",
"328 -630 OFFCURVE",
"332 -624 OFFCURVE",
"331 -616 CURVE SMOOTH",
"252 212 LINE SMOOTH",
"251 220 OFFCURVE",
"255 227 OFFCURVE",
"263 230 CURVE",
"307 268 OFFCURVE",
"356 296 OFFCURVE",
"403 312 CURVE SMOOTH",
"421 318 OFFCURVE",
"431 308 OFFCURVE",
"431 295 CURVE SMOOTH",
"431 96 OFFCURVE",
"490 -123 OFFCURVE",
"655 -198 CURVE SMOOTH",
"754 -243 OFFCURVE",
"791 -204 OFFCURVE",
"862 -97 CURVE SMOOTH",
"981 83 LINE SMOOTH",
"987 92 OFFCURVE",
"994 92 OFFCURVE",
"1002 85 CURVE SMOOTH",
"1069 26 OFFCURVE",
"1150 0 OFFCURVE",
"1268 0 CURVE",
"1310 52 OFFCURVE",
"1310 104 OFFCURVE",
"1268 156 CURVE",
"1228 156 LINE SMOOTH",
"1027 156 OFFCURVE",
"928 373 OFFCURVE",
"845 539 CURVE SMOOTH",
"829 571 OFFCURVE",
"804 583 OFFCURVE",
"768 576 CURVE SMOOTH",
"273 490 OFFCURVE",
"137 311 OFFCURVE",
"151 75 CURVE SMOOTH",
"194 -670 LINE SMOOTH",
"195 -682 OFFCURVE",
"201 -686 OFFCURVE",
"212 -681 CURVE SMOOTH"
);
},
{
closed = 1;
nodes = (
"670 -49 OFFCURVE",
"518 92 OFFCURVE",
"518 323 CURVE SMOOTH",
"518 341 OFFCURVE",
"525 350 OFFCURVE",
"533 352 CURVE",
"602 380 OFFCURVE",
"675 401 OFFCURVE",
"755 412 CURVE",
"763 414 OFFCURVE",
"770 410 OFFCURVE",
"774 402 CURVE SMOOTH",
"816 321 OFFCURVE",
"861 244 OFFCURVE",
"906 191 CURVE SMOOTH",
"911 185 OFFCURVE",
"913 178 OFFCURVE",
"910 171 CURVE",
"797 -49 LINE",
"793 -58 OFFCURVE",
"788 -61 OFFCURVE",
"779 -60 CURVE SMOOTH"
);
}
);
width = 1268;
}
);
unicode = FEE2;
},
{
glyphname = "meem-ar.medi";
lastChange = "2016-02-01 08:54:15 +0000";
layers = (
{
anchors = (
{
name = bottom;
position = "{576, -174}";
},
{
name = top;
position = "{645, 869}";
}
);
layerId = "93A312F7-B931-4485-B08E-C367313EB5E7";
name = Regular;
paths = (
{
closed = 1;
nodes = (
"831 -62 OFFCURVE",
"849 23 OFFCURVE",
"894 112 CURVE",
"949 32 OFFCURVE",
"1039 0 OFFCURVE",
"1108 0 CURVE SMOOTH",
"1148 0 LINE",
"1190 52 OFFCURVE",
"1190 104 OFFCURVE",
"1148 156 CURVE",
"975 156 OFFCURVE",
"915 247 OFFCURVE",
"881 325 CURVE SMOOTH",
"749 625 LINE SMOOTH",
"723 683 OFFCURVE",
"678 805 OFFCURVE",
"502 688 CURVE SMOOTH",
"385 607 OFFCURVE",
"251 439 OFFCURVE",
"216 199 CURVE SMOOTH",
"215 191 OFFCURVE",
"210 186 OFFCURVE",
"202 184 CURVE",
"157 170 OFFCURVE",
"88 156 OFFCURVE",
"0 156 CURVE SMOOTH",
"-103 156 OFFCURVE",
"-103 0 OFFCURVE",
"0 0 CURVE SMOOTH",
"115 0 OFFCURVE",
"184 19 OFFCURVE",
"252 86 CURVE SMOOTH",
"257 91 OFFCURVE",
"264 93 OFFCURVE",
"272 91 CURVE SMOOTH",
"645 -3 LINE"
);
},
{
closed = 1;
nodes = (
"323 248 LINE SMOOTH",
"314 250 OFFCURVE",
"309 256 OFFCURVE",
"312 266 CURVE SMOOTH",
"359 430 OFFCURVE",
"490 533 OFFCURVE",
"590 571 CURVE SMOOTH",
"606 577 OFFCURVE",
"611 562 OFFCURVE",
"613 558 CURVE SMOOTH",
"802 147 LINE SMOOTH",
"807 136 OFFCURVE",
"801 128 OFFCURVE",
"789 131 CURVE SMOOTH"
);
}
);
width = 1148;
}
);
unicode = FEE4;
},
{
glyphname = "meem-ar.init";
lastChange = "2016-02-01 08:54:15 +0000";
layers = (
{
anchors = (
{
name = bottom;
position = "{538, -200}";
},
{
name = top;
position = "{653, 879}";
}
);
layerId = "93A312F7-B931-4485-B08E-C367313EB5E7";
name = Regular;
paths = (
{
closed = 1;
nodes = (
"40 0 LINE SMOOTH",
"139 0 OFFCURVE",
"199 67 OFFCURVE",
"252 131 CURVE",
"257 138 OFFCURVE",
"264 140 OFFCURVE",
"272 137 CURVE SMOOTH",
"661 0 LINE SMOOTH",
"867 -72 OFFCURVE",
"850 -53 OFFCURVE",
"975 122 CURVE SMOOTH",
"979 128 OFFCURVE",
"981 142 OFFCURVE",
"980 150 CURVE SMOOTH",
"954 399 OFFCURVE",
"835 729 OFFCURVE",
"653 729 CURVE SMOOTH",
"449 729 OFFCURVE",
"354 475 OFFCURVE",
"241 305 CURVE SMOOTH",
"160 185 OFFCURVE",
"114 156 OFFCURVE",
"0 156 CURVE SMOOTH",
"-103 156 OFFCURVE",
"-103 0 OFFCURVE",
"0 0 CURVE SMOOTH"
);
},
{
closed = 1;
nodes = (
"373 286 LINE SMOOTH",
"364 289 OFFCURVE",
"360 296 OFFCURVE",
"365 305 CURVE SMOOTH",
"408 384 OFFCURVE",
"489 555 OFFCURVE",
"611 555 CURVE SMOOTH",
"727 555 OFFCURVE",
"804 317 OFFCURVE",
"844 141 CURVE SMOOTH",
"847 129 OFFCURVE",
"841 117 OFFCURVE",
"826 122 CURVE SMOOTH"
);
}
);
width = 1100;
}
);
unicode = FEE3;
},
{
glyphname = "noonghunna-ar";
lastChange = "2016-02-01 08:54:15 +0000";
layers = (
{
anchors = (
{
name = bottom;
position = "{621, -612}";
},
{
name = top;
position = "{597, 367}";
}
);
layerId = "93A312F7-B931-4485-B08E-C367313EB5E7";
name = Regular;
paths = (
{
closed = 1;
nodes = (
"711 -462 OFFCURVE",
"1023 -371 OFFCURVE",
"1127 -236 CURVE SMOOTH",
"1174 -175 OFFCURVE",
"1166 -109 OFFCURVE",
"1156 5 CURVE",
"1094 495 LINE SMOOTH",
"1092 511 OFFCURVE",
"1077 516 OFFCURVE",
"1065 507 CURVE SMOOTH",
"969 436 LINE SMOOTH",
"965 433 OFFCURVE",
"963 428 OFFCURVE",
"964 423 CURVE",
"1057 -154 LINE SMOOTH",
"1058 -160 OFFCURVE",
"1055 -167 OFFCURVE",
"1049 -169 CURVE",
"997 -203 OFFCURVE",
"808 -287 OFFCURVE",
"538 -287 CURVE SMOOTH",
"342 -287 OFFCURVE",
"220 -188 OFFCURVE",
"265 53 CURVE SMOOTH",
"295 198 LINE SMOOTH",
"297 208 OFFCURVE",
"290 215 OFFCURVE",
"281 216 CURVE SMOOTH",
"217 225 LINE SMOOTH",
"209 226 OFFCURVE",
"202 222 OFFCURVE",
"200 213 CURVE SMOOTH",
"164 33 LINE SMOOTH",
"113 -221 OFFCURVE",
"194 -462 OFFCURVE",
"514 -462 CURVE SMOOTH"
);
}
);
width = 1284;
}
);
unicode = 06BA;
},
{
glyphname = "noonghunna-ar.fina";
lastChange = "2016-02-01 08:54:15 +0000";
layers = (
{
anchors = (
{
name = bottom;
position = "{623, -612}";
},
{
name = top;
position = "{599, 367}";
}
);
layerId = "93A312F7-B931-4485-B08E-C367313EB5E7";
name = Regular;
paths = (
{
closed = 1;
nodes = (
"713 -462 OFFCURVE",
"1025 -371 OFFCURVE",
"1129 -236 CURVE SMOOTH",
"1171 -181 OFFCURVE",
"1172 -148 OFFCURVE",
"1153 54 CURVE",
"1197 19 OFFCURVE",
"1244 0 OFFCURVE",
"1391 0 CURVE SMOOTH",
"1431 0 LINE",
"1473 52 OFFCURVE",
"1473 104 OFFCURVE",
"1431 156 CURVE",
"1391 156 LINE SMOOTH",
"1197 156 OFFCURVE",
"1142 172 OFFCURVE",
"1118 317 CURVE",
"1109 426 LINE SMOOTH",
"1108 442 OFFCURVE",
"1092 447 OFFCURVE",
"1080 438 CURVE SMOOTH",
"984 367 LINE SMOOTH",
"980 364 OFFCURVE",
"978 359 OFFCURVE",
"979 354 CURVE",
"1059 -154 LINE SMOOTH",
"1060 -160 OFFCURVE",
"1057 -167 OFFCURVE",
"1051 -169 CURVE",
"979 -203 OFFCURVE",
"810 -287 OFFCURVE",
"540 -287 CURVE SMOOTH",
"334 -287 OFFCURVE",
"222 -188 OFFCURVE",
"267 53 CURVE SMOOTH",
"297 198 LINE SMOOTH",
"299 208 OFFCURVE",
"292 215 OFFCURVE",
"283 216 CURVE SMOOTH",
"219 225 LINE SMOOTH",
"211 226 OFFCURVE",
"204 222 OFFCURVE",
"202 213 CURVE SMOOTH",
"166 33 LINE SMOOTH",
"115 -221 OFFCURVE",
"176 -462 OFFCURVE",
"516 -462 CURVE SMOOTH"
);
}
);
width = 1431;
}
);
unicode = FB9F;
},
{
glyphname = "heh-ar";
lastChange = "2016-02-01 08:54:15 +0000";
layers = (
{
anchors = (
{
name = bottom;
position = "{407, -172}";
},
{
name = top;
position = "{325, 840}";
}
);
layerId = "93A312F7-B931-4485-B08E-C367313EB5E7";
name = Regular;
paths = (
{
closed = 1;
nodes = (
"507 -31 OFFCURVE",
"649 131 OFFCURVE",
"671 301 CURVE SMOOTH",
"693 470 OFFCURVE",
"500 581 OFFCURVE",
"342 679 CURVE",
"331 685 OFFCURVE",
"321 683 OFFCURVE",
"314 672 CURVE",
"225 518 OFFCURVE",
"156 357 OFFCURVE",
"150 215 CURVE SMOOTH",
"145 72 OFFCURVE",
"220 -31 OFFCURVE",
"347 -31 CURVE SMOOTH"
);
},
{
closed = 1;
nodes = (
"287 135 OFFCURVE",
"224 182 OFFCURVE",
"222 277 CURVE SMOOTH",
"220 346 OFFCURVE",
"251 412 OFFCURVE",
"303 502 CURVE",
"309 514 OFFCURVE",
"319 515 OFFCURVE",
"331 509 CURVE SMOOTH",
"449 447 OFFCURVE",
"522 396 OFFCURVE",
"594 326 CURVE SMOOTH",
"602 318 OFFCURVE",
"603 309 OFFCURVE",
"598 299 CURVE SMOOTH",
"542 188 OFFCURVE",
"449 131 OFFCURVE",
"362 133 CURVE SMOOTH"
);
}
);
width = 793;
}
);
unicode = 0647;
},
{
glyphname = "heh-ar.fina";
lastChange = "2016-02-01 08:54:15 +0000";
layers = (
{
anchors = (
{
name = bottom;
position = "{439, -143}";
},
{
name = top;
position = "{605, 1105}";
}
);
layerId = "93A312F7-B931-4485-B08E-C367313EB5E7";
name = Regular;
paths = (
{
closed = 1;
nodes = (
"983 0 LINE",
"1025 52 OFFCURVE",
"1025 104 OFFCURVE",
"983 156 CURVE",
"943 156 LINE SMOOTH",
"807 156 OFFCURVE",
"737 209 OFFCURVE",
"723 360 CURVE SMOOTH",
"670 949 LINE SMOOTH",
"669 960 OFFCURVE",
"661 965 OFFCURVE",
"651 958 CURVE SMOOTH",
"545 889 LINE",
"538 885 OFFCURVE",
"536 879 OFFCURVE",
"537 870 CURVE",
"565 697 LINE",
"566 689 OFFCURVE",
"563 682 OFFCURVE",
"555 678 CURVE SMOOTH",
"357 579 OFFCURVE",
"168 430 OFFCURVE",
"150 184 CURVE",
"149 177 OFFCURVE",
"152 160 OFFCURVE",
"153 153 CURVE",
"173 65 OFFCURVE",
"338 43 OFFCURVE",
"480 47 CURVE SMOOTH",
"613 51 OFFCURVE",
"639 107 OFFCURVE",
"656 172 CURVE",
"704 50 OFFCURVE",
"791 0 OFFCURVE",
"943 0 CURVE SMOOTH"
);
},
{
closed = 1;
nodes = (
"499 183 OFFCURVE",
"311 204 OFFCURVE",
"229 258 CURVE",
"224 261 OFFCURVE",
"223 267 OFFCURVE",
"227 276 CURVE SMOOTH",
"274 373 OFFCURVE",
"405 481 OFFCURVE",
"571 555 CURVE",
"581 559 OFFCURVE",
"588 555 OFFCURVE",
"589 545 CURVE",
"635 229 LINE",
"636 219 OFFCURVE",
"632 214 OFFCURVE",
"623 212 CURVE SMOOTH"
);
}
);
width = 983;
}
);
unicode = FEEA;
},
{
glyphname = "heh-ar.medi";
lastChange = "2016-02-01 08:54:15 +0000";
layers = (
{
anchors = (
{
name = bottom;
position = "{501, -624}";
},
{
name = top;
position = "{552, 1039}";
}
);
layerId = "93A312F7-B931-4485-B08E-C367313EB5E7";
name = Regular;
paths = (
{
closed = 1;
nodes = (
"699 -506 OFFCURVE",
"704 -501 OFFCURVE",
"706 -492 CURVE",
"775 -231 OFFCURVE",
"697 -75 OFFCURVE",
"625 -7 CURVE",
"622 -3 OFFCURVE",
"631 0 OFFCURVE",
"644 0 CURVE SMOOTH",
"832 0 LINE",
"874 52 OFFCURVE",
"874 104 OFFCURVE",
"832 156 CURVE",
"792 156 LINE SMOOTH",
"697 156 OFFCURVE",
"639 147 OFFCURVE",
"537 137 CURVE SMOOTH",
"524 136 OFFCURVE",
"522 141 OFFCURVE",
"531 150 CURVE",
"725 326 OFFCURVE",
"695 390 OFFCURVE",
"679 796 CURVE",
"678 805 OFFCURVE",
"675 810 OFFCURVE",
"668 814 CURVE SMOOTH",
"560 875 LINE SMOOTH",
"553 879 OFFCURVE",
"546 879 OFFCURVE",
"539 873 CURVE SMOOTH",
"331 699 OFFCURVE",
"206 453 OFFCURVE",
"140 169 CURVE SMOOTH",
"138 160 OFFCURVE",
"133 155 OFFCURVE",
"124 155 CURVE SMOOTH",
"0 156 LINE SMOOTH",
"-103 157 OFFCURVE",
"-103 1 OFFCURVE",
"0 0 CURVE SMOOTH",
"119 -1 LINE SMOOTH",
"128 -1 OFFCURVE",
"134 -6 OFFCURVE",
"135 -16 CURVE SMOOTH",
"167 -317 OFFCURVE",
"391 -515 OFFCURVE",
"690 -506 CURVE SMOOTH"
);
},
{
closed = 1;
nodes = (
"448 -337 OFFCURVE",
"278 -171 OFFCURVE",
"267 -2 CURVE SMOOTH",
"266 8 OFFCURVE",
"272 13 OFFCURVE",
"282 13 CURVE SMOOTH",
"480 7 OFFCURVE",
"623 -142 OFFCURVE",
"666 -315 CURVE",
"669 -325 OFFCURVE",
"664 -331 OFFCURVE",
"653 -332 CURVE"
);
},
{
closed = 1;
nodes = (
"267 151 OFFCURVE",
"258 154 OFFCURVE",
"260 166 CURVE SMOOTH",
"290 361 OFFCURVE",
"398 559 OFFCURVE",
"530 678 CURVE SMOOTH",
"538 685 OFFCURVE",
"544 680 OFFCURVE",
"545 667 CURVE SMOOTH",
"565 289 OFFCURVE",
"565 295 OFFCURVE",
"544 280 CURVE SMOOTH",
"457 217 OFFCURVE",
"369 179 OFFCURVE",
"277 154 CURVE SMOOTH"
);
}
);
width = 832;
}
);
unicode = FEEC;
},
{
glyphname = "heh-ar.init";
lastChange = "2016-02-01 08:54:15 +0000";
layers = (
{
anchors = (
{
name = bottom;
position = "{566, -84}";
},
{
name = top;
position = "{618, 1099}";
}
);
layerId = "93A312F7-B931-4485-B08E-C367313EB5E7";
name = Regular;
paths = (
{
closed = 1;
nodes = (
"40 0 LINE SMOOTH",
"195 0 OFFCURVE",
"426 69 OFFCURVE",
"535 146 CURVE",
"541 151 OFFCURVE",
"548 152 OFFCURVE",
"555 150 CURVE",
"1060 30 LINE SMOOTH",
"1069 28 OFFCURVE",
"1076 31 OFFCURVE",
"1079 40 CURVE",
"1218 411 OFFCURVE",
"1124 618 OFFCURVE",
"647 948 CURVE",
"639 954 OFFCURVE",
"631 952 OFFCURVE",
"626 944 CURVE SMOOTH",
"574 854 LINE",
"570 848 OFFCURVE",
"566 844 OFFCURVE",
"559 841 CURVE SMOOTH",
"400 779 OFFCURVE",
"236 531 OFFCURVE",
"234 359 CURVE SMOOTH",
"233 293 OFFCURVE",
"249 246 OFFCURVE",
"288 201 CURVE SMOOTH",
"296 192 OFFCURVE",
"294 184 OFFCURVE",
"283 181 CURVE SMOOTH",
"238 170 OFFCURVE",
"182 155 OFFCURVE",
"40 156 CURVE SMOOTH",
"0 156 LINE SMOOTH",
"-103 156 OFFCURVE",
"-103 0 OFFCURVE",
"0 0 CURVE SMOOTH"
);
},
{
closed = 1;
nodes = (
"321 310 OFFCURVE",
"284 434 OFFCURVE",
"365 574 CURVE SMOOTH",
"460 740 OFFCURVE",
"639 720 OFFCURVE",
"706 606 CURVE SMOOTH",
"710 599 OFFCURVE",
"709 593 OFFCURVE",
"705 586 CURVE",
"551 288 LINE",
"547 281 OFFCURVE",
"541 277 OFFCURVE",
"532 279 CURVE"
);
},
{
closed = 1;
nodes = (
"696 283 LINE",
"687 286 OFFCURVE",
"683 292 OFFCURVE",
"686 302 CURVE",
"796 624 LINE SMOOTH",
"800 635 OFFCURVE",
"807 636 OFFCURVE",
"816 629 CURVE",
"959 528 OFFCURVE",
"1063 355 OFFCURVE",
"1047 198 CURVE SMOOTH",
"1046 188 OFFCURVE",
"1038 183 OFFCURVE",
"1029 186 CURVE"
);
}
);
width = 1258;
}
);
unicode = FEEB;
},
{
glyphname = "hehgoal-ar.fina";
lastChange = "2016-02-01 08:54:15 +0000";
layers = (
{
anchors = (
{
name = bottom;
position = "{529, -154}";
},
{
name = top;
position = "{576, 506}";
}
);
layerId = "93A312F7-B931-4485-B08E-C367313EB5E7";
name = Regular;
paths = (
{
closed = 1;
nodes = (
"197 -80 OFFCURVE",
"205 -79 OFFCURVE",
"212 -71 CURVE SMOOTH",
"461 205 OFFCURVE",
"504 222 OFFCURVE",
"520 222 CURVE SMOOTH",
"596 222 OFFCURVE",
"783 0 OFFCURVE",
"989 0 CURVE SMOOTH",
"1077 0 LINE",
"1119 52 OFFCURVE",
"1119 104 OFFCURVE",
"1077 156 CURVE",
"1037 156 LINE SMOOTH",
"930 156 OFFCURVE",
"852 200 OFFCURVE",
"782 246 CURVE SMOOTH",
"703 298 OFFCURVE",
"633 354 OFFCURVE",
"576 356 CURVE SMOOTH",
"487 359 OFFCURVE",
"383 243 OFFCURVE",
"155 -24 CURVE",
"149 -32 OFFCURVE",
"148 -39 OFFCURVE",
"156 -46 CURVE SMOOTH",
"190 -74 LINE SMOOTH"
);
}
);
width = 1077;
}
);
unicode = FBA7;
},
{
glyphname = "hehgoal-ar.medi";
lastChange = "2016-02-01 08:54:15 +0000";
layers = (
{
anchors = (
{
name = bottom;
position = "{600, -730}";
},
{
name = top;
position = "{540, 650}";
}
);
layerId = "93A312F7-B931-4485-B08E-C367313EB5E7";
name = Regular;
paths = (
{
closed = 1;
nodes = (
"765 -408 LINE",
"770 -402 OFFCURVE",
"771 -395 OFFCURVE",
"768 -388 CURVE",
"652 -88 LINE",
"649 -79 OFFCURVE",
"652 -73 OFFCURVE",
"661 -69 CURVE SMOOTH",
"764 -23 OFFCURVE",
"871 0 OFFCURVE",
"1080 0 CURVE",
"1122 52 OFFCURVE",
"1122 104 OFFCURVE",
"1080 156 CURVE",
"694 155 OFFCURVE",
"515 40 OFFCURVE",
"601 -303 CURVE",
"526 -116 OFFCURVE",
"478 -3 OFFCURVE",
"483 211 CURVE",
"501 473 LINE SMOOTH",
"502 484 OFFCURVE",
"495 489 OFFCURVE",
"485 488 CURVE SMOOTH",
"428 481 LINE SMOOTH",
"419 480 OFFCURVE",
"414 475 OFFCURVE",
"413 466 CURVE SMOOTH",
"395 308 LINE SMOOTH",
"377 152 OFFCURVE",
"158 154 OFFCURVE",
"44 154 CURVE SMOOTH",
"0 154 LINE SMOOTH",
"-103 154 OFFCURVE",
"-103 -2 OFFCURVE",
"0 -2 CURVE SMOOTH",
"38 -2 LINE SMOOTH",
"146 -2 OFFCURVE",
"282 11 OFFCURVE",
"383 102 CURVE",
"354 -197 OFFCURVE",
"542 -454 OFFCURVE",
"617 -572 CURVE SMOOTH",
"623 -582 OFFCURVE",
"631 -583 OFFCURVE",
"638 -573 CURVE"
);
}
);
width = 1080;
}
);
unicode = FBA9;
},
{
glyphname = "hehDoachashmee-ar";
lastChange = "2016-02-01 08:54:15 +0000";
layers = (
{
anchors = (
{
name = bottom;
position = "{599, -123}";
},
{
name = top;
position = "{627, 1300}";
}
);
layerId = "93A312F7-B931-4485-B08E-C367313EB5E7";
name = Regular;
paths = (
{
closed = 1;
nodes = (
"290 3 OFFCURVE",
"332 33 OFFCURVE",
"405 134 CURVE SMOOTH",
"508 283 LINE SMOOTH",
"513 290 OFFCURVE",
"519 292 OFFCURVE",
"527 291 CURVE SMOOTH",
"1006 215 LINE SMOOTH",
"1014 214 OFFCURVE",
"1021 217 OFFCURVE",
"1024 225 CURVE",
"1162 528 OFFCURVE",
"1084 724 OFFCURVE",
"599 1147 CURVE",
"591 1155 OFFCURVE",
"583 1154 OFFCURVE",
"578 1144 CURVE SMOOTH",
"507 1009 LINE SMOOTH",
"504 1003 OFFCURVE",
"499 999 OFFCURVE",
"492 996 CURVE SMOOTH",
"334 932 OFFCURVE",
"169 703 OFFCURVE",
"160 526 CURVE SMOOTH",
"155 426 OFFCURVE",
"206 332 OFFCURVE",
"341 289 CURVE",
"352 286 OFFCURVE",
"355 278 OFFCURVE",
"348 269 CURVE",
"172 59 LINE SMOOTH",
"165 51 OFFCURVE",
"167 42 OFFCURVE",
"178 39 CURVE"
);
},
{
closed = 1;
nodes = (
"311 466 OFFCURVE",
"254 524 OFFCURVE",
"256 605 CURVE SMOOTH",
"262 812 OFFCURVE",
"546 927 OFFCURVE",
"642 761 CURVE",
"647 754 OFFCURVE",
"646 748 OFFCURVE",
"642 741 CURVE SMOOTH",
"474 443 LINE",
"470 435 OFFCURVE",
"464 433 OFFCURVE",
"455 435 CURVE SMOOTH"
);
},
{
closed = 1;
nodes = (
"630 439 LINE SMOOTH",
"620 441 OFFCURVE",
"616 448 OFFCURVE",
"619 457 CURVE SMOOTH",
"729 777 LINE SMOOTH",
"733 788 OFFCURVE",
"741 790 OFFCURVE",
"749 782 CURVE SMOOTH",
"851 681 OFFCURVE",
"993 505 OFFCURVE",
"998 383 CURVE",
"999 373 OFFCURVE",
"992 368 OFFCURVE",
"982 370 CURVE SMOOTH"
);
}
);
width = 1205;
}
);
unicode = 06BE;
},
{
glyphname = "hehDoachashmee-ar.fina";
lastChange = "2016-02-01 08:54:15 +0000";
layers = (
{
anchors = (
{
name = bottom;
position = "{619, -240}";
},
{
name = top;
position = "{639, 1090}";
}
);
layerId = "93A312F7-B931-4485-B08E-C367313EB5E7";
name = Regular;
paths = (
{
closed = 1;
nodes = (
"282 -126 OFFCURVE",
"324 -96 OFFCURVE",
"397 5 CURVE SMOOTH",
"500 153 LINE",
"505 161 OFFCURVE",
"511 163 OFFCURVE",
"520 160 CURVE",
"1022 26 OFFCURVE",
"1135 0 OFFCURVE",
"1355 0 CURVE",
"1397 52 OFFCURVE",
"1397 104 OFFCURVE",
"1355 156 CURVE",
"1271 156 OFFCURVE",
"1079 154 OFFCURVE",
"1015 162 CURVE",
"1005 164 OFFCURVE",
"1001 170 OFFCURVE",
"1003 180 CURVE SMOOTH",
"1062 443 OFFCURVE",
"1005 601 OFFCURVE",
"612 945 CURVE SMOOTH",
"604 952 OFFCURVE",
"595 951 OFFCURVE",
"590 942 CURVE",
"518 826 LINE",
"514 819 OFFCURVE",
"510 816 OFFCURVE",
"503 813 CURVE SMOOTH",
"353 754 OFFCURVE",
"199 520 OFFCURVE",
"197 358 CURVE SMOOTH",
"195 235 OFFCURVE",
"250 191 OFFCURVE",
"333 158 CURVE SMOOTH",
"343 154 OFFCURVE",
"345 147 OFFCURVE",
"338 138 CURVE",
"164 -70 LINE SMOOTH",
"157 -78 OFFCURVE",
"159 -87 OFFCURVE",
"170 -90 CURVE"
);
},
{
closed = 1;
nodes = (
"270 312 OFFCURVE",
"244 429 OFFCURVE",
"321 561 CURVE SMOOTH",
"410 716 OFFCURVE",
"569 682 OFFCURVE",
"640 591 CURVE",
"645 584 OFFCURVE",
"645 578 OFFCURVE",
"641 570 CURVE",
"487 291 LINE SMOOTH",
"483 284 OFFCURVE",
"477 280 OFFCURVE",
"468 282 CURVE"
);
},
{
closed = 1;
nodes = (
"634 286 LINE",
"625 289 OFFCURVE",
"621 295 OFFCURVE",
"624 305 CURVE",
"727 606 LINE SMOOTH",
"731 617 OFFCURVE",
"739 620 OFFCURVE",
"747 611 CURVE",
"839 518 OFFCURVE",
"938 365 OFFCURVE",
"938 216 CURVE",
"937 206 OFFCURVE",
"930 201 OFFCURVE",
"920 204 CURVE SMOOTH"
);
}
);
width = 1355;
}
);
unicode = FBAB;
},
{
glyphname = "hehDoachashmee-ar.medi";
lastChange = "2016-02-01 08:54:15 +0000";
layers = (
{
anchors = (
{
name = bottom;
position = "{515, -146}";
},
{
name = top;
position = "{596, 1099}";
}
);
layerId = "93A312F7-B931-4485-B08E-C367313EB5E7";
name = Regular;
paths = (
{
closed = 1;
nodes = (
"40 0 LINE SMOOTH",
"195 0 OFFCURVE",
"359 78 OFFCURVE",
"465 156 CURVE",
"471 161 OFFCURVE",
"477 162 OFFCURVE",
"486 160 CURVE",
"997 23 OFFCURVE",
"1101 0 OFFCURVE",
"1322 0 CURVE",
"1364 52 OFFCURVE",
"1364 104 OFFCURVE",
"1322 156 CURVE",
"1239 156 OFFCURVE",
"1049 163 OFFCURVE",
"983 165 CURVE SMOOTH",
"973 165 OFFCURVE",
"968 171 OFFCURVE",
"971 181 CURVE",
"1029 443 OFFCURVE",
"971 602 OFFCURVE",
"579 945 CURVE SMOOTH",
"571 952 OFFCURVE",
"562 951 OFFCURVE",
"557 942 CURVE",
"485 826 LINE",
"481 819 OFFCURVE",
"477 816 OFFCURVE",
"470 813 CURVE SMOOTH",
"320 754 OFFCURVE",
"166 520 OFFCURVE",
"164 358 CURVE SMOOTH",
"163 296 OFFCURVE",
"178 238 OFFCURVE",
"215 193 CURVE SMOOTH",
"222 184 OFFCURVE",
"220 175 OFFCURVE",
"209 173 CURVE",
"158 161 OFFCURVE",
"84 156 OFFCURVE",
"40 156 CURVE SMOOTH",
"0 156 LINE SMOOTH",
"-103 156 OFFCURVE",
"-103 0 OFFCURVE",
"0 0 CURVE SMOOTH"
);
},
{
closed = 1;
nodes = (
"237 312 OFFCURVE",
"211 429 OFFCURVE",
"288 561 CURVE SMOOTH",
"377 716 OFFCURVE",
"536 682 OFFCURVE",
"607 591 CURVE",
"612 584 OFFCURVE",
"612 578 OFFCURVE",
"608 570 CURVE",
"454 291 LINE SMOOTH",
"450 284 OFFCURVE",
"444 280 OFFCURVE",
"435 282 CURVE"
);
},
{
closed = 1;
nodes = (
"601 286 LINE",
"592 289 OFFCURVE",
"588 295 OFFCURVE",
"591 305 CURVE",
"694 606 LINE SMOOTH",
"698 617 OFFCURVE",
"706 620 OFFCURVE",
"714 611 CURVE",
"806 518 OFFCURVE",
"905 365 OFFCURVE",
"905 216 CURVE",
"904 206 OFFCURVE",
"897 201 OFFCURVE",
"887 204 CURVE SMOOTH"
);
}
);
width = 1322;
}
);
unicode = FBAD;
},
{
glyphname = "waw-ar";
lastChange = "2016-02-01 08:54:15 +0000";
layers = (
{
anchors = (
{
name = bottom;
position = "{367, -626}";
},
{
name = top;
position = "{457, 896}";
}
);
layerId = "93A312F7-B931-4485-B08E-C367313EB5E7";
name = Regular;
paths = (
{
closed = 1;
nodes = (
"689 -317 OFFCURVE",
"784 -76 OFFCURVE",
"784 176 CURVE SMOOTH",
"784 435 OFFCURVE",
"676 716 OFFCURVE",
"480 716 CURVE SMOOTH",
"278 716 OFFCURVE",
"150 438 OFFCURVE",
"150 232 CURVE SMOOTH",
"150 -28 OFFCURVE",
"324 -102 OFFCURVE",
"669 1 CURVE",
"538 -273 OFFCURVE",
"331 -370 OFFCURVE",
"-6 -296 CURVE SMOOTH",
"-15 -294 OFFCURVE",
"-21 -300 OFFCURVE",
"-24 -309 CURVE",
"-44 -377 LINE",
"-46 -385 OFFCURVE",
"-42 -391 OFFCURVE",
"-33 -394 CURVE SMOOTH",
"173 -463 OFFCURVE",
"355 -491 OFFCURVE",
"479 -426 CURVE SMOOTH"
);
},
{
closed = 1;
nodes = (
"522 124 OFFCURVE",
"350 111 OFFCURVE",
"246 181 CURVE",
"240 184 OFFCURVE",
"238 191 OFFCURVE",
"237 199 CURVE",
"230 350 OFFCURVE",
"334 540 OFFCURVE",
"445 540 CURVE SMOOTH",
"552 540 OFFCURVE",
"669 344 OFFCURVE",
"670 159 CURVE"
);
}
);
width = 904;
}
);
unicode = 0648;
userData = {
com.typemytype.robofont.guides = (
{
angle = 90;
isGlobal = 0;
x = 787;
y = 236;
}
);
};
},
{
glyphname = "waw-ar.fina";
lastChange = "2016-02-01 08:54:15 +0000";
layers = (
{
anchors = (
{
name = bottom;
position = "{388, -621}";
},
{
name = top;
position = "{477, 896}";
}
);
layerId = "93A312F7-B931-4485-B08E-C367313EB5E7";
name = Regular;
paths = (
{
closed = 1;
nodes = (
"633 -343 OFFCURVE",
"727 -183 OFFCURVE",
"762 0 CURVE",
"953 0 LINE",
"995 52 OFFCURVE",
"995 104 OFFCURVE",
"953 156 CURVE",
"784 156 LINE",
"790 370 OFFCURVE",
"700 716 OFFCURVE",
"480 716 CURVE SMOOTH",
"278 716 OFFCURVE",
"150 445 OFFCURVE",
"150 239 CURVE SMOOTH",
"150 -21 OFFCURVE",
"320 -33 OFFCURVE",
"665 1 CURVE",
"558 -285 OFFCURVE",
"325 -370 OFFCURVE",
"-12 -296 CURVE SMOOTH",
"-21 -294 OFFCURVE",
"-27 -300 OFFCURVE",
"-30 -309 CURVE",
"-50 -377 LINE",
"-52 -385 OFFCURVE",
"-48 -391 OFFCURVE",
"-39 -394 CURVE SMOOTH",
"167 -463 OFFCURVE",
"349 -491 OFFCURVE",
"473 -426 CURVE SMOOTH"
);
},
{
closed = 1;
nodes = (
"483 156 OFFCURVE",
"345 150 OFFCURVE",
"249 190 CURVE",
"241 193 OFFCURVE",
"238 199 OFFCURVE",
"237 207 CURVE",
"231 357 OFFCURVE",
"334 540 OFFCURVE",
"445 540 CURVE SMOOTH",
"572 540 OFFCURVE",
"669 327 OFFCURVE",
"670 159 CURVE"
);
}
);
width = 953;
}
);
unicode = FEEE;
userData = {
com.typemytype.robofont.guides = (
{
angle = 0;
isGlobal = 0;
x = 1013;
y = 156;
}
);
};
},
{
glyphname = "alefMaksura-ar";
lastChange = "2016-02-01 08:54:15 +0000";
layers = (
{
anchors = (
{
name = bottom;
position = "{627, -686}";
},
{
name = top;
position = "{487, 517}";
}
);
layerId = "93A312F7-B931-4485-B08E-C367313EB5E7";
name = Regular;
paths = (
{
closed = 1;
nodes = (
"842 -531 OFFCURVE",
"1306 -341 OFFCURVE",
"1297 -92 CURVE SMOOTH",
"1295 -26 OFFCURVE",
"1258 -2 OFFCURVE",
"1140 8 CURVE SMOOTH",
"936 26 LINE SMOOTH",
"821 39 OFFCURVE",
"755 75 OFFCURVE",
"772 131 CURVE",
"822 247 OFFCURVE",
"920 345 OFFCURVE",
"1003 401 CURVE SMOOTH",
"1073 448 OFFCURVE",
"1126 437 OFFCURVE",
"1177 409 CURVE SMOOTH",
"1186 404 OFFCURVE",
"1193 407 OFFCURVE",
"1197 417 CURVE",
"1241 514 LINE SMOOTH",
"1244 521 OFFCURVE",
"1244 528 OFFCURVE",
"1239 535 CURVE SMOOTH",
"1211 576 OFFCURVE",
"1160 593 OFFCURVE",
"1109 593 CURVE SMOOTH",
"977 593 OFFCURVE",
"796 409 OFFCURVE",
"718 218 CURVE SMOOTH",
"619 -25 OFFCURVE",
"663 -111 OFFCURVE",
"892 -134 CURVE SMOOTH",
"1209 -165 LINE",
"1020 -291 OFFCURVE",
"781 -362 OFFCURVE",
"580 -359 CURVE SMOOTH",
"341 -355 OFFCURVE",
"197 -236 OFFCURVE",
"285 104 CURVE SMOOTH",
"322 247 LINE",
"324 257 OFFCURVE",
"320 263 OFFCURVE",
"311 265 CURVE SMOOTH",
"247 279 LINE SMOOTH",
"238 281 OFFCURVE",
"231 277 OFFCURVE",
"229 268 CURVE",
"189 115 LINE SMOOTH",
"83 -289 OFFCURVE",
"190 -531 OFFCURVE",
"566 -531 CURVE SMOOTH"
);
}
);
width = 1417;
}
);
unicode = 0649;
},
{
glyphname = "alefMaksura-ar.fina";
lastChange = "2016-02-01 08:54:15 +0000";
layers = (
{
anchors = (
{
name = bottom;
position = "{625, -706}";
},
{
name = top;
position = "{585, 410}";
}
);
layerId = "93A312F7-B931-4485-B08E-C367313EB5E7";
name = Regular;
paths = (
{
closed = 1;
nodes = (
"698 -554 OFFCURVE",
"942 -496 OFFCURVE",
"1106 -391 CURVE SMOOTH",
"1208 -326 OFFCURVE",
"1256 -262 OFFCURVE",
"1256 -165 CURVE SMOOTH",
"1256 -82 OFFCURVE",
"1108 -16 OFFCURVE",
"1034 10 CURVE",
"1093 4 OFFCURVE",
"1324 0 OFFCURVE",
"1371 0 CURVE SMOOTH",
"1411 0 LINE",
"1453 52 OFFCURVE",
"1453 104 OFFCURVE",
"1411 156 CURVE",
"947 156 LINE SMOOTH",
"870 156 OFFCURVE",
"862 157 OFFCURVE",
"824 80 CURVE SMOOTH",
"773 -24 OFFCURVE",
"773 -25 OFFCURVE",
"840 -51 CURVE SMOOTH",
"959 -97 OFFCURVE",
"1083 -152 OFFCURVE",
"1160 -193 CURVE SMOOTH",
"1173 -200 OFFCURVE",
"1173 -205 OFFCURVE",
"1159 -213 CURVE SMOOTH",
"949 -328 OFFCURVE",
"759 -385 OFFCURVE",
"578 -382 CURVE SMOOTH",
"359 -378 OFFCURVE",
"197 -258 OFFCURVE",
"283 81 CURVE SMOOTH",
"331 270 LINE SMOOTH",
"333 278 OFFCURVE",
"329 286 OFFCURVE",
"320 288 CURVE SMOOTH",
"256 302 LINE SMOOTH",
"248 304 OFFCURVE",
"240 300 OFFCURVE",
"238 291 CURVE",
"186 92 LINE SMOOTH",
"79 -316 OFFCURVE",
"208 -554 OFFCURVE",
"564 -554 CURVE SMOOTH"
);
}
);
width = 1411;
}
);
unicode = FEF0;
},
{
glyphname = "yehTail-ar";
lastChange = "2016-02-01 08:54:15 +0000";
layers = (
{
anchors = (
{
name = bottom;
position = "{937, -687}";
},
{
name = top;
position = "{806, 450}";
}
);
layerId = "93A312F7-B931-4485-B08E-C367313EB5E7";
name = Regular;
paths = (
{
closed = 1;
nodes = (
"1217 -531 OFFCURVE",
"1681 -341 OFFCURVE",
"1672 -92 CURVE SMOOTH",
"1670 -26 OFFCURVE",
"1633 -2 OFFCURVE",
"1515 8 CURVE SMOOTH",
"1311 26 LINE SMOOTH",
"1196 39 OFFCURVE",
"1130 75 OFFCURVE",
"1147 131 CURVE",
"1197 247 OFFCURVE",
"1295 345 OFFCURVE",
"1378 401 CURVE SMOOTH",
"1448 448 OFFCURVE",
"1501 437 OFFCURVE",
"1552 409 CURVE SMOOTH",
"1561 404 OFFCURVE",
"1568 407 OFFCURVE",
"1572 417 CURVE",
"1616 514 LINE SMOOTH",
"1619 521 OFFCURVE",
"1619 528 OFFCURVE",
"1614 535 CURVE SMOOTH",
"1586 576 OFFCURVE",
"1535 593 OFFCURVE",
"1484 593 CURVE SMOOTH",
"1352 593 OFFCURVE",
"1171 409 OFFCURVE",
"1093 218 CURVE SMOOTH",
"994 -25 OFFCURVE",
"1038 -111 OFFCURVE",
"1267 -134 CURVE SMOOTH",
"1584 -165 LINE",
"1395 -291 OFFCURVE",
"1156 -362 OFFCURVE",
"955 -359 CURVE SMOOTH",
"759 -356 OFFCURVE",
"629 -278 OFFCURVE",
"635 -59 CURVE SMOOTH",
"640 114 OFFCURVE",
"689 263 OFFCURVE",
"568 225 CURVE SMOOTH",
"395 171 OFFCURVE",
"303 141 OFFCURVE",
"168 101 CURVE SMOOTH",
"159 98 OFFCURVE",
"150 100 OFFCURVE",
"150 90 CURVE SMOOTH",
"150 79 OFFCURVE",
"222 -48 OFFCURVE",
"328 -20 CURVE SMOOTH",
"377 -7 OFFCURVE",
"464 26 OFFCURVE",
"552 56 CURVE",
"492 -323 OFFCURVE",
"580 -531 OFFCURVE",
"941 -531 CURVE SMOOTH"
);
}
);
width = 1792;
}
);
unicode = 06CD;
},
{
glyphname = "yehTail-ar.fina";
lastChange = "2016-02-01 08:54:15 +0000";
layers = (
{
anchors = (
{
name = bottom;
position = "{934, -700}";
},
{
name = top;
position = "{954, 430}";
}
);
layerId = "93A312F7-B931-4485-B08E-C367313EB5E7";
name = Regular;
paths = (
{
closed = 1;
nodes = (
"1075 -554 OFFCURVE",
"1318 -496 OFFCURVE",
"1482 -391 CURVE SMOOTH",
"1584 -326 OFFCURVE",
"1632 -262 OFFCURVE",
"1632 -165 CURVE SMOOTH",
"1632 -82 OFFCURVE",
"1484 -16 OFFCURVE",
"1410 10 CURVE",
"1469 4 OFFCURVE",
"1700 0 OFFCURVE",
"1747 0 CURVE SMOOTH",
"1787 0 LINE",
"1829 52 OFFCURVE",
"1829 104 OFFCURVE",
"1787 156 CURVE",
"1323 156 LINE SMOOTH",
"1246 156 OFFCURVE",
"1238 157 OFFCURVE",
"1200 80 CURVE SMOOTH",
"1149 -24 OFFCURVE",
"1149 -25 OFFCURVE",
"1216 -51 CURVE SMOOTH",
"1335 -97 OFFCURVE",
"1459 -152 OFFCURVE",
"1536 -193 CURVE SMOOTH",
"1549 -200 OFFCURVE",
"1549 -205 OFFCURVE",
"1535 -213 CURVE SMOOTH",
"1325 -328 OFFCURVE",
"1136 -385 OFFCURVE",
"955 -382 CURVE SMOOTH",
"759 -379 OFFCURVE",
"629 -306 OFFCURVE",
"635 -82 CURVE SMOOTH",
"640 91 OFFCURVE",
"680 237 OFFCURVE",
"568 202 CURVE SMOOTH",
"168 78 LINE SMOOTH",
"159 75 OFFCURVE",
"150 77 OFFCURVE",
"150 67 CURVE SMOOTH",
"150 56 OFFCURVE",
"222 -71 OFFCURVE",
"328 -43 CURVE SMOOTH",
"377 -30 OFFCURVE",
"464 3 OFFCURVE",
"552 33 CURVE",
"492 -346 OFFCURVE",
"580 -554 OFFCURVE",
"941 -554 CURVE SMOOTH"
);
}
);
width = 1787;
}
);
},
{
glyphname = "yehbarree-ar";
lastChange = "2016-02-01 08:54:15 +0000";
layers = (
{
anchors = (
{
name = bottom;
position = "{803, -200}";
},
{
name = top;
position = "{733, 881}";
}
);
layerId = "93A312F7-B931-4485-B08E-C367313EB5E7";
name = Regular;
paths = (
{
closed = 1;
nodes = (
"1488 -53 LINE",
"1486 13 OFFCURVE",
"1511 106 OFFCURVE",
"1393 106 CURVE SMOOTH",
"389 107 LINE SMOOTH",
"273 107 OFFCURVE",
"226 144 OFFCURVE",
"248 204 CURVE SMOOTH",
"287 310 OFFCURVE",
"590 379 OFFCURVE",
"706 571 CURVE SMOOTH",
"718 591 OFFCURVE",
"798 534 OFFCURVE",
"821 522 CURVE SMOOTH",
"830 517 OFFCURVE",
"837 520 OFFCURVE",
"841 530 CURVE",
"885 627 LINE SMOOTH",
"888 634 OFFCURVE",
"888 641 OFFCURVE",
"883 648 CURVE SMOOTH",
"855 689 OFFCURVE",
"755 754 OFFCURVE",
"709 731 CURVE SMOOTH",
"646 700 OFFCURVE",
"663 627 OFFCURVE",
"463 513 CURVE SMOOTH",
"330 438 OFFCURVE",
"245 375 OFFCURVE",
"191 249 CURVE SMOOTH",
"107 59 OFFCURVE",
"150 -53 OFFCURVE",
"345 -53 CURVE SMOOTH"
);
}
);
width = 1609;
}
);
unicode = 06D2;
},
{
glyphname = "yehbarree-ar.fina";
lastChange = "2016-02-01 08:54:15 +0000";
layers = (
{
anchors = (
{
name = bottom;
position = "{616, -591}";
},
{
name = top;
position = "{657, 308}";
}
);
layerId = "93A312F7-B931-4485-B08E-C367313EB5E7";
name = Regular;
paths = (
{
closed = 1;
nodes = (
"473 156 OFFCURVE",
"284 67 OFFCURVE",
"191 -149 CURVE SMOOTH",
"107 -339 OFFCURVE",
"150 -441 OFFCURVE",
"345 -441 CURVE SMOOTH",
"1488 -441 LINE",
"1486 -375 OFFCURVE",
"1511 -292 OFFCURVE",
"1393 -292 CURVE SMOOTH",
"389 -291 LINE SMOOTH",
"273 -291 OFFCURVE",
"226 -254 OFFCURVE",
"248 -194 CURVE SMOOTH",
"279 -111 OFFCURVE",
"410 0 OFFCURVE",
"628 0 CURVE SMOOTH",
"876 0 LINE",
"918 52 OFFCURVE",
"918 104 OFFCURVE",
"876 156 CURVE",
"645 156 LINE"
);
}
);
width = 876;
}
);
unicode = FBAF;
},
{
glyphname = "yehbarree-ar.fina.001";
lastChange = "2016-02-01 08:54:15 +0000";
layers = (
{
layerId = "93A312F7-B931-4485-B08E-C367313EB5E7";
name = Regular;
paths = (
{
closed = 1;
nodes = (
"1488 -441 LINE",
"1486 -375 OFFCURVE",
"1511 -292 OFFCURVE",
"1393 -292 CURVE SMOOTH",
"389 -291 LINE SMOOTH",
"273 -291 OFFCURVE",
"226 -254 OFFCURVE",
"248 -194 CURVE SMOOTH",
"279 -111 OFFCURVE",
"506 -48 OFFCURVE",
"598 71 CURVE SMOOTH",
"683 180 OFFCURVE",
"731 175 OFFCURVE",
"785 126 CURVE SMOOTH",
"884 39 OFFCURVE",
"988 0 OFFCURVE",
"1088 0 CURVE SMOOTH",
"1196 0 LINE",
"1238 52 OFFCURVE",
"1238 104 OFFCURVE",
"1196 156 CURVE",
"1115 156 LINE SMOOTH",
"943 156 OFFCURVE",
"918 210 OFFCURVE",
"847 270 CURVE SMOOTH",
"765 340 OFFCURVE",
"704 345 OFFCURVE",
"629 251 CURVE SMOOTH",
"598 213 OFFCURVE",
"551 165 OFFCURVE",
"463 115 CURVE SMOOTH",
"330 40 OFFCURVE",
"245 -23 OFFCURVE",
"191 -149 CURVE SMOOTH",
"107 -339 OFFCURVE",
"150 -441 OFFCURVE",
"345 -441 CURVE SMOOTH"
);
}
);
width = 1196;
}
);
},
{
glyphname = "kashida-ar";
lastChange = "2016-02-01 08:54:15 +0000";
layers = (
{
layerId = "93A312F7-B931-4485-B08E-C367313EB5E7";
name = Regular;
paths = (
{
closed = 1;
nodes = (
"402 0 LINE",
"444 52 OFFCURVE",
"444 104 OFFCURVE",
"402 156 CURVE",
"0 156 LINE SMOOTH",
"-103 156 OFFCURVE",
"-103 0 OFFCURVE",
"0 0 CURVE SMOOTH"
);
}
);
width = 402;
}
);
unicode = 0640;
},
{
glyphname = "lam_alef-ar";
lastChange = "2016-02-01 08:54:15 +0000";
layers = (
{
anchors = (
{
name = bottom_1;
position = "{854, -144}";
},
{
name = bottom_2;
position = "{342, -151}";
},
{
name = caret_1;
position = "{487, 1414}";
},
{
name = top_1;
position = "{843, 1498}";
},
{
name = top_2;
position = "{212, 1307}";
}
);
layerId = "93A312F7-B931-4485-B08E-C367313EB5E7";
name = Regular;
paths = (
{
closed = 1;
nodes = (
"317 -4 OFFCURVE",
"890 -41 OFFCURVE",
"946 122 CURVE SMOOTH",
"1009 305 OFFCURVE",
"924 442 OFFCURVE",
"768 611 CURVE",
"883 862 OFFCURVE",
"872 887 OFFCURVE",
"869 1335 CURVE",
"869 1348 OFFCURVE",
"860 1354 OFFCURVE",
"851 1347 CURVE SMOOTH",
"738 1263 LINE",
"732 1258 OFFCURVE",
"728 1253 OFFCURVE",
"728 1244 CURVE SMOOTH",
"731 833 OFFCURVE",
"763 805 OFFCURVE",
"704 667 CURVE",
"216 1210 LINE SMOOTH",
"208 1219 OFFCURVE",
"199 1217 OFFCURVE",
"195 1205 CURVE SMOOTH",
"151 1073 LINE",
"148 1065 OFFCURVE",
"150 1059 OFFCURVE",
"155 1053 CURVE",
"598 569 LINE",
"308 163 LINE",
"303 157 OFFCURVE",
"297 153 OFFCURVE",
"289 154 CURVE SMOOTH",
"198 164 LINE SMOOTH",
"188 165 OFFCURVE",
"182 159 OFFCURVE",
"184 149 CURVE SMOOTH",
"206 18 LINE",
"207 9 OFFCURVE",
"212 5 OFFCURVE",
"221 4 CURVE SMOOTH"
);
},
{
closed = 1;
nodes = (
"421 152 OFFCURVE",
"417 160 OFFCURVE",
"424 170 CURVE SMOOTH",
"662 515 LINE",
"712 467 OFFCURVE",
"854 309 OFFCURVE",
"893 221 CURVE SMOOTH",
"901 203 OFFCURVE",
"892 189 OFFCURVE",
"873 185 CURVE SMOOTH",
"739 154 OFFCURVE",
"542 146 OFFCURVE",
"433 152 CURVE"
);
}
);
width = 1087;
}
);
unicode = FEFB;
},
{
glyphname = "lam_alef-ar.fina";
lastChange = "2016-02-01 08:54:15 +0000";
layers = (
{
anchors = (
{
name = bottom_1;
position = "{1022, -151}";
},
{
name = bottom_2;
position = "{253, -284}";
},
{
name = caret_1;
position = "{570, 1332}";
},
{
name = top_1;
position = "{992, 1425}";
},
{
name = top_2;
position = "{291, 1214}";
}
);
layerId = "93A312F7-B931-4485-B08E-C367313EB5E7";
name = Regular;
paths = (
{
closed = 1;
nodes = (
"696 -72 OFFCURVE",
"805 34 OFFCURVE",
"839 496 CURVE",
"861 116 OFFCURVE",
"911 0 OFFCURVE",
"1160 0 CURVE SMOOTH",
"1219 0 LINE SMOOTH",
"1227 0 OFFCURVE",
"1232 2 OFFCURVE",
"1237 9 CURVE SMOOTH",
"1270 55 OFFCURVE",
"1270 101 OFFCURVE",
"1237 147 CURVE SMOOTH",
"1232 154 OFFCURVE",
"1227 156 OFFCURVE",
"1219 156 CURVE SMOOTH",
"1172 156 LINE SMOOTH",
"1122 156 OFFCURVE",
"1029 172 OFFCURVE",
"968 203 CURVE",
"933 566 OFFCURVE",
"918 930 OFFCURVE",
"923 1293 CURVE SMOOTH",
"923 1305 OFFCURVE",
"914 1308 OFFCURVE",
"904 1302 CURVE SMOOTH",
"786 1230 OFFCURVE",
"781 1229 OFFCURVE",
"783 1067 CURVE SMOOTH",
"787 771 OFFCURVE",
"777 311 OFFCURVE",
"621 162 CURVE",
"585 394 OFFCURVE",
"323 939 OFFCURVE",
"264 1062 CURVE SMOOTH",
"259 1073 OFFCURVE",
"249 1074 OFFCURVE",
"243 1064 CURVE SMOOTH",
"169 937 LINE SMOOTH",
"165 930 OFFCURVE",
"164 924 OFFCURVE",
"168 916 CURVE SMOOTH",
"300 654 OFFCURVE",
"419 400 OFFCURVE",
"526 144 CURVE SMOOTH",
"539 114 OFFCURVE",
"534 92 OFFCURVE",
"504 81 CURVE SMOOTH",
"419 49 OFFCURVE",
"304 22 OFFCURVE",
"162 -7 CURVE SMOOTH",
"152 -9 OFFCURVE",
"147 -17 OFFCURVE",
"153 -26 CURVE SMOOTH",
"213 -119 LINE",
"217 -126 OFFCURVE",
"223 -131 OFFCURVE",
"232 -129 CURVE"
);
}
);
width = 1230;
}
);
unicode = FEFC;
},
{
glyphname = "allah-ar";
lastChange = "2016-02-01 08:54:15 +0000";
layers = (
{
layerId = "93A312F7-B931-4485-B08E-C367313EB5E7";
name = Regular;
paths = (
{
closed = 1;
nodes = (
"1599 -31 OFFCURVE",
"1710 11 OFFCURVE",
"1753 99 CURVE SMOOTH",
"1813 217 OFFCURVE",
"1819 254 OFFCURVE",
"1788 503 CURVE SMOOTH",
"1734 907 LINE",
"1732 918 OFFCURVE",
"1724 922 OFFCURVE",
"1714 914 CURVE",
"1602 833 OFFCURVE",
"1607 838 OFFCURVE",
"1627 726 CURVE SMOOTH",
"1722 188 LINE",
"1723 180 OFFCURVE",
"1721 174 OFFCURVE",
"1713 169 CURVE",
"1586 96 OFFCURVE",
"1423 82 OFFCURVE",
"1340 178 CURVE SMOOTH",
"1307 216 OFFCURVE",
"1299 254 OFFCURVE",
"1289 447 CURVE SMOOTH",
"1270 804 LINE",
"1269 815 OFFCURVE",
"1262 821 OFFCURVE",
"1252 815 CURVE",
"1155 762 LINE",
"1154 761 LINE",
"1154 760 OFFCURVE",
"1153 757 OFFCURVE",
"1154 749 CURVE",
"1201 186 LINE SMOOTH",
"1202 177 OFFCURVE",
"1199 172 OFFCURVE",
"1191 168 CURVE SMOOTH",
"1132 137 OFFCURVE",
"1018 113 OFFCURVE",
"952 114 CURVE SMOOTH",
"750 116 OFFCURVE",
"750 203 OFFCURVE",
"739 639 CURVE SMOOTH",
"733 898 LINE",
"733 911 OFFCURVE",
"724 914 OFFCURVE",
"714 907 CURVE SMOOTH",
"622 845 LINE",
"615 841 OFFCURVE",
"612 835 OFFCURVE",
"613 826 CURVE",
"624 656 LINE",
"625 648 OFFCURVE",
"621 641 OFFCURVE",
"614 637 CURVE",
"413 538 OFFCURVE",
"170 382 OFFCURVE",
"151 136 CURVE",
"150 129 OFFCURVE",
"150 125 OFFCURVE",
"151 118 CURVE",
"170 34 OFFCURVE",
"310 -3 OFFCURVE",
"449 -7 CURVE SMOOTH",
"622 -7 OFFCURVE",
"633 37 OFFCURVE",
"683 120 CURVE",
"731 13 OFFCURVE",
"830 -27 OFFCURVE",
"941 -26 CURVE SMOOTH",
"1061 -25 OFFCURVE",
"1192 23 OFFCURVE",
"1257 91 CURVE",
"1300 23 OFFCURVE",
"1382 -33 OFFCURVE",
"1495 -32 CURVE SMOOTH"
);
},
{
closed = 1;
nodes = (
"507 110 OFFCURVE",
"288 140 OFFCURVE",
"226 216 CURVE",
"223 220 OFFCURVE",
"223 225 OFFCURVE",
"227 233 CURVE SMOOTH",
"277 330 OFFCURVE",
"448 440 OFFCURVE",
"617 514 CURVE",
"628 518 OFFCURVE",
"635 514 OFFCURVE",
"636 503 CURVE SMOOTH",
"665 190 LINE SMOOTH",
"666 182 OFFCURVE",
"662 175 OFFCURVE",
"654 172 CURVE"
);
},
{
closed = 1;
nodes = (
"1112 931 OFFCURVE",
"1181 945 OFFCURVE",
"1221 977 CURVE",
"1254 951 OFFCURVE",
"1312 947 OFFCURVE",
"1353 953 CURVE SMOOTH",
"1497 975 OFFCURVE",
"1445 1147 OFFCURVE",
"1436 1176 CURVE SMOOTH",
"1429 1201 OFFCURVE",
"1422 1231 OFFCURVE",
"1416 1257 CURVE SMOOTH",
"1414 1267 OFFCURVE",
"1407 1270 OFFCURVE",
"1399 1264 CURVE SMOOTH",
"1369 1241 LINE",
"1363 1236 OFFCURVE",
"1361 1232 OFFCURVE",
"1362 1224 CURVE",
"1412 1062 LINE",
"1365 1043 OFFCURVE",
"1324 1025 OFFCURVE",
"1254 1048 CURVE",
"1245 1187 LINE",
"1244 1194 OFFCURVE",
"1239 1198 OFFCURVE",
"1231 1198 CURVE SMOOTH",
"1204 1198 LINE SMOOTH",
"1197 1198 OFFCURVE",
"1192 1192 OFFCURVE",
"1193 1185 CURVE",
"1194 1045 LINE",
"1148 1028 OFFCURVE",
"1103 1015 OFFCURVE",
"1031 1037 CURVE",
"1040 1199 LINE",
"1041 1207 OFFCURVE",
"1036 1212 OFFCURVE",
"1029 1213 CURVE",
"1012 1214 LINE",
"1004 1215 OFFCURVE",
"998 1210 OFFCURVE",
"998 1202 CURVE",
"987 1063 LINE SMOOTH",
"982 1008 OFFCURVE",
"1001 955 OFFCURVE",
"1053 944 CURVE SMOOTH"
);
},
{
closed = 1;
nodes = (
"1231 1263 LINE",
"1239 1267 OFFCURVE",
"1243 1272 OFFCURVE",
"1243 1281 CURVE SMOOTH",
"1244 1532 LINE SMOOTH",
"1244 1545 OFFCURVE",
"1236 1550 OFFCURVE",
"1226 1545 CURVE",
"1183 1529 LINE SMOOTH",
"1174 1526 OFFCURVE",
"1170 1518 OFFCURVE",
"1171 1509 CURVE",
"1187 1260 LINE SMOOTH",
"1188 1246 OFFCURVE",
"1196 1242 OFFCURVE",
"1207 1249 CURVE"
);
},
{
closed = 1;
nodes = (
"2087 -13 OFFCURVE",
"2097 17 OFFCURVE",
"2097 100 CURVE",
"2090 1321 LINE",
"2090 1337 OFFCURVE",
"2074 1347 OFFCURVE",
"2063 1337 CURVE SMOOTH",
"1958 1245 LINE SMOOTH",
"1948 1236 OFFCURVE",
"1939 1227 OFFCURVE",
"1940 1203 CURVE SMOOTH",
"1991 -13 LINE",
"1992 -25 OFFCURVE",
"2002 -32 OFFCURVE",
"2014 -29 CURVE SMOOTH"
);
}
);
width = 2217;
}
);
unicode = FDF2;
},
{
glyphname = "decimalseparator-ar";
lastChange = "2016-02-01 08:54:15 +0000";
layers = (
{
layerId = "93A312F7-B931-4485-B08E-C367313EB5E7";
name = Regular;
paths = (
{
closed = 1;
nodes = (
"175 -360 OFFCURVE",
"182 -356 OFFCURVE",
"184 -350 CURVE",
"555 615 LINE SMOOTH",
"559 625 OFFCURVE",
"553 637 OFFCURVE",
"542 638 CURVE SMOOTH",
"489 644 LINE",
"483 645 OFFCURVE",
"476 641 OFFCURVE",
"474 635 CURVE",
"101 -330 LINE SMOOTH",
"97 -341 OFFCURVE",
"103 -352 OFFCURVE",
"114 -353 CURVE SMOOTH",
"169 -359 LINE"
);
}
);
width = 656;
}
);
unicode = 066B;
},
{
glyphname = "thousandseparator-ar";
lastChange = "2016-02-01 08:54:15 +0000";
layers = (
{
layerId = "93A312F7-B931-4485-B08E-C367313EB5E7";
name = Regular;
paths = (
{
closed = 1;
nodes = (
"171 14 OFFCURVE",
"176 17 OFFCURVE",
"179 23 CURVE SMOOTH",
"414 490 LINE SMOOTH",
"420 501 OFFCURVE",
"413 513 OFFCURVE",
"401 515 CURVE",
"351 521 LINE",
"345 522 OFFCURVE",
"340 519 OFFCURVE",
"337 513 CURVE SMOOTH",
"102 46 LINE SMOOTH",
"96 35 OFFCURVE",
"103 23 OFFCURVE",
"115 21 CURVE",
"165 15 LINE"
);
}
);
width = 516;
}
);
unicode = 066C;
},
{
glyphname = "zero-ar";
lastChange = "2016-02-01 08:54:15 +0000";
layers = (
{
layerId = "93A312F7-B931-4485-B08E-C367313EB5E7";
name = Regular;
paths = (
{
closed = 1;
nodes = (
"337 149 OFFCURVE",
"393 150 OFFCURVE",
"430 188 CURVE SMOOTH",
"597 359 LINE SMOOTH",
"633 396 OFFCURVE",
"633 451 OFFCURVE",
"596 488 CURVE SMOOTH",
"429 655 LINE SMOOTH",
"392 692 OFFCURVE",
"337 692 OFFCURVE",
"300 656 CURVE SMOOTH",
"129 489 LINE SMOOTH",
"91 452 OFFCURVE",
"90 396 OFFCURVE",
"128 358 CURVE SMOOTH",
"299 187 LINE SMOOTH"
);
},
{
closed = 1;
nodes = (
"212 422 LINE",
"363 569 LINE",
"510 422 LINE",
"363 271 LINE"
);
}
);
width = 724;
}
);
unicode = 0660;
userData = {
com.typemytype.robofont.guides = (
{
angle = 90;
isGlobal = 0;
x = "-273";
y = 474;
}
);
};
},
{
glyphname = "one-ar";
lastChange = "2016-02-01 08:54:15 +0000";
layers = (
{
layerId = "93A312F7-B931-4485-B08E-C367313EB5E7";
name = Regular;
paths = (
{
closed = 1;
nodes = (
"380 -3 LINE SMOOTH",
"388 -1 OFFCURVE",
"393 5 OFFCURVE",
"393 14 CURVE",
"389 510 OFFCURVE",
"375 802 OFFCURVE",
"226 1097 CURVE",
"221 1108 OFFCURVE",
"212 1109 OFFCURVE",
"205 1099 CURVE SMOOTH",
"104 960 LINE SMOOTH",
"99 953 OFFCURVE",
"99 947 OFFCURVE",
"103 939 CURVE",
"291 600 OFFCURVE",
"293 232 OFFCURVE",
"297 -6 CURVE SMOOTH",
"297 -17 OFFCURVE",
"302 -22 OFFCURVE",
"313 -19 CURVE SMOOTH"
);
}
);
width = 493;
}
);
unicode = 0661;
},
{
glyphname = "two-ar";
lastChange = "2016-02-01 08:54:15 +0000";
layers = (
{
layerId = "93A312F7-B931-4485-B08E-C367313EB5E7";
name = Regular;
paths = (
{
closed = 1;
nodes = (
"380 -3 LINE SMOOTH",
"388 -1 OFFCURVE",
"393 4 OFFCURVE",
"393 13 CURVE SMOOTH",
"399 226 OFFCURVE",
"389 457 OFFCURVE",
"351 701 CURVE SMOOTH",
"349 712 OFFCURVE",
"355 717 OFFCURVE",
"366 715 CURVE SMOOTH",
"596 673 OFFCURVE",
"749 785 OFFCURVE",
"758 1098 CURVE SMOOTH",
"758 1109 OFFCURVE",
"752 1111 OFFCURVE",
"742 1113 CURVE SMOOTH",
"675 1125 LINE",
"666 1127 OFFCURVE",
"661 1118 OFFCURVE",
"660 1109 CURVE",
"648 904 OFFCURVE",
"501 870 OFFCURVE",
"354 910 CURVE SMOOTH",
"347 912 OFFCURVE",
"342 915 OFFCURVE",
"337 920 CURVE",
"305 956 OFFCURVE",
"266 1026 OFFCURVE",
"226 1098 CURVE",
"221 1108 OFFCURVE",
"212 1109 OFFCURVE",
"205 1099 CURVE SMOOTH",
"104 960 LINE SMOOTH",
"99 953 OFFCURVE",
"99 947 OFFCURVE",
"103 939 CURVE",
"291 600 OFFCURVE",
"293 232 OFFCURVE",
"297 -6 CURVE SMOOTH",
"297 -17 OFFCURVE",
"302 -22 OFFCURVE",
"313 -19 CURVE SMOOTH"
);
}
);
width = 858;
}
);
unicode = 0662;
},
{
glyphname = "three-ar";
lastChange = "2016-02-01 08:54:15 +0000";
layers = (
{
layerId = "93A312F7-B931-4485-B08E-C367313EB5E7";
name = Regular;
paths = (
{
closed = 1;
nodes = (
"380 -3 LINE SMOOTH",
"388 -1 OFFCURVE",
"393 5 OFFCURVE",
"393 14 CURVE",
"390 306 OFFCURVE",
"401 414 OFFCURVE",
"348 719 CURVE",
"469 692 OFFCURVE",
"567 718 OFFCURVE",
"619 790 CURVE",
"798 665 OFFCURVE",
"994 781 OFFCURVE",
"989 1005 CURVE SMOOTH",
"986 1134 LINE",
"986 1144 OFFCURVE",
"981 1148 OFFCURVE",
"972 1149 CURVE SMOOTH",
"919 1155 LINE SMOOTH",
"909 1156 OFFCURVE",
"903 1151 OFFCURVE",
"903 1141 CURVE SMOOTH",
"903 942 OFFCURVE",
"854 867 OFFCURVE",
"658 921 CURVE",
"662 1133 LINE SMOOTH",
"662 1142 OFFCURVE",
"656 1148 OFFCURVE",
"647 1148 CURVE",
"594 1150 LINE",
"585 1150 OFFCURVE",
"579 1145 OFFCURVE",
"579 1134 CURVE SMOOTH",
"575 976 OFFCURVE",
"562 891 OFFCURVE",
"443 888 CURVE SMOOTH",
"309 883 OFFCURVE",
"283 964 OFFCURVE",
"226 1098 CURVE SMOOTH",
"222 1108 OFFCURVE",
"212 1109 OFFCURVE",
"205 1099 CURVE SMOOTH",
"104 960 LINE SMOOTH",
"99 953 OFFCURVE",
"99 947 OFFCURVE",
"103 939 CURVE",
"291 600 OFFCURVE",
"293 232 OFFCURVE",
"297 -6 CURVE SMOOTH",
"297 -17 OFFCURVE",
"302 -22 OFFCURVE",
"313 -19 CURVE SMOOTH"
);
}
);
width = 1089;
}
);
unicode = 0663;
},
{
glyphname = "four-ar";
lastChange = "2016-02-01 08:54:15 +0000";
layers = (
{
layerId = "93A312F7-B931-4485-B08E-C367313EB5E7";
name = Regular;
paths = (
{
closed = 1;
nodes = (
"711 22 OFFCURVE",
"716 26 OFFCURVE",
"718 35 CURVE",
"758 172 LINE",
"761 184 OFFCURVE",
"756 189 OFFCURVE",
"744 187 CURVE SMOOTH",
"523 147 OFFCURVE",
"191 153 OFFCURVE",
"191 244 CURVE SMOOTH",
"191 303 OFFCURVE",
"388 445 OFFCURVE",
"542 526 CURVE SMOOTH",
"550 530 OFFCURVE",
"553 537 OFFCURVE",
"551 545 CURVE",
"524 675 LINE",
"522 683 OFFCURVE",
"517 688 OFFCURVE",
"508 689 CURVE SMOOTH",
"427 698 OFFCURVE",
"304 721 OFFCURVE",
"224 783 CURVE",
"297 863 OFFCURVE",
"411 941 OFFCURVE",
"542 1013 CURVE",
"550 1017 OFFCURVE",
"553 1022 OFFCURVE",
"553 1031 CURVE SMOOTH",
"556 1147 LINE SMOOTH",
"556 1158 OFFCURVE",
"549 1163 OFFCURVE",
"539 1158 CURVE SMOOTH",
"325 1045 OFFCURVE",
"133 894 OFFCURVE",
"133 706 CURVE SMOOTH",
"133 610 OFFCURVE",
"281 575 OFFCURVE",
"368 558 CURVE",
"242 471 OFFCURVE",
"101 317 OFFCURVE",
"100 166 CURVE SMOOTH",
"98 -65 OFFCURVE",
"524 -8 OFFCURVE",
"703 21 CURVE"
);
}
);
width = 859;
}
);
unicode = 0664;
},
{
glyphname = "five-ar";
lastChange = "2016-02-01 08:54:15 +0000";
layers = (
{
layerId = "93A312F7-B931-4485-B08E-C367313EB5E7";
name = Regular;
paths = (
{
closed = 1;
nodes = (
"569 111 OFFCURVE",
"710 314 OFFCURVE",
"710 574 CURVE SMOOTH",
"710 786 OFFCURVE",
"536 955 OFFCURVE",
"387 955 CURVE SMOOTH",
"209 955 OFFCURVE",
"100 612 OFFCURVE",
"100 417 CURVE SMOOTH",
"100 188 OFFCURVE",
"189 120 OFFCURVE",
"317 117 CURVE SMOOTH"
);
},
{
closed = 1;
nodes = (
"259 300 OFFCURVE",
"182 351 OFFCURVE",
"182 462 CURVE SMOOTH",
"182 535 OFFCURVE",
"208 759 OFFCURVE",
"343 759 CURVE SMOOTH",
"449 759 OFFCURVE",
"625 618 OFFCURVE",
"625 482 CURVE SMOOTH",
"625 410 OFFCURVE",
"486 298 OFFCURVE",
"368 299 CURVE SMOOTH"
);
}
);
width = 810;
}
);
unicode = 0665;
},
{
glyphname = "six-ar";
lastChange = "2016-02-01 08:54:15 +0000";
layers = (
{
layerId = "93A312F7-B931-4485-B08E-C367313EB5E7";
name = Regular;
paths = (
{
closed = 1;
nodes = (
"806 67 LINE",
"812 73 OFFCURVE",
"814 80 OFFCURVE",
"810 88 CURVE SMOOTH",
"686 350 OFFCURVE",
"666 633 OFFCURVE",
"706 933 CURVE SMOOTH",
"707 940 OFFCURVE",
"707 946 OFFCURVE",
"705 952 CURVE",
"672 1077 LINE",
"670 1086 OFFCURVE",
"663 1090 OFFCURVE",
"654 1089 CURVE SMOOTH",
"503 1076 OFFCURVE",
"271 1072 OFFCURVE",
"122 1115 CURVE SMOOTH",
"112 1118 OFFCURVE",
"105 1113 OFFCURVE",
"105 1103 CURVE SMOOTH",
"100 944 LINE SMOOTH",
"100 935 OFFCURVE",
"104 930 OFFCURVE",
"113 927 CURVE",
"244 891 OFFCURVE",
"478 897 OFFCURVE",
"611 914 CURVE",
"570 558 OFFCURVE",
"562 282 OFFCURVE",
"678 -23 CURVE SMOOTH",
"682 -33 OFFCURVE",
"690 -36 OFFCURVE",
"699 -28 CURVE SMOOTH"
);
}
);
width = 912;
}
);
unicode = 0666;
},
{
glyphname = "seven-ar";
lastChange = "2016-02-01 08:54:15 +0000";
layers = (
{
layerId = "93A312F7-B931-4485-B08E-C367313EB5E7";
name = Regular;
paths = (
{
closed = 1;
nodes = (
"633 11 LINE SMOOTH",
"640 14 OFFCURVE",
"645 18 OFFCURVE",
"646 26 CURVE",
"705 330 OFFCURVE",
"794 701 OFFCURVE",
"947 1020 CURVE",
"950 1028 OFFCURVE",
"949 1034 OFFCURVE",
"945 1041 CURVE",
"877 1142 LINE",
"871 1152 OFFCURVE",
"862 1151 OFFCURVE",
"857 1141 CURVE SMOOTH",
"720 869 OFFCURVE",
"643 548 OFFCURVE",
"581 259 CURVE",
"543 575 OFFCURVE",
"345 918 OFFCURVE",
"221 1117 CURVE SMOOTH",
"215 1127 OFFCURVE",
"206 1127 OFFCURVE",
"200 1118 CURVE",
"104 989 LINE SMOOTH",
"99 982 OFFCURVE",
"98 976 OFFCURVE",
"103 968 CURVE SMOOTH",
"302 650 OFFCURVE",
"424 468 OFFCURVE",
"523 -14 CURVE SMOOTH",
"525 -25 OFFCURVE",
"532 -29 OFFCURVE",
"541 -25 CURVE"
);
}
);
width = 1049;
}
);
unicode = 0667;
},
{
glyphname = "eight-ar";
lastChange = "2016-02-01 08:54:15 +0000";
layers = (
{
layerId = "93A312F7-B931-4485-B08E-C367313EB5E7";
name = Regular;
paths = (
{
closed = 1;
nodes = (
"178 -32 OFFCURVE",
"187 -32 OFFCURVE",
"192 -20 CURVE SMOOTH",
"310 252 OFFCURVE",
"406 591 OFFCURVE",
"448 840 CURVE",
"486 583 OFFCURVE",
"684 184 OFFCURVE",
"808 -18 CURVE SMOOTH",
"814 -28 OFFCURVE",
"823 -28 OFFCURVE",
"829 -19 CURVE",
"925 110 LINE SMOOTH",
"930 117 OFFCURVE",
"931 123 OFFCURVE",
"926 131 CURVE",
"728 411 OFFCURVE",
"605 669 OFFCURVE",
"507 1131 CURVE SMOOTH",
"505 1142 OFFCURVE",
"496 1145 OFFCURVE",
"487 1138 CURVE SMOOTH",
"403 1075 LINE",
"397 1071 OFFCURVE",
"394 1065 OFFCURVE",
"393 1057 CURVE SMOOTH",
"351 764 OFFCURVE",
"246 400 OFFCURVE",
"102 99 CURVE",
"99 91 OFFCURVE",
"100 85 OFFCURVE",
"104 78 CURVE",
"171 -22 LINE SMOOTH"
);
}
);
width = 1029;
}
);
unicode = 0668;
},
{
glyphname = "nine-ar";
lastChange = "2016-02-01 08:54:15 +0000";
layers = (
{
layerId = "93A312F7-B931-4485-B08E-C367313EB5E7";
name = Regular;
paths = (
{
closed = 1;
nodes = (
"766 101 LINE",
"771 107 OFFCURVE",
"772 113 OFFCURVE",
"769 121 CURVE",
"686 296 OFFCURVE",
"654 470 OFFCURVE",
"639 666 CURVE SMOOTH",
"625 867 OFFCURVE",
"603 1146 OFFCURVE",
"375 1146 CURVE SMOOTH",
"205 1146 OFFCURVE",
"100 904 OFFCURVE",
"100 729 CURVE SMOOTH",
"100 542 OFFCURVE",
"222 481 OFFCURVE",
"343 485 CURVE SMOOTH",
"418 487 OFFCURVE",
"494 515 OFFCURVE",
"538 552 CURVE",
"547 359 OFFCURVE",
"562 177 OFFCURVE",
"633 -21 CURVE SMOOTH",
"637 -32 OFFCURVE",
"645 -33 OFFCURVE",
"653 -25 CURVE"
);
},
{
closed = 1;
nodes = (
"395 650 OFFCURVE",
"302 641 OFFCURVE",
"204 686 CURVE SMOOTH",
"198 689 OFFCURVE",
"194 693 OFFCURVE",
"193 701 CURVE SMOOTH",
"173 831 OFFCURVE",
"252 983 OFFCURVE",
"362 983 CURVE SMOOTH",
"451 983 OFFCURVE",
"516 847 OFFCURVE",
"527 695 CURVE",
"528 686 OFFCURVE",
"523 680 OFFCURVE",
"514 678 CURVE SMOOTH"
);
}
);
width = 871;
}
);
unicode = 0669;
},
{
glyphname = "four-persian";
lastChange = "2016-02-01 08:54:15 +0000";
layers = (
{
layerId = "93A312F7-B931-4485-B08E-C367313EB5E7";
name = Regular;
paths = (
{
closed = 1;
nodes = (
"379 -3 LINE SMOOTH",
"387 -1 OFFCURVE",
"392 4 OFFCURVE",
"392 14 CURVE",
"390 264 OFFCURVE",
"385 443 OFFCURVE",
"362 616 CURVE",
"410 596 OFFCURVE",
"472 585 OFFCURVE",
"537 584 CURVE SMOOTH",
"669 582 OFFCURVE",
"814 612 OFFCURVE",
"883 634 CURVE",
"891 637 OFFCURVE",
"894 642 OFFCURVE",
"896 650 CURVE",
"921 771 LINE",
"923 783 OFFCURVE",
"917 788 OFFCURVE",
"906 786 CURVE SMOOTH",
"780 759 OFFCURVE",
"637 743 OFFCURVE",
"547 748 CURVE",
"541 749 OFFCURVE",
"537 752 OFFCURVE",
"535 758 CURVE SMOOTH",
"452 1003 LINE SMOOTH",
"449 1012 OFFCURVE",
"453 1019 OFFCURVE",
"461 1022 CURVE SMOOTH",
"571 1061 OFFCURVE",
"675 1048 OFFCURVE",
"795 1031 CURVE",
"805 1030 OFFCURVE",
"811 1036 OFFCURVE",
"810 1046 CURVE",
"796 1148 LINE SMOOTH",
"795 1157 OFFCURVE",
"791 1161 OFFCURVE",
"783 1164 CURVE SMOOTH",
"667 1204 OFFCURVE",
"458 1208 OFFCURVE",
"387 1086 CURVE SMOOTH",
"342 1009 OFFCURVE",
"341 891 OFFCURVE",
"404 754 CURVE",
"321 759 OFFCURVE",
"266 961 OFFCURVE",
"222 1076 CURVE SMOOTH",
"218 1086 OFFCURVE",
"209 1087 OFFCURVE",
"202 1078 CURVE SMOOTH",
"104 960 LINE",
"99 953 OFFCURVE",
"98 947 OFFCURVE",
"102 939 CURVE SMOOTH",
"283 600 OFFCURVE",
"292 232 OFFCURVE",
"296 -6 CURVE SMOOTH",
"296 -17 OFFCURVE",
"301 -22 OFFCURVE",
"312 -19 CURVE SMOOTH"
);
}
);
width = 1021;
}
);
unicode = 06F4;
},
{
glyphname = "four-persian.urdu";
lastChange = "2016-02-01 08:54:15 +0000";
layers = (
{
layerId = "93A312F7-B931-4485-B08E-C367313EB5E7";
name = Regular;
paths = (
{
closed = 1;
nodes = (
"449 -39 OFFCURVE",
"459 -39 OFFCURVE",
"464 -27 CURVE SMOOTH",
"532 125 LINE",
"535 133 OFFCURVE",
"535 137 OFFCURVE",
"532 145 CURVE",
"263 752 LINE SMOOTH",
"157 982 OFFCURVE",
"189 1097 OFFCURVE",
"281 1097 CURVE SMOOTH",
"397 1098 OFFCURVE",
"518 915 OFFCURVE",
"561 777 CURVE SMOOTH",
"564 767 OFFCURVE",
"570 763 OFFCURVE",
"580 767 CURVE SMOOTH",
"648 792 LINE",
"655 795 OFFCURVE",
"659 799 OFFCURVE",
"662 806 CURVE SMOOTH",
"712 927 OFFCURVE",
"770 1027 OFFCURVE",
"911 1137 CURVE SMOOTH",
"917 1142 OFFCURVE",
"920 1147 OFFCURVE",
"919 1156 CURVE SMOOTH",
"908 1263 LINE SMOOTH",
"907 1275 OFFCURVE",
"899 1279 OFFCURVE",
"889 1272 CURVE SMOOTH",
"799 1205 OFFCURVE",
"705 1100 OFFCURVE",
"640 962 CURVE",
"557 1199 OFFCURVE",
"323 1386 OFFCURVE",
"180 1137 CURVE SMOOTH",
"48 912 OFFCURVE",
"104 745 OFFCURVE",
"175 584 CURVE SMOOTH",
"444 -27 LINE SMOOTH"
);
}
);
width = 1019;
}
);
},
{
glyphname = "five-persian";
lastChange = "2016-02-01 08:54:15 +0000";
layers = (
{
layerId = "93A312F7-B931-4485-B08E-C367313EB5E7";
name = Regular;
paths = (
{
closed = 1;
nodes = (
"694 -18 OFFCURVE",
"794 131 OFFCURVE",
"802 265 CURVE SMOOTH",
"818 514 OFFCURVE",
"627 739 OFFCURVE",
"367 1052 CURVE SMOOTH",
"360 1061 OFFCURVE",
"351 1060 OFFCURVE",
"346 1050 CURVE SMOOTH",
"273 911 LINE",
"269 904 OFFCURVE",
"269 898 OFFCURVE",
"275 891 CURVE SMOOTH",
"350 807 LINE",
"252 675 OFFCURVE",
"100 452 OFFCURVE",
"100 206 CURVE SMOOTH",
"100 59 OFFCURVE",
"166 -12 OFFCURVE",
"252 -14 CURVE SMOOTH",
"310 -15 OFFCURVE",
"371 22 OFFCURVE",
"415 107 CURVE",
"444 2 OFFCURVE",
"513 -21 OFFCURVE",
"572 -20 CURVE SMOOTH"
);
},
{
closed = 1;
nodes = (
"545 140 OFFCURVE",
"488 168 OFFCURVE",
"477 264 CURVE SMOOTH",
"474 288 OFFCURVE",
"468 301 OFFCURVE",
"458 297 CURVE",
"396 276 LINE SMOOTH",
"388 273 OFFCURVE",
"384 268 OFFCURVE",
"382 260 CURVE",
"371 191 OFFCURVE",
"331 147 OFFCURVE",
"286 147 CURVE SMOOTH",
"230 147 OFFCURVE",
"176 188 OFFCURVE",
"176 263 CURVE SMOOTH",
"176 415 OFFCURVE",
"342 659 OFFCURVE",
"415 735 CURVE",
"540 595 OFFCURVE",
"701 372 OFFCURVE",
"730 255 CURVE",
"704 188 OFFCURVE",
"636 141 OFFCURVE",
"590 141 CURVE SMOOTH"
);
}
);
width = 903;
}
);
unicode = 06F5;
},
{
glyphname = "six-persian";
lastChange = "2016-02-01 08:54:15 +0000";
layers = (
{
layerId = "93A312F7-B931-4485-B08E-C367313EB5E7";
name = Regular;
paths = (
{
closed = 1;
nodes = (
"225 -33 OFFCURVE",
"234 -33 OFFCURVE",
"239 -23 CURVE",
"382 204 OFFCURVE",
"556 503 OFFCURVE",
"895 790 CURVE",
"906 798 OFFCURVE",
"910 806 OFFCURVE",
"909 814 CURVE SMOOTH",
"893 960 LINE SMOOTH",
"892 973 OFFCURVE",
"884 975 OFFCURVE",
"874 967 CURVE SMOOTH",
"723 844 OFFCURVE",
"589 673 OFFCURVE",
"527 608 CURVE",
"523 603 OFFCURVE",
"518 602 OFFCURVE",
"512 605 CURVE",
"373 665 OFFCURVE",
"231 788 OFFCURVE",
"198 861 CURVE",
"256 989 OFFCURVE",
"411 1055 OFFCURVE",
"592 1024 CURVE SMOOTH",
"602 1022 OFFCURVE",
"608 1026 OFFCURVE",
"609 1037 CURVE",
"614 1127 LINE",
"615 1136 OFFCURVE",
"611 1141 OFFCURVE",
"602 1144 CURVE SMOOTH",
"305 1239 OFFCURVE",
"120 1056 OFFCURVE",
"101 829 CURVE SMOOTH",
"87 666 OFFCURVE",
"270 538 OFFCURVE",
"412 489 CURVE",
"314 343 OFFCURVE",
"224 187 OFFCURVE",
"156 61 CURVE SMOOTH",
"152 53 OFFCURVE",
"153 47 OFFCURVE",
"159 40 CURVE SMOOTH",
"218 -25 LINE SMOOTH"
);
}
);
width = 1009;
}
);
unicode = 06F6;
},
{
glyphname = "seven-persian.urdu";
lastChange = "2016-02-01 08:54:15 +0000";
layers = (
{
layerId = "93A312F7-B931-4485-B08E-C367313EB5E7";
name = Regular;
paths = (
{
closed = 1;
nodes = (
"366 -25 OFFCURVE",
"589 -23 OFFCURVE",
"798 9 CURVE SMOOTH",
"806 10 OFFCURVE",
"810 15 OFFCURVE",
"813 22 CURVE",
"861 157 LINE SMOOTH",
"865 169 OFFCURVE",
"859 175 OFFCURVE",
"848 173 CURVE SMOOTH",
"642 137 OFFCURVE",
"385 132 OFFCURVE",
"180 165 CURVE",
"180 202 OFFCURVE",
"214 296 OFFCURVE",
"284 396 CURVE SMOOTH",
"418 584 OFFCURVE",
"573 760 OFFCURVE",
"738 964 CURVE",
"743 971 OFFCURVE",
"744 977 OFFCURVE",
"743 984 CURVE SMOOTH",
"721 1122 LINE SMOOTH",
"719 1135 OFFCURVE",
"710 1138 OFFCURVE",
"702 1127 CURVE",
"545 929 OFFCURVE",
"269 632 OFFCURVE",
"159 399 CURVE SMOOTH",
"103 280 OFFCURVE",
"86 150 OFFCURVE",
"113 20 CURVE SMOOTH",
"115 11 OFFCURVE",
"120 6 OFFCURVE",
"129 5 CURVE SMOOTH"
);
}
);
width = 962;
}
);
},
{
glyphname = asterisk;
lastChange = "2016-02-01 08:54:15 +0000";
layers = (
{
layerId = "93A312F7-B931-4485-B08E-C367313EB5E7";
name = Regular;
paths = (
{
closed = 1;
nodes = (
"479 86 OFFCURVE",
"504 111 OFFCURVE",
"503 142 CURVE SMOOTH",
"495 322 LINE",
"616 189 LINE SMOOTH",
"636 167 OFFCURVE",
"673 166 OFFCURVE",
"695 187 CURVE",
"715 209 OFFCURVE",
"715 245 OFFCURVE",
"694 266 CURVE",
"560 387 LINE",
"740 379 LINE SMOOTH",
"770 377 OFFCURVE",
"797 403 OFFCURVE",
"796 434 CURVE",
"796 465 OFFCURVE",
"771 490 OFFCURVE",
"740 489 CURVE SMOOTH",
"560 481 LINE",
"694 602 LINE SMOOTH",
"715 622 OFFCURVE",
"716 659 OFFCURVE",
"695 681 CURVE",
"673 701 OFFCURVE",
"637 701 OFFCURVE",
"616 679 CURVE SMOOTH",
"498 550 LINE",
"506 726 LINE",
"509 756 OFFCURVE",
"482 783 OFFCURVE",
"451 782 CURVE SMOOTH",
"421 782 OFFCURVE",
"396 757 OFFCURVE",
"397 726 CURVE SMOOTH",
"404 549 LINE",
"282 682 LINE SMOOTH",
"263 703 OFFCURVE",
"225 705 OFFCURVE",
"205 683 CURVE",
"183 661 OFFCURVE",
"183 625 OFFCURVE",
"205 604 CURVE SMOOTH",
"340 481 LINE",
"156 489 LINE SMOOTH",
"126 491 OFFCURVE",
"99 465 OFFCURVE",
"100 434 CURVE SMOOTH",
"100 403 OFFCURVE",
"125 378 OFFCURVE",
"156 379 CURVE SMOOTH",
"336 387 LINE",
"203 266 LINE",
"180 247 OFFCURVE",
"180 209 OFFCURVE",
"201 187 CURVE",
"223 167 OFFCURVE",
"259 167 OFFCURVE",
"280 189 CURVE SMOOTH",
"401 322 LINE",
"393 142 LINE SMOOTH",
"391 112 OFFCURVE",
"417 85 OFFCURVE",
"448 86 CURVE SMOOTH"
);
},
{
closed = 1;
nodes = (
"407 358 OFFCURVE",
"372 393 OFFCURVE",
"372 434 CURVE SMOOTH",
"372 475 OFFCURVE",
"407 510 OFFCURVE",
"448 510 CURVE SMOOTH",
"489 510 OFFCURVE",
"524 475 OFFCURVE",
"524 434 CURVE SMOOTH",
"524 394 OFFCURVE",
"488 358 OFFCURVE",
"448 358 CURVE SMOOTH"
);
}
);
width = 896;
}
);
unicode = 002A;
},
{
glyphname = backslash;
lastChange = "2016-02-01 08:54:15 +0000";
layers = (
{
layerId = "93A312F7-B931-4485-B08E-C367313EB5E7";
name = Regular;
paths = (
{
closed = 1;
nodes = (
"768 -342 LINE SMOOTH",
"781 -342 OFFCURVE",
"790 -331 OFFCURVE",
"785 -318 CURVE SMOOTH",
"197 1201 LINE SMOOTH",
"195 1207 OFFCURVE",
"190 1210 OFFCURVE",
"185 1210 CURVE SMOOTH",
"118 1210 LINE SMOOTH",
"105 1210 OFFCURVE",
"96 1199 OFFCURVE",
"101 1186 CURVE SMOOTH",
"689 -333 LINE SMOOTH",
"691 -339 OFFCURVE",
"696 -342 OFFCURVE",
"701 -342 CURVE SMOOTH"
);
}
);
width = 886;
}
);
unicode = 005C;
},
{
glyphname = bullet;
lastChange = "2016-02-01 08:54:15 +0000";
layers = (
{
layerId = "93A312F7-B931-4485-B08E-C367313EB5E7";
name = Regular;
paths = (
{
closed = 1;
nodes = (
"606 108 OFFCURVE",
"752 254 OFFCURVE",
"752 435 CURVE SMOOTH",
"752 615 OFFCURVE",
"606 761 OFFCURVE",
"426 761 CURVE SMOOTH",
"246 761 OFFCURVE",
"100 615 OFFCURVE",
"100 435 CURVE SMOOTH",
"100 254 OFFCURVE",
"246 108 OFFCURVE",
"426 108 CURVE SMOOTH"
);
}
);
width = 852;
}
);
unicode = 2022;
},
{
glyphname = comma;
lastChange = "2016-02-01 08:54:15 +0000";
layers = (
{
layerId = "93A312F7-B931-4485-B08E-C367313EB5E7";
name = Regular;
paths = (
{
closed = 1;
nodes = (
"262 -107 OFFCURVE",
"285 -53 OFFCURVE",
"286 171 CURVE SMOOTH",
"286 181 OFFCURVE",
"280 187 OFFCURVE",
"271 187 CURVE SMOOTH",
"115 187 LINE SMOOTH",
"106 187 OFFCURVE",
"100 181 OFFCURVE",
"100 172 CURVE SMOOTH",
"100 15 LINE SMOOTH",
"100 6 OFFCURVE",
"106 0 OFFCURVE",
"115 0 CURVE SMOOTH",
"198 0 LINE SMOOTH",
"208 0 OFFCURVE",
"214 -6 OFFCURVE",
"213 -16 CURVE",
"205 -69 OFFCURVE",
"175 -107 OFFCURVE",
"143 -138 CURVE SMOOTH",
"136 -145 OFFCURVE",
"136 -152 OFFCURVE",
"141 -159 CURVE SMOOTH",
"153 -175 LINE",
"159 -182 OFFCURVE",
"166 -185 OFFCURVE",
"174 -179 CURVE"
);
}
);
width = 386;
}
);
unicode = 002C;
},
{
glyphname = exclam;
lastChange = "2016-02-01 08:54:15 +0000";
layers = (
{
components = (
{
name = period;
transform = "{0.803, 0, 0, 0.803, 27, -23}";
}
);
layerId = "93A312F7-B931-4485-B08E-C367313EB5E7";
name = Regular;
paths = (
{
closed = 1;
nodes = (
"264 381 LINE",
"271 385 OFFCURVE",
"275 389 OFFCURVE",
"275 398 CURVE",
"270 1216 LINE",
"270 1227 OFFCURVE",
"263 1232 OFFCURVE",
"253 1228 CURVE",
"138 1188 LINE SMOOTH",
"130 1185 OFFCURVE",
"127 1180 OFFCURVE",
"127 1171 CURVE",
"172 336 LINE"
);
}
);
width = 452;
}
);
unicode = 0021;
},
{
glyphname = numbersign;
lastChange = "2016-02-01 08:54:15 +0000";
layers = (
{
layerId = "93A312F7-B931-4485-B08E-C367313EB5E7";
name = Regular;
paths = (
{
closed = 1;
nodes = (
"361 30 LINE SMOOTH",
"368 30 OFFCURVE",
"375 35 OFFCURVE",
"376 43 CURVE SMOOTH",
"421 353 LINE",
"658 353 LINE",
"614 48 LINE",
"613 38 OFFCURVE",
"620 30 OFFCURVE",
"630 30 CURVE SMOOTH",
"696 30 LINE SMOOTH",
"703 30 OFFCURVE",
"710 35 OFFCURVE",
"711 43 CURVE SMOOTH",
"756 353 LINE",
"996 353 LINE SMOOTH",
"1003 353 OFFCURVE",
"1009 357 OFFCURVE",
"1010 365 CURVE",
"1021 427 LINE SMOOTH",
"1023 437 OFFCURVE",
"1015 446 OFFCURVE",
"1005 446 CURVE SMOOTH",
"770 446 LINE",
"814 755 LINE",
"1070 755 LINE SMOOTH",
"1077 755 OFFCURVE",
"1083 759 OFFCURVE",
"1084 767 CURVE",
"1095 829 LINE SMOOTH",
"1097 839 OFFCURVE",
"1089 848 OFFCURVE",
"1079 848 CURVE SMOOTH",
"828 848 LINE",
"874 1166 LINE",
"875 1176 OFFCURVE",
"868 1184 OFFCURVE",
"858 1184 CURVE SMOOTH",
"792 1184 LINE SMOOTH",
"785 1184 OFFCURVE",
"778 1179 OFFCURVE",
"777 1171 CURVE SMOOTH",
"730 848 LINE",
"493 848 LINE",
"539 1166 LINE",
"540 1176 OFFCURVE",
"533 1184 OFFCURVE",
"523 1184 CURVE SMOOTH",
"457 1184 LINE SMOOTH",
"450 1184 OFFCURVE",
"443 1179 OFFCURVE",
"442 1171 CURVE SMOOTH",
"395 848 LINE",
"185 848 LINE SMOOTH",
"178 848 OFFCURVE",
"171 843 OFFCURVE",
"170 835 CURVE SMOOTH",
"161 773 LINE",
"160 763 OFFCURVE",
"167 755 OFFCURVE",
"177 755 CURVE SMOOTH",
"382 755 LINE",
"337 446 LINE",
"124 446 LINE SMOOTH",
"117 446 OFFCURVE",
"110 441 OFFCURVE",
"109 433 CURVE SMOOTH",
"100 371 LINE",
"99 361 OFFCURVE",
"106 353 OFFCURVE",
"116 353 CURVE SMOOTH",
"323 353 LINE",
"279 48 LINE",
"278 38 OFFCURVE",
"285 30 OFFCURVE",
"295 30 CURVE SMOOTH"
);
},
{
closed = 1;
nodes = (
"480 755 LINE",
"716 755 LINE",
"672 446 LINE",
"435 446 LINE"
);
}
);
width = 1195;
}
);
unicode = 0023;
},
{
glyphname = period;
lastChange = "2016-02-01 08:54:15 +0000";
layers = (
{
layerId = "93A312F7-B931-4485-B08E-C367313EB5E7";
name = Regular;
paths = (
{
closed = 1;
nodes = (
"282 -66 OFFCURVE",
"296 -63 OFFCURVE",
"308 -47 CURVE SMOOTH",
"389 65 LINE",
"423 117 OFFCURVE",
"425 131 OFFCURVE",
"380 162 CURVE SMOOTH",
"341 189 OFFCURVE",
"285 226 OFFCURVE",
"253 245 CURVE SMOOTH",
"237 254 OFFCURVE",
"222 250 OFFCURVE",
"212 235 CURVE SMOOTH",
"106 80 LINE SMOOTH",
"95 63 OFFCURVE",
"98 50 OFFCURVE",
"115 39 CURVE SMOOTH",
"266 -56 LINE SMOOTH"
);
}
);
width = 514;
}
);
unicode = 002E;
},
{
glyphname = quotedbl;
lastChange = "2016-02-01 08:54:15 +0000";
layers = (
{
layerId = "93A312F7-B931-4485-B08E-C367313EB5E7";
name = Regular;
paths = (
{
closed = 1;
nodes = (
"413 1006 LINE SMOOTH",
"418 1006 OFFCURVE",
"420 1005 OFFCURVE",
"420 1009 CURVE",
"448 1438 LINE",
"448 1441 OFFCURVE",
"447 1445 OFFCURVE",
"443 1445 CURVE SMOOTH",
"339 1445 LINE SMOOTH",
"335 1445 OFFCURVE",
"332 1445 OFFCURVE",
"332 1440 CURVE SMOOTH",
"330 1013 LINE SMOOTH",
"330 1010 OFFCURVE",
"331 1006 OFFCURVE",
"333 1006 CURVE SMOOTH"
);
},
{
closed = 1;
nodes = (
"183 1006 LINE SMOOTH",
"188 1006 OFFCURVE",
"190 1005 OFFCURVE",
"190 1009 CURVE",
"218 1438 LINE",
"218 1441 OFFCURVE",
"217 1445 OFFCURVE",
"213 1445 CURVE SMOOTH",
"109 1445 LINE SMOOTH",
"105 1445 OFFCURVE",
"102 1445 OFFCURVE",
"102 1440 CURVE SMOOTH",
"100 1013 LINE SMOOTH",
"100 1010 OFFCURVE",
"101 1006 OFFCURVE",
"103 1006 CURVE SMOOTH"
);
}
);
width = 548;
}
);
unicode = 0022;
},
{
glyphname = quotesingle;
lastChange = "2016-02-01 08:54:15 +0000";
layers = (
{
layerId = "93A312F7-B931-4485-B08E-C367313EB5E7";
name = Regular;
paths = (
{
closed = 1;
nodes = (
"183 1006 LINE SMOOTH",
"188 1006 OFFCURVE",
"190 1005 OFFCURVE",
"190 1009 CURVE",
"218 1438 LINE",
"218 1441 OFFCURVE",
"217 1445 OFFCURVE",
"213 1445 CURVE SMOOTH",
"109 1445 LINE SMOOTH",
"105 1445 OFFCURVE",
"102 1445 OFFCURVE",
"102 1440 CURVE SMOOTH",
"100 1013 LINE SMOOTH",
"100 1010 OFFCURVE",
"101 1006 OFFCURVE",
"103 1006 CURVE SMOOTH"
);
}
);
width = 318;
}
);
unicode = 0027;
},
{
glyphname = semicolon;
lastChange = "2016-02-01 08:54:15 +0000";
layers = (
{
layerId = "93A312F7-B931-4485-B08E-C367313EB5E7";
name = Regular;
paths = (
{
closed = 1;
nodes = (
"182 -172 OFFCURVE",
"195 -165 OFFCURVE",
"204 -149 CURVE SMOOTH",
"256 -50 LINE",
"334 73 OFFCURVE",
"420 253 OFFCURVE",
"236 357 CURVE SMOOTH",
"219 366 OFFCURVE",
"205 363 OFFCURVE",
"195 345 CURVE SMOOTH",
"144 255 LINE SMOOTH",
"134 237 OFFCURVE",
"138 224 OFFCURVE",
"155 215 CURVE SMOOTH",
"224 176 OFFCURVE",
"275 130 OFFCURVE",
"199 -4 CURVE SMOOTH",
"135 -117 LINE SMOOTH",
"125 -135 OFFCURVE",
"131 -149 OFFCURVE",
"149 -157 CURVE SMOOTH",
"164 -164 LINE SMOOTH"
);
},
{
closed = 1;
nodes = (
"235 619 OFFCURVE",
"250 622 OFFCURVE",
"261 638 CURVE SMOOTH",
"320 720 LINE",
"346 760 OFFCURVE",
"355 767 OFFCURVE",
"312 797 CURVE SMOOTH",
"284 816 OFFCURVE",
"245 839 OFFCURVE",
"220 853 CURVE SMOOTH",
"204 862 OFFCURVE",
"189 858 OFFCURVE",
"179 843 CURVE SMOOTH",
"106 735 LINE SMOOTH",
"95 718 OFFCURVE",
"98 705 OFFCURVE",
"115 694 CURVE SMOOTH",
"219 629 LINE SMOOTH"
);
}
);
width = 446;
}
);
unicode = 003B;
},
{
glyphname = slash;
lastChange = "2016-02-01 08:54:15 +0000";
layers = (
{
layerId = "93A312F7-B931-4485-B08E-C367313EB5E7";
name = Regular;
paths = (
{
closed = 1;
nodes = (
"185 -342 LINE SMOOTH",
"190 -342 OFFCURVE",
"195 -339 OFFCURVE",
"197 -333 CURVE SMOOTH",
"785 1186 LINE SMOOTH",
"790 1199 OFFCURVE",
"781 1210 OFFCURVE",
"768 1210 CURVE SMOOTH",
"701 1210 LINE SMOOTH",
"696 1210 OFFCURVE",
"691 1207 OFFCURVE",
"689 1201 CURVE SMOOTH",
"101 -318 LINE SMOOTH",
"96 -331 OFFCURVE",
"105 -342 OFFCURVE",
"118 -342 CURVE SMOOTH"
);
}
);
width = 886;
}
);
unicode = 002F;
},
{
glyphname = underscore;
lastChange = "2016-02-01 08:54:15 +0000";
layers = (
{
layerId = "93A312F7-B931-4485-B08E-C367313EB5E7";
name = Regular;
paths = (
{
closed = 1;
nodes = (
"896 -249 LINE",
"896 -150 LINE",
"0 -150 LINE",
"0 -249 LINE"
);
}
);
width = 896;
}
);
unicode = 005F;
},
{
glyphname = braceleft;
lastChange = "2016-02-01 08:54:15 +0000";
layers = (
{
layerId = "93A312F7-B931-4485-B08E-C367313EB5E7";
name = Regular;
paths = (
{
closed = 1;
nodes = (
"536 -474 LINE SMOOTH",
"544 -474 OFFCURVE",
"551 -467 OFFCURVE",
"551 -459 CURVE SMOOTH",
"551 -410 LINE SMOOTH",
"551 -402 OFFCURVE",
"544 -395 OFFCURVE",
"536 -395 CURVE SMOOTH",
"387 -395 LINE SMOOTH",
"370 -395 OFFCURVE",
"356 -381 OFFCURVE",
"356 -364 CURVE SMOOTH",
"356 195 LINE SMOOTH",
"356 310 OFFCURVE",
"289 377 OFFCURVE",
"237 434 CURVE",
"289 491 OFFCURVE",
"356 558 OFFCURVE",
"356 673 CURVE SMOOTH",
"356 1232 LINE SMOOTH",
"356 1249 OFFCURVE",
"370 1263 OFFCURVE",
"387 1263 CURVE SMOOTH",
"536 1263 LINE SMOOTH",
"544 1263 OFFCURVE",
"551 1270 OFFCURVE",
"551 1278 CURVE SMOOTH",
"551 1327 LINE SMOOTH",
"551 1335 OFFCURVE",
"544 1342 OFFCURVE",
"536 1342 CURVE SMOOTH",
"367 1342 LINE SMOOTH",
"289 1342 OFFCURVE",
"247 1300 OFFCURVE",
"247 1222 CURVE SMOOTH",
"247 701 LINE SMOOTH",
"247 546 OFFCURVE",
"216 531 OFFCURVE",
"123 442 CURVE",
"118 438 OFFCURVE",
"119 431 OFFCURVE",
"123 426 CURVE",
"216 326 OFFCURVE",
"247 313 OFFCURVE",
"247 148 CURVE SMOOTH",
"247 -354 LINE SMOOTH",
"247 -432 OFFCURVE",
"289 -474 OFFCURVE",
"367 -474 CURVE SMOOTH"
);
}
);
width = 671;
}
);
unicode = 007B;
},
{
glyphname = braceright;
lastChange = "2016-02-01 08:54:15 +0000";
layers = (
{
layerId = "93A312F7-B931-4485-B08E-C367313EB5E7";
name = Regular;
paths = (
{
closed = 1;
nodes = (
"304 -474 LINE SMOOTH",
"382 -474 OFFCURVE",
"424 -432 OFFCURVE",
"424 -354 CURVE SMOOTH",
"424 148 LINE SMOOTH",
"424 313 OFFCURVE",
"455 326 OFFCURVE",
"548 426 CURVE",
"552 431 OFFCURVE",
"553 438 OFFCURVE",
"548 442 CURVE",
"455 531 OFFCURVE",
"424 546 OFFCURVE",
"424 701 CURVE SMOOTH",
"424 1222 LINE SMOOTH",
"424 1300 OFFCURVE",
"382 1342 OFFCURVE",
"304 1342 CURVE SMOOTH",
"135 1342 LINE SMOOTH",
"127 1342 OFFCURVE",
"120 1335 OFFCURVE",
"120 1327 CURVE SMOOTH",
"120 1278 LINE SMOOTH",
"120 1270 OFFCURVE",
"127 1263 OFFCURVE",
"135 1263 CURVE SMOOTH",
"284 1263 LINE SMOOTH",
"301 1263 OFFCURVE",
"315 1249 OFFCURVE",
"315 1232 CURVE SMOOTH",
"315 673 LINE SMOOTH",
"315 558 OFFCURVE",
"382 491 OFFCURVE",
"434 434 CURVE",
"382 377 OFFCURVE",
"315 310 OFFCURVE",
"315 195 CURVE SMOOTH",
"315 -364 LINE SMOOTH",
"315 -381 OFFCURVE",
"301 -395 OFFCURVE",
"284 -395 CURVE SMOOTH",
"135 -395 LINE SMOOTH",
"127 -395 OFFCURVE",
"120 -402 OFFCURVE",
"120 -410 CURVE SMOOTH",
"120 -459 LINE SMOOTH",
"120 -467 OFFCURVE",
"127 -474 OFFCURVE",
"135 -474 CURVE SMOOTH"
);
}
);
width = 671;
}
);
unicode = 007D;
userData = {
com.typemytype.robofont.guides = (
{
angle = 0;
isGlobal = 0;
x = 360;
y = 609;
}
);
};
},
{
glyphname = bracketleft;
lastChange = "2016-02-01 08:54:15 +0000";
layers = (
{
layerId = "93A312F7-B931-4485-B08E-C367313EB5E7";
name = Regular;
paths = (
{
closed = 1;
nodes = (
"409 -472 LINE SMOOTH",
"417 -472 OFFCURVE",
"424 -465 OFFCURVE",
"424 -457 CURVE SMOOTH",
"424 -408 LINE SMOOTH",
"424 -400 OFFCURVE",
"417 -393 OFFCURVE",
"409 -393 CURVE SMOOTH",
"229 -393 LINE",
"229 1262 LINE",
"409 1262 LINE SMOOTH",
"417 1262 OFFCURVE",
"424 1269 OFFCURVE",
"424 1277 CURVE SMOOTH",
"424 1326 LINE SMOOTH",
"424 1334 OFFCURVE",
"417 1341 OFFCURVE",
"409 1341 CURVE SMOOTH",
"135 1341 LINE SMOOTH",
"127 1341 OFFCURVE",
"120 1334 OFFCURVE",
"120 1326 CURVE SMOOTH",
"120 -457 LINE SMOOTH",
"120 -465 OFFCURVE",
"127 -472 OFFCURVE",
"135 -472 CURVE SMOOTH"
);
}
);
width = 544;
}
);
unicode = 005B;
},
{
glyphname = bracketright;
lastChange = "2016-02-01 08:54:15 +0000";
layers = (
{
layerId = "93A312F7-B931-4485-B08E-C367313EB5E7";
name = Regular;
paths = (
{
closed = 1;
nodes = (
"409 -472 LINE SMOOTH",
"417 -472 OFFCURVE",
"424 -465 OFFCURVE",
"424 -457 CURVE SMOOTH",
"424 1326 LINE SMOOTH",
"424 1334 OFFCURVE",
"417 1341 OFFCURVE",
"409 1341 CURVE SMOOTH",
"135 1341 LINE SMOOTH",
"127 1341 OFFCURVE",
"120 1334 OFFCURVE",
"120 1326 CURVE SMOOTH",
"120 1277 LINE SMOOTH",
"120 1269 OFFCURVE",
"127 1262 OFFCURVE",
"135 1262 CURVE SMOOTH",
"315 1262 LINE",
"315 -393 LINE",
"135 -393 LINE SMOOTH",
"127 -393 OFFCURVE",
"120 -400 OFFCURVE",
"120 -408 CURVE SMOOTH",
"120 -457 LINE SMOOTH",
"120 -465 OFFCURVE",
"127 -472 OFFCURVE",
"135 -472 CURVE SMOOTH"
);
}
);
width = 544;
}
);
unicode = 005D;
},
{
glyphname = parenleft;
lastChange = "2016-02-01 08:54:15 +0000";
layers = (
{
layerId = "93A312F7-B931-4485-B08E-C367313EB5E7";
name = Regular;
paths = (
{
closed = 1;
nodes = (
"479 -300 LINE SMOOTH",
"491 -300 OFFCURVE",
"495 -292 OFFCURVE",
"489 -282 CURVE SMOOTH",
"185 206 OFFCURVE",
"183 683 OFFCURVE",
"488 1151 CURVE SMOOTH",
"495 1161 OFFCURVE",
"490 1169 OFFCURVE",
"478 1169 CURVE SMOOTH",
"410 1169 LINE SMOOTH",
"402 1169 OFFCURVE",
"397 1166 OFFCURVE",
"392 1160 CURVE",
"29 671 OFFCURVE",
"29 187 OFFCURVE",
"392 -291 CURVE",
"397 -297 OFFCURVE",
"402 -300 OFFCURVE",
"410 -300 CURVE SMOOTH"
);
}
);
width = 612;
}
);
unicode = 0028;
},
{
glyphname = parenright;
lastChange = "2016-02-01 08:54:15 +0000";
layers = (
{
layerId = "93A312F7-B931-4485-B08E-C367313EB5E7";
name = Regular;
paths = (
{
closed = 1;
nodes = (
"202 -300 LINE SMOOTH",
"210 -300 OFFCURVE",
"215 -297 OFFCURVE",
"220 -291 CURVE",
"583 187 OFFCURVE",
"583 671 OFFCURVE",
"220 1160 CURVE",
"215 1166 OFFCURVE",
"210 1169 OFFCURVE",
"202 1169 CURVE SMOOTH",
"134 1169 LINE SMOOTH",
"122 1169 OFFCURVE",
"117 1161 OFFCURVE",
"124 1151 CURVE SMOOTH",
"429 683 OFFCURVE",
"427 206 OFFCURVE",
"123 -282 CURVE SMOOTH",
"117 -292 OFFCURVE",
"121 -300 OFFCURVE",
"133 -300 CURVE SMOOTH"
);
}
);
width = 612;
}
);
unicode = 0029;
},
{
glyphname = hyphen;
lastChange = "2016-02-01 08:54:15 +0000";
layers = (
{
layerId = "93A312F7-B931-4485-B08E-C367313EB5E7";
name = Regular;
paths = (
{
closed = 1;
nodes = (
"615 380 LINE SMOOTH",
"624 380 OFFCURVE",
"630 386 OFFCURVE",
"630 395 CURVE SMOOTH",
"630 473 LINE SMOOTH",
"630 482 OFFCURVE",
"624 488 OFFCURVE",
"615 488 CURVE SMOOTH",
"115 488 LINE SMOOTH",
"106 488 OFFCURVE",
"100 482 OFFCURVE",
"100 473 CURVE SMOOTH",
"100 395 LINE SMOOTH",
"100 386 OFFCURVE",
"106 380 OFFCURVE",
"115 380 CURVE SMOOTH"
);
}
);
width = 730;
}
);
unicode = 002D;
},
{
glyphname = hyphentwo;
lastChange = "2016-02-01 08:54:15 +0000";
layers = (
{
layerId = "93A312F7-B931-4485-B08E-C367313EB5E7";
name = Regular;
paths = (
{
closed = 1;
nodes = (
"650 362 LINE SMOOTH",
"659 362 OFFCURVE",
"665 368 OFFCURVE",
"665 377 CURVE SMOOTH",
"665 477 LINE SMOOTH",
"665 486 OFFCURVE",
"659 492 OFFCURVE",
"650 492 CURVE SMOOTH",
"115 492 LINE SMOOTH",
"106 492 OFFCURVE",
"100 486 OFFCURVE",
"100 477 CURVE SMOOTH",
"100 377 LINE SMOOTH",
"100 368 OFFCURVE",
"106 362 OFFCURVE",
"115 362 CURVE SMOOTH"
);
}
);
width = 765;
}
);
unicode = 2010;
},
{
glyphname = guillemetleft;
lastChange = "2016-02-01 08:54:15 +0000";
layers = (
{
layerId = "93A312F7-B931-4485-B08E-C367313EB5E7";
name = Regular;
paths = (
{
closed = 1;
nodes = (
"316 -29 OFFCURVE",
"324 -26 OFFCURVE",
"328 -18 CURVE SMOOTH",
"374 73 LINE",
"379 84 OFFCURVE",
"387 84 OFFCURVE",
"395 75 CURVE SMOOTH",
"427 38 OFFCURVE",
"476 5 OFFCURVE",
"542 -25 CURVE SMOOTH",
"551 -29 OFFCURVE",
"559 -27 OFFCURVE",
"563 -18 CURVE",
"620 95 LINE",
"624 104 OFFCURVE",
"621 111 OFFCURVE",
"612 115 CURVE",
"350 217 OFFCURVE",
"434 346 OFFCURVE",
"581 625 CURVE SMOOTH",
"586 634 OFFCURVE",
"584 641 OFFCURVE",
"575 645 CURVE SMOOTH",
"531 664 LINE",
"523 667 OFFCURVE",
"516 665 OFFCURVE",
"511 657 CURVE SMOOTH",
"411 484 OFFCURVE",
"292 298 OFFCURVE",
"350 148 CURVE SMOOTH",
"355 134 OFFCURVE",
"348 126 OFFCURVE",
"334 133 CURVE SMOOTH",
"125 232 OFFCURVE",
"208 362 OFFCURVE",
"346 625 CURVE SMOOTH",
"351 634 OFFCURVE",
"349 641 OFFCURVE",
"340 645 CURVE SMOOTH",
"296 664 LINE",
"288 667 OFFCURVE",
"281 665 OFFCURVE",
"276 657 CURVE",
"133 409 OFFCURVE",
"-49 134 OFFCURVE",
"307 -25 CURVE SMOOTH"
);
}
);
width = 722;
}
);
unicode = 00AB;
},
{
glyphname = guillemetright;
lastChange = "2016-02-01 08:54:15 +0000";
layers = (
{
layerId = "93A312F7-B931-4485-B08E-C367313EB5E7";
name = Regular;
paths = (
{
closed = 1;
nodes = (
"255 9 OFFCURVE",
"307 47 OFFCURVE",
"339 90 CURVE",
"394 -18 LINE SMOOTH",
"398 -26 OFFCURVE",
"406 -29 OFFCURVE",
"415 -25 CURVE SMOOTH",
"771 134 OFFCURVE",
"589 409 OFFCURVE",
"446 657 CURVE",
"441 665 OFFCURVE",
"434 667 OFFCURVE",
"426 664 CURVE",
"382 645 LINE SMOOTH",
"373 641 OFFCURVE",
"371 634 OFFCURVE",
"376 625 CURVE SMOOTH",
"520 351 OFFCURVE",
"604 221 OFFCURVE",
"359 120 CURVE",
"444 276 OFFCURVE",
"317 473 OFFCURVE",
"211 657 CURVE",
"206 665 OFFCURVE",
"199 667 OFFCURVE",
"191 664 CURVE",
"147 645 LINE SMOOTH",
"138 641 OFFCURVE",
"136 634 OFFCURVE",
"141 625 CURVE SMOOTH",
"288 346 OFFCURVE",
"373 217 OFFCURVE",
"110 115 CURVE",
"101 111 OFFCURVE",
"98 104 OFFCURVE",
"102 95 CURVE",
"159 -18 LINE SMOOTH",
"163 -26 OFFCURVE",
"171 -29 OFFCURVE",
"180 -25 CURVE SMOOTH"
);
}
);
width = 722;
}
);
unicode = 00BB;
},
{
glyphname = "asteriskArt-ar";
lastChange = "2016-02-01 08:54:15 +0000";
layers = (
{
background = {
paths = (
{
closed = 1;
nodes = (
"367 251 LINE",
"421 304 LINE",
"367 357 LINE",
"314 304 LINE"
);
},
{
closed = 1;
nodes = (
"367 481 LINE",
"421 534 LINE",
"367 587 LINE",
"314 534 LINE"
);
},
{
closed = 1;
nodes = (
"488 403 LINE",
"488 166 LINE",
"525 166 LINE",
"525 403 LINE",
"770 403 LINE",
"770 442 LINE",
"525 442 LINE",
"525 677 LINE",
"488 677 LINE",
"488 442 LINE",
"243 442 LINE",
"243 403 LINE"
);
},
{
closed = 1;
nodes = (
"647 251 LINE",
"701 304 LINE",
"647 357 LINE",
"594 304 LINE"
);
},
{
closed = 1;
nodes = (
"647 481 LINE",
"701 534 LINE",
"647 587 LINE",
"594 534 LINE"
);
},
{
closed = 1;
nodes = (
"527 -11 LINE SMOOTH",
"531 -11 OFFCURVE",
"533 -9 OFFCURVE",
"533 -6 CURVE SMOOTH",
"533 46 LINE SMOOTH",
"533 49 OFFCURVE",
"534 50 OFFCURVE",
"537 50 CURVE SMOOTH",
"729 67 OFFCURVE",
"879 226 OFFCURVE",
"879 422 CURVE SMOOTH",
"879 618 OFFCURVE",
"729 776 OFFCURVE",
"537 793 CURVE SMOOTH",
"534 793 OFFCURVE",
"533 794 OFFCURVE",
"533 797 CURVE SMOOTH",
"533 849 LINE SMOOTH",
"533 852 OFFCURVE",
"531 854 OFFCURVE",
"527 854 CURVE SMOOTH",
"485 854 LINE SMOOTH",
"482 854 OFFCURVE",
"480 852 OFFCURVE",
"480 849 CURVE SMOOTH",
"480 797 LINE SMOOTH",
"480 795 OFFCURVE",
"479 793 OFFCURVE",
"475 793 CURVE SMOOTH",
"284 776 OFFCURVE",
"134 618 OFFCURVE",
"134 422 CURVE SMOOTH",
"134 226 OFFCURVE",
"284 67 OFFCURVE",
"475 50 CURVE SMOOTH",
"479 50 OFFCURVE",
"480 48 OFFCURVE",
"480 46 CURVE SMOOTH",
"480 -6 LINE SMOOTH",
"480 -9 OFFCURVE",
"482 -11 OFFCURVE",
"485 -11 CURVE SMOOTH"
);
},
{
closed = 1;
nodes = (
"488 82 OFFCURVE",
"473 97 OFFCURVE",
"473 115 CURVE SMOOTH",
"473 136 OFFCURVE",
"488 152 OFFCURVE",
"506 152 CURVE SMOOTH",
"525 152 OFFCURVE",
"541 136 OFFCURVE",
"541 115 CURVE SMOOTH",
"541 97 OFFCURVE",
"525 82 OFFCURVE",
"506 82 CURVE SMOOTH"
);
},
{
closed = 1;
nodes = (
"715 181 LINE SMOOTH",
"706 190 OFFCURVE",
"697 191 OFFCURVE",
"689 183 CURVE SMOOTH",
"651 155 OFFCURVE",
"588 130 OFFCURVE",
"509 189 CURVE SMOOTH",
"507 191 OFFCURVE",
"505 191 OFFCURVE",
"502 189 CURVE SMOOTH",
"425 130 OFFCURVE",
"362 155 OFFCURVE",
"324 183 CURVE SMOOTH",
"316 191 OFFCURVE",
"307 190 OFFCURVE",
"298 181 CURVE SMOOTH",
"292 174 LINE SMOOTH",
"290 173 OFFCURVE",
"288 173 OFFCURVE",
"285 174 CURVE SMOOTH",
"216 236 OFFCURVE",
"173 323 OFFCURVE",
"173 422 CURVE SMOOTH",
"173 521 OFFCURVE",
"216 611 OFFCURVE",
"285 671 CURVE SMOOTH",
"288 671 OFFCURVE",
"290 671 OFFCURVE",
"292 671 CURVE SMOOTH",
"298 665 LINE SMOOTH",
"307 657 OFFCURVE",
"316 656 OFFCURVE",
"324 664 CURVE SMOOTH",
"362 691 OFFCURVE",
"425 713 OFFCURVE",
"502 654 CURVE SMOOTH",
"505 652 OFFCURVE",
"507 652 OFFCURVE",
"509 654 CURVE SMOOTH",
"588 713 OFFCURVE",
"651 691 OFFCURVE",
"689 664 CURVE SMOOTH",
"697 656 OFFCURVE",
"706 657 OFFCURVE",
"715 665 CURVE SMOOTH",
"721 671 LINE SMOOTH",
"723 671 OFFCURVE",
"725 671 OFFCURVE",
"728 671 CURVE SMOOTH",
"797 611 OFFCURVE",
"840 521 OFFCURVE",
"840 422 CURVE SMOOTH",
"840 323 OFFCURVE",
"797 236 OFFCURVE",
"728 174 CURVE SMOOTH",
"725 173 OFFCURVE",
"723 173 OFFCURVE",
"721 174 CURVE SMOOTH"
);
},
{
closed = 1;
nodes = (
"487 691 OFFCURVE",
"472 706 OFFCURVE",
"472 725 CURVE SMOOTH",
"472 744 OFFCURVE",
"487 761 OFFCURVE",
"506 761 CURVE SMOOTH",
"525 761 OFFCURVE",
"541 744 OFFCURVE",
"541 725 CURVE SMOOTH",
"541 706 OFFCURVE",
"525 691 OFFCURVE",
"506 691 CURVE SMOOTH"
);
}
);
};
layerId = "93A312F7-B931-4485-B08E-C367313EB5E7";
name = Regular;
paths = (
{
closed = 1;
nodes = (
"529 -50 LINE SMOOTH",
"533 -50 OFFCURVE",
"535 -48 OFFCURVE",
"535 -45 CURVE SMOOTH",
"535 12 LINE SMOOTH",
"535 15 OFFCURVE",
"537 16 OFFCURVE",
"540 16 CURVE",
"749 35 OFFCURVE",
"913 208 OFFCURVE",
"913 422 CURVE SMOOTH",
"913 636 OFFCURVE",
"749 808 OFFCURVE",
"540 827 CURVE",
"537 827 OFFCURVE",
"535 828 OFFCURVE",
"535 831 CURVE SMOOTH",
"535 888 LINE SMOOTH",
"535 891 OFFCURVE",
"533 893 OFFCURVE",
"529 893 CURVE SMOOTH",
"483 893 LINE SMOOTH",
"480 893 OFFCURVE",
"478 891 OFFCURVE",
"478 888 CURVE SMOOTH",
"478 831 LINE SMOOTH",
"478 829 OFFCURVE",
"476 827 OFFCURVE",
"472 827 CURVE",
"264 808 OFFCURVE",
"100 636 OFFCURVE",
"100 422 CURVE SMOOTH",
"100 208 OFFCURVE",
"264 35 OFFCURVE",
"472 16 CURVE",
"476 16 OFFCURVE",
"478 14 OFFCURVE",
"478 12 CURVE SMOOTH",
"478 -45 LINE SMOOTH",
"478 -48 OFFCURVE",
"480 -50 OFFCURVE",
"483 -50 CURVE SMOOTH"
);
},
{
closed = 1;
nodes = (
"486 51 OFFCURVE",
"470 67 OFFCURVE",
"470 87 CURVE SMOOTH",
"470 110 OFFCURVE",
"486 127 OFFCURVE",
"506 127 CURVE SMOOTH",
"527 127 OFFCURVE",
"544 110 OFFCURVE",
"544 87 CURVE SMOOTH",
"544 67 OFFCURVE",
"527 51 OFFCURVE",
"506 51 CURVE SMOOTH"
);
},
{
closed = 1;
nodes = (
"349 240 OFFCURVE",
"359 240 OFFCURVE",
"365 246 CURVE SMOOTH",
"402 282 LINE SMOOTH",
"409 289 OFFCURVE",
"409 297 OFFCURVE",
"402 304 CURVE SMOOTH",
"365 340 LINE SMOOTH",
"359 346 OFFCURVE",
"349 346 OFFCURVE",
"343 340 CURVE SMOOTH",
"307 304 LINE SMOOTH",
"301 298 OFFCURVE",
"301 288 OFFCURVE",
"307 282 CURVE SMOOTH",
"343 246 LINE SMOOTH"
);
},
{
closed = 1;
nodes = (
"190 219 OFFCURVE",
"143 314 OFFCURVE",
"143 422 CURVE SMOOTH",
"143 530 OFFCURVE",
"190 628 OFFCURVE",
"265 694 CURVE",
"272 694 LINE",
"279 687 LINE",
"289 678 OFFCURVE",
"299 677 OFFCURVE",
"307 686 CURVE",
"346 712 OFFCURVE",
"406 735 OFFCURVE",
"480 690 CURVE",
"484 687 OFFCURVE",
"486 683 OFFCURVE",
"486 679 CURVE SMOOTH",
"486 459 LINE SMOOTH",
"486 451 OFFCURVE",
"479 444 OFFCURVE",
"471 444 CURVE SMOOTH",
"234 444 LINE SMOOTH",
"226 444 OFFCURVE",
"219 437 OFFCURVE",
"219 429 CURVE SMOOTH",
"219 416 LINE SMOOTH",
"219 408 OFFCURVE",
"226 401 OFFCURVE",
"234 401 CURVE SMOOTH",
"471 401 LINE SMOOTH",
"479 401 OFFCURVE",
"486 394 OFFCURVE",
"486 386 CURVE SMOOTH",
"486 164 LINE SMOOTH",
"486 160 OFFCURVE",
"484 156 OFFCURVE",
"480 153 CURVE",
"406 108 OFFCURVE",
"346 134 OFFCURVE",
"307 161 CURVE",
"299 170 OFFCURVE",
"289 169 OFFCURVE",
"279 159 CURVE",
"272 151 LINE",
"270 150 OFFCURVE",
"268 150 OFFCURVE",
"265 151 CURVE"
);
},
{
closed = 1;
nodes = (
"349 491 OFFCURVE",
"359 491 OFFCURVE",
"365 497 CURVE SMOOTH",
"402 533 LINE SMOOTH",
"409 540 OFFCURVE",
"409 548 OFFCURVE",
"402 555 CURVE SMOOTH",
"365 591 LINE SMOOTH",
"359 597 OFFCURVE",
"349 597 OFFCURVE",
"343 591 CURVE SMOOTH",
"307 555 LINE SMOOTH",
"300 548 OFFCURVE",
"301 539 OFFCURVE",
"307 533 CURVE SMOOTH",
"343 497 LINE SMOOTH"
);
},
{
closed = 1;
nodes = (
"655 240 OFFCURVE",
"665 240 OFFCURVE",
"671 246 CURVE SMOOTH",
"708 282 LINE SMOOTH",
"715 289 OFFCURVE",
"715 297 OFFCURVE",
"708 304 CURVE SMOOTH",
"671 340 LINE SMOOTH",
"665 346 OFFCURVE",
"655 346 OFFCURVE",
"649 340 CURVE SMOOTH",
"613 304 LINE SMOOTH",
"607 298 OFFCURVE",
"607 288 OFFCURVE",
"613 282 CURVE SMOOTH",
"649 246 LINE SMOOTH"
);
},
{
closed = 1;
nodes = (
"734 159 LINE",
"724 169 OFFCURVE",
"714 170 OFFCURVE",
"706 161 CURVE",
"668 134 OFFCURVE",
"608 108 OFFCURVE",
"534 152 CURVE SMOOTH",
"529 155 OFFCURVE",
"527 159 OFFCURVE",
"527 163 CURVE SMOOTH",
"527 386 LINE SMOOTH",
"527 394 OFFCURVE",
"534 401 OFFCURVE",
"542 401 CURVE SMOOTH",
"779 401 LINE SMOOTH",
"787 401 OFFCURVE",
"794 408 OFFCURVE",
"794 416 CURVE SMOOTH",
"794 429 LINE SMOOTH",
"794 437 OFFCURVE",
"787 444 OFFCURVE",
"779 444 CURVE SMOOTH",
"542 444 LINE SMOOTH",
"534 444 OFFCURVE",
"527 451 OFFCURVE",
"527 459 CURVE SMOOTH",
"527 680 LINE SMOOTH",
"527 684 OFFCURVE",
"529 688 OFFCURVE",
"534 691 CURVE SMOOTH",
"608 735 OFFCURVE",
"668 712 OFFCURVE",
"706 686 CURVE",
"714 677 OFFCURVE",
"724 678 OFFCURVE",
"734 687 CURVE",
"741 694 LINE",
"748 694 LINE",
"823 628 OFFCURVE",
"870 530 OFFCURVE",
"870 422 CURVE SMOOTH",
"870 314 OFFCURVE",
"823 219 OFFCURVE",
"748 151 CURVE",
"745 150 OFFCURVE",
"743 150 OFFCURVE",
"741 151 CURVE"
);
},
{
closed = 1;
nodes = (
"655 491 OFFCURVE",
"665 491 OFFCURVE",
"671 497 CURVE SMOOTH",
"708 533 LINE SMOOTH",
"715 540 OFFCURVE",
"715 548 OFFCURVE",
"708 555 CURVE SMOOTH",
"671 591 LINE SMOOTH",
"665 597 OFFCURVE",
"655 597 OFFCURVE",
"649 591 CURVE SMOOTH",
"613 555 LINE SMOOTH",
"607 549 OFFCURVE",
"607 539 OFFCURVE",
"613 533 CURVE SMOOTH",
"649 497 LINE SMOOTH"
);
},
{
closed = 1;
nodes = (
"485 716 OFFCURVE",
"469 732 OFFCURVE",
"469 753 CURVE SMOOTH",
"469 773 OFFCURVE",
"485 792 OFFCURVE",
"506 792 CURVE SMOOTH",
"527 792 OFFCURVE",
"544 773 OFFCURVE",
"544 753 CURVE SMOOTH",
"544 732 OFFCURVE",
"527 716 OFFCURVE",
"506 716 CURVE SMOOTH"
);
}
);
width = 1013;
}
);
unicode = 06DE;
userData = {
com.typemytype.robofont.layerData = {
background = {
anchors = (
);
components = (
);
contours = (
{
points = (
{
segmentType = line;
smooth = 0;
x = 333;
y = 251;
},
{
segmentType = line;
smooth = 0;
x = 387;
y = 304;
},
{
segmentType = line;
smooth = 0;
x = 333;
y = 357;
},
{
segmentType = line;
smooth = 0;
x = 280;
y = 304;
}
);
},
{
points = (
{
segmentType = line;
smooth = 0;
x = 333;
y = 481;
},
{
segmentType = line;
smooth = 0;
x = 387;
y = 534;
},
{
segmentType = line;
smooth = 0;
x = 333;
y = 587;
},
{
segmentType = line;
smooth = 0;
x = 280;
y = 534;
}
);
},
{
points = (
{
segmentType = line;
smooth = 0;
x = 454;
y = 403;
},
{
segmentType = line;
smooth = 0;
x = 454;
y = 166;
},
{
segmentType = line;
smooth = 0;
x = 491;
y = 166;
},
{
segmentType = line;
smooth = 0;
x = 491;
y = 403;
},
{
segmentType = line;
smooth = 0;
x = 736;
y = 403;
},
{
segmentType = line;
smooth = 0;
x = 736;
y = 442;
},
{
segmentType = line;
smooth = 0;
x = 491;
y = 442;
},
{
segmentType = line;
smooth = 0;
x = 491;
y = 677;
},
{
segmentType = line;
smooth = 0;
x = 454;
y = 677;
},
{
segmentType = line;
smooth = 0;
x = 454;
y = 442;
},
{
segmentType = line;
smooth = 0;
x = 209;
y = 442;
},
{
segmentType = line;
smooth = 0;
x = 209;
y = 403;
}
);
},
{
points = (
{
segmentType = line;
smooth = 0;
x = 613;
y = 251;
},
{
segmentType = line;
smooth = 0;
x = 667;
y = 304;
},
{
segmentType = line;
smooth = 0;
x = 613;
y = 357;
},
{
segmentType = line;
smooth = 0;
x = 560;
y = 304;
}
);
},
{
points = (
{
segmentType = line;
smooth = 0;
x = 613;
y = 481;
},
{
segmentType = line;
smooth = 0;
x = 667;
y = 534;
},
{
segmentType = line;
smooth = 0;
x = 613;
y = 587;
},
{
segmentType = line;
smooth = 0;
x = 560;
y = 534;
}
);
},
{
points = (
{
segmentType = line;
smooth = 1;
x = 493;
y = "-11";
},
{
smooth = 0;
x = 497;
y = "-11";
},
{
smooth = 0;
x = 499;
y = "-9";
},
{
segmentType = curve;
smooth = 1;
x = 499;
y = "-6";
},
{
segmentType = line;
smooth = 1;
x = 499;
y = 46;
},
{
smooth = 0;
x = 499;
y = 49;
},
{
smooth = 0;
x = 500;
y = 50;
},
{
segmentType = curve;
smooth = 1;
x = 503;
y = 50;
},
{
smooth = 0;
x = 695;
y = 67;
},
{
smooth = 0;
x = 845;
y = 226;
},
{
segmentType = curve;
smooth = 1;
x = 845;
y = 422;
},
{
smooth = 0;
x = 845;
y = 618;
},
{
smooth = 0;
x = 695;
y = 776;
},
{
segmentType = curve;
smooth = 1;
x = 503;
y = 793;
},
{
smooth = 0;
x = 500;
y = 793;
},
{
smooth = 0;
x = 499;
y = 794;
},
{
segmentType = curve;
smooth = 1;
x = 499;
y = 797;
},
{
segmentType = line;
smooth = 1;
x = 499;
y = 849;
},
{
smooth = 0;
x = 499;
y = 852;
},
{
smooth = 0;
x = 497;
y = 854;
},
{
segmentType = curve;
smooth = 1;
x = 493;
y = 854;
},
{
segmentType = line;
smooth = 1;
x = 451;
y = 854;
},
{
smooth = 0;
x = 448;
y = 854;
},
{
smooth = 0;
x = 446;
y = 852;
},
{
segmentType = curve;
smooth = 1;
x = 446;
y = 849;
},
{
segmentType = line;
smooth = 1;
x = 446;
y = 797;
},
{
smooth = 0;
x = 446;
y = 795;
},
{
smooth = 0;
x = 445;
y = 793;
},
{
segmentType = curve;
smooth = 1;
x = 441;
y = 793;
},
{
smooth = 0;
x = 250;
y = 776;
},
{
smooth = 0;
x = 100;
y = 618;
},
{
segmentType = curve;
smooth = 1;
x = 100;
y = 422;
},
{
smooth = 0;
x = 100;
y = 226;
},
{
smooth = 0;
x = 250;
y = 67;
},
{
segmentType = curve;
smooth = 1;
x = 441;
y = 50;
},
{
smooth = 0;
x = 445;
y = 50;
},
{
smooth = 0;
x = 446;
y = 48;
},
{
segmentType = curve;
smooth = 1;
x = 446;
y = 46;
},
{
segmentType = line;
smooth = 1;
x = 446;
y = "-6";
},
{
smooth = 0;
x = 446;
y = "-9";
},
{
smooth = 0;
x = 448;
y = "-11";
},
{
segmentType = curve;
smooth = 1;
x = 451;
y = "-11";
}
);
},
{
points = (
{
smooth = 0;
x = 454;
y = 82;
},
{
smooth = 0;
x = 439;
y = 97;
},
{
segmentType = curve;
smooth = 1;
x = 439;
y = 115;
},
{
smooth = 0;
x = 439;
y = 136;
},
{
smooth = 0;
x = 454;
y = 152;
},
{
segmentType = curve;
smooth = 1;
x = 472;
y = 152;
},
{
smooth = 0;
x = 491;
y = 152;
},
{
smooth = 0;
x = 507;
y = 136;
},
{
segmentType = curve;
smooth = 1;
x = 507;
y = 115;
},
{
smooth = 0;
x = 507;
y = 97;
},
{
smooth = 0;
x = 491;
y = 82;
},
{
segmentType = curve;
smooth = 1;
x = 472;
y = 82;
}
);
},
{
points = (
{
segmentType = line;
smooth = 1;
x = 681;
y = 181;
},
{
smooth = 0;
x = 672;
y = 190;
},
{
smooth = 0;
x = 663;
y = 191;
},
{
segmentType = curve;
smooth = 1;
x = 655;
y = 183;
},
{
smooth = 0;
x = 617;
y = 155;
},
{
smooth = 0;
x = 554;
y = 130;
},
{
segmentType = curve;
smooth = 1;
x = 475;
y = 189;
},
{
smooth = 0;
x = 473;
y = 191;
},
{
smooth = 0;
x = 471;
y = 191;
},
{
segmentType = curve;
smooth = 1;
x = 468;
y = 189;
},
{
smooth = 0;
x = 391;
y = 130;
},
{
smooth = 0;
x = 328;
y = 155;
},
{
segmentType = curve;
smooth = 1;
x = 290;
y = 183;
},
{
smooth = 0;
x = 282;
y = 191;
},
{
smooth = 0;
x = 273;
y = 190;
},
{
segmentType = curve;
smooth = 1;
x = 264;
y = 181;
},
{
segmentType = line;
smooth = 1;
x = 258;
y = 174;
},
{
smooth = 0;
x = 256;
y = 173;
},
{
smooth = 0;
x = 254;
y = 173;
},
{
segmentType = curve;
smooth = 1;
x = 251;
y = 174;
},
{
smooth = 0;
x = 182;
y = 236;
},
{
smooth = 0;
x = 139;
y = 323;
},
{
segmentType = curve;
smooth = 1;
x = 139;
y = 422;
},
{
smooth = 0;
x = 139;
y = 521;
},
{
smooth = 0;
x = 182;
y = 611;
},
{
segmentType = curve;
smooth = 1;
x = 251;
y = 671;
},
{
smooth = 0;
x = 254;
y = 671;
},
{
smooth = 0;
x = 256;
y = 671;
},
{
segmentType = curve;
smooth = 1;
x = 258;
y = 671;
},
{
segmentType = line;
smooth = 1;
x = 264;
y = 665;
},
{
smooth = 0;
x = 273;
y = 657;
},
{
smooth = 0;
x = 282;
y = 656;
},
{
segmentType = curve;
smooth = 1;
x = 290;
y = 664;
},
{
smooth = 0;
x = 328;
y = 691;
},
{
smooth = 0;
x = 391;
y = 713;
},
{
segmentType = curve;
smooth = 1;
x = 468;
y = 654;
},
{
smooth = 0;
x = 471;
y = 652;
},
{
smooth = 0;
x = 473;
y = 652;
},
{
segmentType = curve;
smooth = 1;
x = 475;
y = 654;
},
{
smooth = 0;
x = 554;
y = 713;
},
{
smooth = 0;
x = 617;
y = 691;
},
{
segmentType = curve;
smooth = 1;
x = 655;
y = 664;
},
{
smooth = 0;
x = 663;
y = 656;
},
{
smooth = 0;
x = 672;
y = 657;
},
{
segmentType = curve;
smooth = 1;
x = 681;
y = 665;
},
{
segmentType = line;
smooth = 1;
x = 687;
y = 671;
},
{
smooth = 0;
x = 689;
y = 671;
},
{
smooth = 0;
x = 691;
y = 671;
},
{
segmentType = curve;
smooth = 1;
x = 694;
y = 671;
},
{
smooth = 0;
x = 763;
y = 611;
},
{
smooth = 0;
x = 806;
y = 521;
},
{
segmentType = curve;
smooth = 1;
x = 806;
y = 422;
},
{
smooth = 0;
x = 806;
y = 323;
},
{
smooth = 0;
x = 763;
y = 236;
},
{
segmentType = curve;
smooth = 1;
x = 694;
y = 174;
},
{
smooth = 0;
x = 691;
y = 173;
},
{
smooth = 0;
x = 689;
y = 173;
},
{
segmentType = curve;
smooth = 1;
x = 687;
y = 174;
}
);
},
{
points = (
{
smooth = 0;
x = 453;
y = 691;
},
{
smooth = 0;
x = 438;
y = 706;
},
{
segmentType = curve;
smooth = 1;
x = 438;
y = 725;
},
{
smooth = 0;
x = 438;
y = 744;
},
{
smooth = 0;
x = 453;
y = 761;
},
{
segmentType = curve;
smooth = 1;
x = 472;
y = 761;
},
{
smooth = 0;
x = 491;
y = 761;
},
{
smooth = 0;
x = 507;
y = 744;
},
{
segmentType = curve;
smooth = 1;
x = 507;
y = 725;
},
{
smooth = 0;
x = 507;
y = 706;
},
{
smooth = 0;
x = 491;
y = 691;
},
{
segmentType = curve;
smooth = 1;
x = 472;
y = 691;
}
);
}
);
lib = {
};
name = "asteriskArt-ar";
unicodes = (
);
width = 945;
};
};
};
},
{
glyphname = "fullstop-ar";
lastChange = "2016-02-01 08:54:15 +0000";
layers = (
{
layerId = "93A312F7-B931-4485-B08E-C367313EB5E7";
name = Regular;
paths = (
{
closed = 1;
nodes = (
"531 278 LINE SMOOTH",
"538 278 OFFCURVE",
"544 283 OFFCURVE",
"545 289 CURVE",
"567 388 LINE",
"569 399 OFFCURVE",
"562 408 OFFCURVE",
"551 408 CURVE SMOOTH",
"136 408 LINE SMOOTH",
"129 408 OFFCURVE",
"123 403 OFFCURVE",
"122 397 CURVE",
"100 298 LINE",
"98 287 OFFCURVE",
"105 278 OFFCURVE",
"116 278 CURVE SMOOTH"
);
}
);
width = 667;
}
);
unicode = 06D4;
},
{
glyphname = "comma-ar";
lastChange = "2016-02-01 08:54:15 +0000";
layers = (
{
layerId = "93A312F7-B931-4485-B08E-C367313EB5E7";
name = Regular;
paths = (
{
closed = 1;
nodes = (
"232 -29 OFFCURVE",
"238 -25 OFFCURVE",
"243 -18 CURVE",
"319 106 LINE",
"324 115 OFFCURVE",
"322 123 OFFCURVE",
"312 126 CURVE SMOOTH",
"219 157 OFFCURVE",
"176 200 OFFCURVE",
"257 354 CURVE SMOOTH",
"319 471 LINE SMOOTH",
"324 480 OFFCURVE",
"320 487 OFFCURVE",
"311 491 CURVE SMOOTH",
"268 509 LINE",
"260 513 OFFCURVE",
"252 510 OFFCURVE",
"248 502 CURVE SMOOTH",
"190 390 LINE",
"111 264 OFFCURVE",
"22 51 OFFCURVE",
"223 -25 CURVE"
);
}
);
width = 422;
}
);
unicode = 060C;
},
{
glyphname = "question-ar";
lastChange = "2016-02-01 08:54:15 +0000";
layers = (
{
components = (
{
name = period;
transform = "{0.876, 0, 0, 0.876, 228, -18}";
}
);
layerId = "93A312F7-B931-4485-B08E-C367313EB5E7";
name = Regular;
paths = (
{
closed = 1;
nodes = (
"479 376 LINE",
"488 380 OFFCURVE",
"492 385 OFFCURVE",
"493 395 CURVE SMOOTH",
"494 407 OFFCURVE",
"494 441 OFFCURVE",
"495 452 CURVE",
"502 681 OFFCURVE",
"491 648 OFFCURVE",
"183 915 CURVE SMOOTH",
"176 921 OFFCURVE",
"174 930 OFFCURVE",
"179 938 CURVE",
"251 1107 OFFCURVE",
"454 1112 OFFCURVE",
"579 1035 CURVE",
"590 1029 OFFCURVE",
"598 1037 OFFCURVE",
"598 1049 CURVE SMOOTH",
"598 1141 LINE SMOOTH",
"598 1150 OFFCURVE",
"594 1155 OFFCURVE",
"587 1161 CURVE",
"393 1309 OFFCURVE",
"109 1191 OFFCURVE",
"100 910 CURVE SMOOTH",
"96 763 OFFCURVE",
"196 728 OFFCURVE",
"303 626 CURVE SMOOTH",
"369 564 OFFCURVE",
"393 537 OFFCURVE",
"397 451 CURVE",
"396 367 LINE SMOOTH",
"396 354 OFFCURVE",
"404 349 OFFCURVE",
"414 354 CURVE"
);
}
);
width = 698;
}
);
unicode = 061F;
},
{
glyphname = "asterisk-ar";
lastChange = "2016-02-01 08:54:15 +0000";
layers = (
{
layerId = "93A312F7-B931-4485-B08E-C367313EB5E7";
name = Regular;
paths = (
{
closed = 1;
nodes = (
"369 305 LINE",
"519 191 LINE",
"538 208 LINE",
"470 380 LINE",
"630 483 LINE",
"623 508 LINE",
"433 499 LINE",
"377 684 LINE",
"353 684 LINE",
"307 499 LINE",
"108 505 LINE",
"100 483 LINE",
"269 379 LINE",
"204 198 LINE",
"222 184 LINE"
);
}
);
width = 730;
}
);
unicode = 066D;
},
{
glyphname = "endofayah-ar";
lastChange = "2016-02-01 08:54:15 +0000";
layers = (
{
layerId = "93A312F7-B931-4485-B08E-C367313EB5E7";
name = Regular;
paths = (
{
closed = 1;
nodes = (
"1399 -856 LINE SMOOTH",
"1408 -856 OFFCURVE",
"1414 -850 OFFCURVE",
"1414 -841 CURVE SMOOTH",
"1414 -675 LINE SMOOTH",
"1414 -666 OFFCURVE",
"1419 -661 OFFCURVE",
"1428 -660 CURVE SMOOTH",
"2034 -610 OFFCURVE",
"2511 -102 OFFCURVE",
"2511 516 CURVE SMOOTH",
"2511 1134 OFFCURVE",
"2034 1641 OFFCURVE",
"1428 1691 CURVE SMOOTH",
"1419 1692 OFFCURVE",
"1414 1697 OFFCURVE",
"1414 1706 CURVE SMOOTH",
"1414 1872 LINE SMOOTH",
"1414 1881 OFFCURVE",
"1408 1887 OFFCURVE",
"1399 1887 CURVE SMOOTH",
"1261 1887 LINE SMOOTH",
"1252 1887 OFFCURVE",
"1246 1881 OFFCURVE",
"1246 1872 CURVE SMOOTH",
"1246 1707 LINE SMOOTH",
"1246 1698 OFFCURVE",
"1241 1693 OFFCURVE",
"1232 1692 CURVE SMOOTH",
"626 1642 OFFCURVE",
"150 1134 OFFCURVE",
"150 516 CURVE SMOOTH",
"150 -102 OFFCURVE",
"626 -611 OFFCURVE",
"1232 -661 CURVE SMOOTH",
"1241 -662 OFFCURVE",
"1246 -667 OFFCURVE",
"1246 -676 CURVE SMOOTH",
"1246 -841 LINE SMOOTH",
"1246 -850 OFFCURVE",
"1252 -856 OFFCURVE",
"1261 -856 CURVE SMOOTH"
);
},
{
closed = 1;
nodes = (
"1270 -560 OFFCURVE",
"1223 -514 OFFCURVE",
"1223 -454 CURVE SMOOTH",
"1223 -394 OFFCURVE",
"1270 -343 OFFCURVE",
"1330 -343 CURVE SMOOTH",
"1390 -343 OFFCURVE",
"1440 -394 OFFCURVE",
"1440 -454 CURVE SMOOTH",
"1440 -514 OFFCURVE",
"1390 -560 OFFCURVE",
"1330 -560 CURVE SMOOTH"
);
},
{
closed = 1;
nodes = (
"408 -72 OFFCURVE",
"275 202 OFFCURVE",
"275 516 CURVE SMOOTH",
"275 830 OFFCURVE",
"408 1114 OFFCURVE",
"631 1305 CURVE SMOOTH",
"638 1311 OFFCURVE",
"645 1313 OFFCURVE",
"653 1305 CURVE SMOOTH",
"674 1284 LINE SMOOTH",
"701 1257 OFFCURVE",
"727 1255 OFFCURVE",
"757 1279 CURVE SMOOTH",
"877 1375 OFFCURVE",
"1071 1444 OFFCURVE",
"1319 1250 CURVE",
"1326 1245 OFFCURVE",
"1334 1244 OFFCURVE",
"1341 1250 CURVE",
"1589 1444 OFFCURVE",
"1784 1375 OFFCURVE",
"1904 1279 CURVE SMOOTH",
"1934 1255 OFFCURVE",
"1960 1257 OFFCURVE",
"1987 1284 CURVE SMOOTH",
"2008 1305 LINE SMOOTH",
"2016 1313 OFFCURVE",
"2023 1311 OFFCURVE",
"2030 1305 CURVE SMOOTH",
"2253 1114 OFFCURVE",
"2386 830 OFFCURVE",
"2386 516 CURVE SMOOTH",
"2386 202 OFFCURVE",
"2253 -72 OFFCURVE",
"2030 -263 CURVE SMOOTH",
"2023 -269 OFFCURVE",
"2016 -271 OFFCURVE",
"2008 -263 CURVE SMOOTH",
"1987 -242 LINE SMOOTH",
"1960 -215 OFFCURVE",
"1934 -213 OFFCURVE",
"1904 -237 CURVE SMOOTH",
"1784 -333 OFFCURVE",
"1589 -413 OFFCURVE",
"1341 -219 CURVE",
"1334 -213 OFFCURVE",
"1326 -213 OFFCURVE",
"1319 -219 CURVE",
"1071 -413 OFFCURVE",
"877 -333 OFFCURVE",
"757 -237 CURVE SMOOTH",
"727 -213 OFFCURVE",
"701 -215 OFFCURVE",
"674 -242 CURVE SMOOTH",
"653 -263 LINE SMOOTH",
"645 -271 OFFCURVE",
"638 -269 OFFCURVE",
"631 -263 CURVE SMOOTH"
);
},
{
closed = 1;
nodes = (
"1269 1374 OFFCURVE",
"1222 1420 OFFCURVE",
"1222 1480 CURVE SMOOTH",
"1222 1540 OFFCURVE",
"1269 1591 OFFCURVE",
"1329 1591 CURVE SMOOTH",
"1389 1591 OFFCURVE",
"1439 1540 OFFCURVE",
"1439 1480 CURVE SMOOTH",
"1439 1420 OFFCURVE",
"1389 1374 OFFCURVE",
"1329 1374 CURVE SMOOTH"
);
}
);
width = 2631;
}
);
unicode = 06DD;
},
{
glyphname = "parenleft-ar";
lastChange = "2016-02-01 08:54:15 +0000";
layers = (
{
layerId = "93A312F7-B931-4485-B08E-C367313EB5E7";
name = Regular;
paths = (
{
closed = 1;
nodes = (
"856 -419 OFFCURVE",
"862 -416 OFFCURVE",
"866 -410 CURVE SMOOTH",
"904 -352 LINE SMOOTH",
"909 -344 OFFCURVE",
"906 -337 OFFCURVE",
"897 -334 CURVE SMOOTH",
"762 -289 OFFCURVE",
"643 -210 OFFCURVE",
"550 -107 CURVE",
"544 -101 OFFCURVE",
"544 -94 OFFCURVE",
"550 -88 CURVE",
"561 -75 LINE SMOOTH",
"583 -50 OFFCURVE",
"584 -25 OFFCURVE",
"563 2 CURVE SMOOTH",
"494 96 OFFCURVE",
"430 237 OFFCURVE",
"586 430 CURVE",
"592 438 OFFCURVE",
"592 444 OFFCURVE",
"586 450 CURVE",
"437 639 OFFCURVE",
"499 775 OFFCURVE",
"566 866 CURVE SMOOTH",
"586 894 OFFCURVE",
"584 920 OFFCURVE",
"558 943 CURVE",
"547 952 LINE SMOOTH",
"540 958 OFFCURVE",
"540 965 OFFCURVE",
"546 971 CURVE",
"638 1075 OFFCURVE",
"758 1155 OFFCURVE",
"893 1201 CURVE",
"903 1204 OFFCURVE",
"906 1212 OFFCURVE",
"899 1219 CURVE",
"853 1279 LINE SMOOTH",
"848 1286 OFFCURVE",
"842 1287 OFFCURVE",
"834 1285 CURVE",
"513 1164 OFFCURVE",
"279 868 OFFCURVE",
"250 515 CURVE SMOOTH",
"249 506 OFFCURVE",
"244 502 OFFCURVE",
"236 502 CURVE SMOOTH",
"113 502 LINE SMOOTH",
"105 502 OFFCURVE",
"100 496 OFFCURVE",
"100 488 CURVE SMOOTH",
"100 386 LINE SMOOTH",
"100 378 OFFCURVE",
"105 373 OFFCURVE",
"113 373 CURVE SMOOTH",
"235 373 LINE SMOOTH",
"243 373 OFFCURVE",
"248 368 OFFCURVE",
"249 360 CURVE",
"279 0 OFFCURVE",
"521 -300 OFFCURVE",
"848 -416 CURVE SMOOTH"
);
},
{
closed = 1;
nodes = (
"364 362 OFFCURVE",
"326 396 OFFCURVE",
"326 443 CURVE SMOOTH",
"326 490 OFFCURVE",
"364 527 OFFCURVE",
"411 527 CURVE SMOOTH",
"457 527 OFFCURVE",
"492 490 OFFCURVE",
"492 443 CURVE SMOOTH",
"492 396 OFFCURVE",
"457 362 OFFCURVE",
"411 362 CURVE SMOOTH"
);
}
);
width = 1006;
}
);
unicode = FD3E;
},
{
glyphname = "parenright-ar";
lastChange = "2016-02-01 08:54:15 +0000";
layers = (
{
layerId = "93A312F7-B931-4485-B08E-C367313EB5E7";
name = Regular;
paths = (
{
closed = 1;
nodes = (
"486 -300 OFFCURVE",
"727 0 OFFCURVE",
"757 360 CURVE",
"758 368 OFFCURVE",
"763 373 OFFCURVE",
"771 373 CURVE SMOOTH",
"893 373 LINE SMOOTH",
"901 373 OFFCURVE",
"907 378 OFFCURVE",
"907 386 CURVE SMOOTH",
"907 488 LINE SMOOTH",
"907 496 OFFCURVE",
"901 502 OFFCURVE",
"893 502 CURVE SMOOTH",
"770 502 LINE SMOOTH",
"762 502 OFFCURVE",
"757 506 OFFCURVE",
"756 514 CURVE",
"726 868 OFFCURVE",
"493 1165 OFFCURVE",
"172 1285 CURVE",
"165 1287 OFFCURVE",
"158 1286 OFFCURVE",
"154 1279 CURVE",
"107 1219 LINE",
"101 1212 OFFCURVE",
"103 1204 OFFCURVE",
"112 1201 CURVE SMOOTH",
"248 1156 OFFCURVE",
"368 1075 OFFCURVE",
"460 971 CURVE",
"466 965 OFFCURVE",
"466 958 OFFCURVE",
"459 952 CURVE SMOOTH",
"448 943 LINE",
"422 920 OFFCURVE",
"420 894 OFFCURVE",
"440 866 CURVE SMOOTH",
"508 775 OFFCURVE",
"569 640 OFFCURVE",
"420 450 CURVE",
"414 444 OFFCURVE",
"414 438 OFFCURVE",
"420 430 CURVE",
"576 237 OFFCURVE",
"512 95 OFFCURVE",
"443 2 CURVE SMOOTH",
"423 -25 OFFCURVE",
"423 -50 OFFCURVE",
"445 -75 CURVE SMOOTH",
"456 -88 LINE",
"462 -94 OFFCURVE",
"462 -101 OFFCURVE",
"456 -108 CURVE SMOOTH",
"363 -210 OFFCURVE",
"244 -289 OFFCURVE",
"109 -334 CURVE SMOOTH",
"100 -337 OFFCURVE",
"97 -344 OFFCURVE",
"102 -352 CURVE SMOOTH",
"140 -410 LINE SMOOTH",
"144 -416 OFFCURVE",
"150 -419 OFFCURVE",
"158 -416 CURVE SMOOTH"
);
},
{
closed = 1;
nodes = (
"549 362 OFFCURVE",
"514 396 OFFCURVE",
"514 443 CURVE SMOOTH",
"514 490 OFFCURVE",
"549 527 OFFCURVE",
"595 527 CURVE SMOOTH",
"642 527 OFFCURVE",
"680 490 OFFCURVE",
"680 443 CURVE SMOOTH",
"680 396 OFFCURVE",
"642 362 OFFCURVE",
"595 362 CURVE SMOOTH"
);
}
);
width = 1007;
}
);
unicode = FD3F;
},
{
glyphname = at;
lastChange = "2016-02-01 08:54:15 +0000";
layers = (
{
layerId = "93A312F7-B931-4485-B08E-C367313EB5E7";
name = Regular;
paths = (
{
closed = 1;
nodes = (
"785 66 OFFCURVE",
"865 80 OFFCURVE",
"937 113 CURVE",
"910 186 LINE",
"851 161 OFFCURVE",
"780 146 OFFCURVE",
"693 146 CURVE SMOOTH",
"414 146 OFFCURVE",
"229 286 OFFCURVE",
"229 559 CURVE SMOOTH",
"229 821 OFFCURVE",
"413 1021 OFFCURVE",
"677 1021 CURVE SMOOTH",
"751 1021 OFFCURVE",
"818 1006 OFFCURVE",
"878 974 CURVE SMOOTH",
"1000 913 OFFCURVE",
"1062 802 OFFCURVE",
"1062 682 CURVE SMOOTH",
"1062 580 OFFCURVE",
"1010 474 OFFCURVE",
"929 417 CURVE SMOOTH",
"898 396 OFFCURVE",
"874 385 OFFCURVE",
"854 385 CURVE SMOOTH",
"833 385 OFFCURVE",
"817 402 OFFCURVE",
"817 420 CURVE SMOOTH",
"817 426 OFFCURVE",
"822 454 OFFCURVE",
"833 504 CURVE SMOOTH",
"910 864 LINE",
"817 879 LINE",
"796 782 LINE",
"755 848 OFFCURVE",
"696 880 OFFCURVE",
"633 880 CURVE SMOOTH",
"593 880 OFFCURVE",
"551 865 OFFCURVE",
"507 837 CURVE SMOOTH",
"306 706 OFFCURVE",
"301 329 OFFCURVE",
"527 298 CURVE SMOOTH",
"591 288 OFFCURVE",
"663 314 OFFCURVE",
"725 385 CURVE",
"728 350 OFFCURVE",
"761 295 OFFCURVE",
"818 295 CURVE SMOOTH",
"973 295 OFFCURVE",
"1141 472 OFFCURVE",
"1141 681 CURVE SMOOTH",
"1141 827 OFFCURVE",
"1064 973 OFFCURVE",
"921 1046 CURVE SMOOTH",
"851 1082 OFFCURVE",
"771 1100 OFFCURVE",
"682 1100 CURVE SMOOTH",
"567 1100 OFFCURVE",
"471 1074 OFFCURVE",
"390 1022 CURVE SMOOTH",
"229 919 OFFCURVE",
"150 726 OFFCURVE",
"150 550 CURVE SMOOTH",
"150 238 OFFCURVE",
"367 66 OFFCURVE",
"694 66 CURVE SMOOTH"
);
},
{
closed = 1;
nodes = (
"491 718 OFFCURVE",
"562 801 OFFCURVE",
"640 801 CURVE SMOOTH",
"709 801 OFFCURVE",
"775 742 OFFCURVE",
"775 647 CURVE SMOOTH",
"775 293 OFFCURVE",
"358 277 OFFCURVE",
"461 624 CURVE SMOOTH"
);
}
);
width = 1261;
}
);
unicode = 0040;
},
{
glyphname = degree;
lastChange = "2016-02-01 08:54:15 +0000";
layers = (
{
layerId = "93A312F7-B931-4485-B08E-C367313EB5E7";
name = Regular;
paths = (
{
closed = 1;
nodes = (
"439 930 OFFCURVE",
"550 1042 OFFCURVE",
"550 1181 CURVE SMOOTH",
"550 1319 OFFCURVE",
"439 1431 OFFCURVE",
"300 1431 CURVE SMOOTH",
"161 1431 OFFCURVE",
"50 1319 OFFCURVE",
"50 1181 CURVE SMOOTH",
"50 1042 OFFCURVE",
"161 930 OFFCURVE",
"300 930 CURVE SMOOTH"
);
},
{
closed = 1;
nodes = (
"203 1005 OFFCURVE",
"124 1084 OFFCURVE",
"124 1181 CURVE SMOOTH",
"124 1277 OFFCURVE",
"203 1356 OFFCURVE",
"300 1356 CURVE SMOOTH",
"398 1356 OFFCURVE",
"476 1277 OFFCURVE",
"476 1181 CURVE SMOOTH",
"476 1084 OFFCURVE",
"398 1005 OFFCURVE",
"300 1005 CURVE SMOOTH"
);
}
);
width = 600;
}
);
unicode = 00B0;
},
{
glyphname = "afghani-ar";
lastChange = "2016-02-01 08:54:15 +0000";
layers = (
{
layerId = "93A312F7-B931-4485-B08E-C367313EB5E7";
name = Regular;
paths = (
{
closed = 1;
nodes = (
"420 -4 OFFCURVE",
"540 -3 OFFCURVE",
"686 30 CURVE SMOOTH",
"961 93 OFFCURVE",
"981 253 OFFCURVE",
"969 452 CURVE SMOOTH",
"954 708 OFFCURVE",
"827 982 OFFCURVE",
"662 982 CURVE SMOOTH",
"461 982 OFFCURVE",
"363 735 OFFCURVE",
"363 529 CURVE SMOOTH",
"363 263 OFFCURVE",
"690 292 OFFCURVE",
"847 368 CURVE SMOOTH",
"861 375 OFFCURVE",
"875 367 OFFCURVE",
"875 351 CURVE SMOOTH",
"874 247 LINE SMOOTH",
"874 242 OFFCURVE",
"871 237 OFFCURVE",
"866 234 CURVE",
"733 162 OFFCURVE",
"517 144 OFFCURVE",
"227 156 CURVE",
"124 156 OFFCURVE",
"124 0 OFFCURVE",
"227 0 CURVE SMOOTH"
);
},
{
closed = 1;
nodes = (
"623 -538 LINE",
"625 -537 OFFCURVE",
"626 -534 OFFCURVE",
"626 -532 CURVE",
"624 -174 LINE",
"624 -170 OFFCURVE",
"621 -168 OFFCURVE",
"618 -170 CURVE",
"531 -220 LINE",
"528 -222 OFFCURVE",
"527 -224 OFFCURVE",
"527 -226 CURVE",
"550 -585 LINE",
"550 -589 OFFCURVE",
"552 -591 OFFCURVE",
"556 -588 CURVE SMOOTH"
);
},
{
closed = 1;
nodes = (
"466 498 OFFCURVE",
"451 511 OFFCURVE",
"451 516 CURVE SMOOTH",
"453 684 OFFCURVE",
"516 816 OFFCURVE",
"627 816 CURVE SMOOTH",
"726 816 OFFCURVE",
"826 658 OFFCURVE",
"856 497 CURVE",
"858 490 OFFCURVE",
"642 436 OFFCURVE",
"495 488 CURVE SMOOTH"
);
},
{
closed = 1;
nodes = (
"672 1232 OFFCURVE",
"675 1232 OFFCURVE",
"677 1234 CURVE",
"777 1357 LINE",
"783 1365 OFFCURVE",
"785 1381 OFFCURVE",
"777 1388 CURVE SMOOTH",
"660 1484 LINE",
"657 1486 OFFCURVE",
"654 1488 OFFCURVE",
"651 1484 CURVE SMOOTH",
"541 1347 LINE",
"537 1343 OFFCURVE",
"537 1340 OFFCURVE",
"541 1337 CURVE SMOOTH",
"670 1234 LINE"
);
}
);
width = 1092;
}
);
unicode = 060B;
},
{
glyphname = rial;
lastChange = "2016-02-01 08:54:15 +0000";
layers = (
{
layerId = "93A312F7-B931-4485-B08E-C367313EB5E7";
name = Regular;
paths = (
{
closed = 1;
nodes = (
"724 -105 OFFCURVE",
"813 17 OFFCURVE",
"862 152 CURVE",
"1184 152 LINE",
"1184 232 LINE",
"885 232 LINE",
"898 292 OFFCURVE",
"900 336 OFFCURVE",
"893 406 CURVE",
"1184 406 LINE",
"1184 486 LINE",
"881 486 LINE",
"870 588 OFFCURVE",
"846 692 OFFCURVE",
"801 844 CURVE SMOOTH",
"798 855 OFFCURVE",
"789 856 OFFCURVE",
"781 848 CURVE SMOOTH",
"691 757 LINE",
"686 751 OFFCURVE",
"684 745 OFFCURVE",
"686 737 CURVE SMOOTH",
"757 486 LINE",
"151 486 LINE",
"151 406 LINE",
"780 406 LINE",
"793 342 OFFCURVE",
"788 284 OFFCURVE",
"777 232 CURVE",
"151 232 LINE",
"151 152 LINE",
"742 152 LINE",
"627 -31 OFFCURVE",
"468 -107 OFFCURVE",
"189 -46 CURVE SMOOTH",
"180 -44 OFFCURVE",
"174 -50 OFFCURVE",
"171 -59 CURVE SMOOTH",
"151 -117 LINE",
"149 -125 OFFCURVE",
"153 -131 OFFCURVE",
"162 -134 CURVE SMOOTH",
"368 -203 OFFCURVE",
"512 -224 OFFCURVE",
"634 -156 CURVE SMOOTH"
);
}
);
width = 1304;
}
);
unicode = FDFC;
},
{
glyphname = asciitilde;
lastChange = "2016-02-01 08:54:15 +0000";
layers = (
{
layerId = "93A312F7-B931-4485-B08E-C367313EB5E7";
name = Regular;
paths = (
{
closed = 1;
nodes = (
"249 441 OFFCURVE",
"367 469 OFFCURVE",
"487 397 CURVE SMOOTH",
"620 318 OFFCURVE",
"748 318 OFFCURVE",
"860 400 CURVE",
"812 472 LINE",
"711 416 OFFCURVE",
"615 415 OFFCURVE",
"475 492 CURVE SMOOTH",
"370 551 OFFCURVE",
"210 535 OFFCURVE",
"100 445 CURVE",
"143 372 LINE"
);
}
);
width = 960;
}
);
unicode = 007E;
},
{
glyphname = divide;
lastChange = "2016-02-01 08:54:15 +0000";
layers = (
{
layerId = "93A312F7-B931-4485-B08E-C367313EB5E7";
name = Regular;
paths = (
{
closed = 1;
nodes = (
"796 356 LINE",
"796 467 LINE",
"100 467 LINE",
"100 356 LINE"
);
},
{
closed = 1;
nodes = (
"495 25 OFFCURVE",
"527 57 OFFCURVE",
"527 96 CURVE SMOOTH",
"527 135 OFFCURVE",
"495 167 OFFCURVE",
"456 167 CURVE SMOOTH",
"417 167 OFFCURVE",
"385 135 OFFCURVE",
"385 96 CURVE SMOOTH",
"385 57 OFFCURVE",
"417 25 OFFCURVE",
"456 25 CURVE SMOOTH"
);
},
{
closed = 1;
nodes = (
"495 701 OFFCURVE",
"527 733 OFFCURVE",
"527 772 CURVE SMOOTH",
"527 811 OFFCURVE",
"495 843 OFFCURVE",
"456 843 CURVE SMOOTH",
"417 843 OFFCURVE",
"385 811 OFFCURVE",
"385 772 CURVE SMOOTH",
"385 733 OFFCURVE",
"417 701 OFFCURVE",
"456 701 CURVE SMOOTH"
);
}
);
width = 896;
}
);
unicode = 00F7;
},
{
glyphname = equal;
lastChange = "2016-02-01 08:54:15 +0000";
layers = (
{
layerId = "93A312F7-B931-4485-B08E-C367313EB5E7";
name = Regular;
paths = (
{
closed = 1;
nodes = (
"796 529 LINE",
"796 640 LINE",
"100 640 LINE",
"100 529 LINE"
);
},
{
closed = 1;
nodes = (
"796 229 LINE",
"796 340 LINE",
"100 340 LINE",
"100 229 LINE"
);
}
);
width = 896;
}
);
unicode = 003D;
},
{
glyphname = greater;
lastChange = "2016-02-01 08:54:15 +0000";
layers = (
{
layerId = "93A312F7-B931-4485-B08E-C367313EB5E7";
name = Regular;
paths = (
{
closed = 1;
nodes = (
"896 379 LINE",
"896 490 LINE",
"100 890 LINE",
"100 779 LINE",
"786 435 LINE",
"100 90 LINE",
"100 -21 LINE"
);
}
);
width = 996;
}
);
unicode = 003E;
userData = {
com.typemytype.robofont.guides = (
{
angle = 0;
isGlobal = 0;
x = "-192";
y = 1070;
},
{
angle = 0;
isGlobal = 0;
x = "-196";
y = 0;
}
);
};
},
{
glyphname = less;
lastChange = "2016-02-01 08:54:15 +0000";
layers = (
{
layerId = "93A312F7-B931-4485-B08E-C367313EB5E7";
name = Regular;
paths = (
{
closed = 1;
nodes = (
"896 90 LINE",
"210 435 LINE",
"896 779 LINE",
"896 890 LINE",
"100 490 LINE",
"100 379 LINE",
"896 -21 LINE"
);
}
);
width = 996;
}
);
unicode = 003C;
},
{
glyphname = minus;
lastChange = "2016-02-01 08:54:15 +0000";
layers = (
{
layerId = "93A312F7-B931-4485-B08E-C367313EB5E7";
name = Regular;
paths = (
{
closed = 1;
nodes = (
"994 364 LINE",
"994 505 LINE",
"100 505 LINE",
"100 364 LINE"
);
}
);
width = 1094;
}
);
unicode = 2212;
},
{
glyphname = multiply;
lastChange = "2016-02-01 08:54:15 +0000";
layers = (
{
layerId = "93A312F7-B931-4485-B08E-C367313EB5E7";
name = Regular;
paths = (
{
closed = 1;
nodes = (
"538 362 LINE",
"883 -26 LINE",
"973 43 LINE",
"612 446 LINE",
"947 822 LINE",
"863 894 LINE",
"537 530 LINE",
"212 894 LINE",
"128 822 LINE",
"463 446 LINE",
"100 41 LINE",
"192 -26 LINE"
);
}
);
width = 1073;
}
);
unicode = 00D7;
},
{
glyphname = plus;
lastChange = "2016-02-01 08:54:15 +0000";
layers = (
{
layerId = "93A312F7-B931-4485-B08E-C367313EB5E7";
name = Regular;
paths = (
{
closed = 1;
nodes = (
"507 108 LINE",
"502 388 LINE",
"796 388 LINE",
"796 499 LINE",
"504 499 LINE",
"503 763 LINE",
"388 762 LINE",
"393 499 LINE",
"100 499 LINE",
"100 388 LINE",
"393 388 LINE",
"398 106 LINE"
);
}
);
width = 896;
}
);
unicode = 002B;
},
{
glyphname = dottedCircle;
lastChange = "2016-02-01 08:54:15 +0000";
layers = (
{
layerId = "93A312F7-B931-4485-B08E-C367313EB5E7";
name = Regular;
paths = (
{
closed = 1;
nodes = (
"615 554 OFFCURVE",
"640 554 OFFCURVE",
"660 588 CURVE SMOOTH",
"680 622 OFFCURVE",
"667 644 OFFCURVE",
"643 658 CURVE SMOOTH",
"620 671 OFFCURVE",
"592 671 OFFCURVE",
"573 638 CURVE SMOOTH",
"553 605 OFFCURVE",
"566 582 OFFCURVE",
"591 568 CURVE SMOOTH"
);
},
{
closed = 1;
nodes = (
"306 18 OFFCURVE",
"331 19 OFFCURVE",
"350 52 CURVE SMOOTH",
"369 86 OFFCURVE",
"357 108 OFFCURVE",
"333 122 CURVE SMOOTH",
"311 135 OFFCURVE",
"283 135 OFFCURVE",
"264 102 CURVE SMOOTH",
"244 68 OFFCURVE",
"257 46 OFFCURVE",
"281 32 CURVE SMOOTH"
);
},
{
closed = 1;
nodes = (
"252 167 OFFCURVE",
"253 192 OFFCURVE",
"239 216 CURVE SMOOTH",
"226 239 OFFCURVE",
"202 253 OFFCURVE",
"169 234 CURVE SMOOTH",
"135 214 OFFCURVE",
"135 189 OFFCURVE",
"149 164 CURVE SMOOTH",
"163 140 OFFCURVE",
"185 128 OFFCURVE",
"219 147 CURVE"
);
},
{
closed = 1;
nodes = (
"500 -16 OFFCURVE",
"513 6 OFFCURVE",
"513 34 CURVE SMOOTH",
"513 60 OFFCURVE",
"499 84 OFFCURVE",
"461 84 CURVE SMOOTH",
"422 84 OFFCURVE",
"409 62 OFFCURVE",
"409 34 CURVE SMOOTH",
"409 6 OFFCURVE",
"422 -16 OFFCURVE",
"461 -16 CURVE SMOOTH"
);
},
{
closed = 1;
nodes = (
"191 295 OFFCURVE",
"204 317 OFFCURVE",
"204 345 CURVE SMOOTH",
"204 371 OFFCURVE",
"190 395 OFFCURVE",
"152 395 CURVE SMOOTH",
"113 395 OFFCURVE",
"100 373 OFFCURVE",
"100 345 CURVE SMOOTH",
"100 317 OFFCURVE",
"113 295 OFFCURVE",
"152 295 CURVE SMOOTH"
);
},
{
closed = 1;
nodes = (
"189 442 OFFCURVE",
"216 442 OFFCURVE",
"234 476 CURVE",
"254 509 OFFCURVE",
"241 532 OFFCURVE",
"217 545 CURVE",
"194 559 OFFCURVE",
"167 558 OFFCURVE",
"148 525 CURVE SMOOTH",
"129 492 OFFCURVE",
"141 469 OFFCURVE",
"165 455 CURVE SMOOTH"
);
},
{
closed = 1;
nodes = (
"676 52 OFFCURVE",
"676 77 OFFCURVE",
"662 101 CURVE SMOOTH",
"649 124 OFFCURVE",
"625 138 OFFCURVE",
"592 119 CURVE SMOOTH",
"558 99 OFFCURVE",
"558 74 OFFCURVE",
"572 49 CURVE SMOOTH",
"586 25 OFFCURVE",
"608 13 OFFCURVE",
"642 32 CURVE SMOOTH"
);
},
{
closed = 1;
nodes = (
"729 130 OFFCURVE",
"754 130 OFFCURVE",
"774 164 CURVE SMOOTH",
"794 198 OFFCURVE",
"781 220 OFFCURVE",
"757 234 CURVE SMOOTH",
"734 247 OFFCURVE",
"707 247 OFFCURVE",
"688 214 CURVE SMOOTH",
"668 180 OFFCURVE",
"681 158 OFFCURVE",
"705 144 CURVE SMOOTH"
);
},
{
closed = 1;
nodes = (
"364 591 OFFCURVE",
"364 617 OFFCURVE",
"350 641 CURVE SMOOTH",
"337 664 OFFCURVE",
"313 677 OFFCURVE",
"280 658 CURVE SMOOTH",
"247 639 OFFCURVE",
"246 613 OFFCURVE",
"260 589 CURVE SMOOTH",
"274 565 OFFCURVE",
"297 552 OFFCURVE",
"330 572 CURVE"
);
},
{
closed = 1;
nodes = (
"810 295 OFFCURVE",
"823 317 OFFCURVE",
"823 345 CURVE SMOOTH",
"823 371 OFFCURVE",
"809 395 OFFCURVE",
"771 395 CURVE SMOOTH",
"732 395 OFFCURVE",
"719 373 OFFCURVE",
"719 345 CURVE SMOOTH",
"719 317 OFFCURVE",
"732 295 OFFCURVE",
"771 295 CURVE SMOOTH"
);
},
{
closed = 1;
nodes = (
"500 607 OFFCURVE",
"513 629 OFFCURVE",
"513 657 CURVE SMOOTH",
"513 683 OFFCURVE",
"499 707 OFFCURVE",
"461 707 CURVE SMOOTH",
"422 707 OFFCURVE",
"409 685 OFFCURVE",
"409 657 CURVE SMOOTH",
"409 629 OFFCURVE",
"422 607 OFFCURVE",
"461 607 CURVE SMOOTH"
);
},
{
closed = 1;
nodes = (
"789 476 OFFCURVE",
"789 502 OFFCURVE",
"775 526 CURVE SMOOTH",
"762 548 OFFCURVE",
"738 562 OFFCURVE",
"705 543 CURVE SMOOTH",
"671 524 OFFCURVE",
"671 498 OFFCURVE",
"685 474 CURVE SMOOTH",
"699 450 OFFCURVE",
"721 437 OFFCURVE",
"755 457 CURVE SMOOTH"
);
}
);
width = 923;
}
);
unicode = 25CC;
},
{
glyphname = whiteStar.circled;
lastChange = "2016-02-01 08:54:15 +0000";
layers = (
{
layerId = "93A312F7-B931-4485-B08E-C367313EB5E7";
name = Regular;
paths = (
{
closed = 1;
nodes = (
"607 103 OFFCURVE",
"753 246 OFFCURVE",
"753 421 CURVE SMOOTH",
"753 596 OFFCURVE",
"607 741 OFFCURVE",
"426 741 CURVE SMOOTH",
"245 741 OFFCURVE",
"100 596 OFFCURVE",
"100 421 CURVE SMOOTH",
"100 246 OFFCURVE",
"245 103 OFFCURVE",
"426 103 CURVE SMOOTH"
);
},
{
closed = 1;
nodes = (
"268 199 LINE",
"333 380 LINE",
"164 484 LINE",
"172 506 LINE",
"371 500 LINE",
"417 685 LINE",
"441 685 LINE",
"497 500 LINE",
"687 509 LINE",
"694 484 LINE",
"534 381 LINE",
"602 209 LINE",
"583 192 LINE",
"433 306 LINE",
"286 185 LINE"
);
}
);
width = 853;
}
);
unicode = 272A;
},
{
glyphname = bar;
lastChange = "2016-02-01 08:54:15 +0000";
layers = (
{
layerId = "93A312F7-B931-4485-B08E-C367313EB5E7";
name = Regular;
paths = (
{
closed = 1;
nodes = (
"229 -472 LINE",
"229 1341 LINE",
"120 1341 LINE",
"120 -472 LINE"
);
}
);
width = 349;
}
);
unicode = 007C;
},
{
glyphname = asciicircum;
lastChange = "2016-02-01 08:54:15 +0000";
layers = (
{
layerId = "93A312F7-B931-4485-B08E-C367313EB5E7";
name = Regular;
paths = (
{
closed = 1;
nodes = (
"228 549 LINE",
"583 1384 LINE",
"939 549 LINE",
"1066 549 LINE",
"658 1519 LINE",
"508 1519 LINE",
"100 549 LINE"
);
}
);
width = 1166;
}
);
unicode = 005E;
},
{
glyphname = lowringmod;
lastChange = "2016-02-01 08:54:15 +0000";
layers = (
{
layerId = "93A312F7-B931-4485-B08E-C367313EB5E7";
name = Regular;
paths = (
{
closed = 1;
nodes = (
"425 -418 OFFCURVE",
"527 -316 OFFCURVE",
"527 -189 CURVE SMOOTH",
"527 -64 OFFCURVE",
"425 39 OFFCURVE",
"298 39 CURVE SMOOTH",
"172 39 OFFCURVE",
"70 -64 OFFCURVE",
"70 -189 CURVE SMOOTH",
"70 -316 OFFCURVE",
"172 -418 OFFCURVE",
"298 -418 CURVE SMOOTH"
);
},
{
closed = 1;
nodes = (
"210 -349 OFFCURVE",
"139 -277 OFFCURVE",
"139 -188 CURVE SMOOTH",
"139 -101 OFFCURVE",
"210 -29 OFFCURVE",
"298 -29 CURVE SMOOTH",
"387 -29 OFFCURVE",
"458 -101 OFFCURVE",
"458 -188 CURVE SMOOTH",
"458 -277 OFFCURVE",
"387 -349 OFFCURVE",
"298 -349 CURVE SMOOTH"
);
}
);
width = 597;
}
);
unicode = 02F3;
},
{
glyphname = "sajdah-ar";
lastChange = "2016-02-01 08:54:15 +0000";
layers = (
{
layerId = "93A312F7-B931-4485-B08E-C367313EB5E7";
name = Regular;
paths = (
{
closed = 1;
nodes = (
"638 582 LINE SMOOTH",
"676 582 OFFCURVE",
"703 604 OFFCURVE",
"703 653 CURVE SMOOTH",
"703 838 OFFCURVE",
"667 835 OFFCURVE",
"412 1027 CURVE SMOOTH",
"405 1032 OFFCURVE",
"397 1032 OFFCURVE",
"390 1027 CURVE SMOOTH",
"135 835 OFFCURVE",
"100 838 OFFCURVE",
"100 653 CURVE SMOOTH",
"100 604 OFFCURVE",
"133 582 OFFCURVE",
"171 582 CURVE SMOOTH"
);
},
{
closed = 1;
nodes = (
"619 0 LINE SMOOTH",
"628 0 OFFCURVE",
"634 6 OFFCURVE",
"634 15 CURVE SMOOTH",
"634 278 LINE SMOOTH",
"634 287 OFFCURVE",
"628 293 OFFCURVE",
"619 293 CURVE SMOOTH",
"184 293 LINE SMOOTH",
"175 293 OFFCURVE",
"169 287 OFFCURVE",
"169 278 CURVE SMOOTH",
"169 15 LINE SMOOTH",
"169 6 OFFCURVE",
"175 0 OFFCURVE",
"184 0 CURVE SMOOTH"
);
},
{
closed = 1;
nodes = (
"619 353 LINE SMOOTH",
"628 353 OFFCURVE",
"634 359 OFFCURVE",
"634 368 CURVE SMOOTH",
"634 507 LINE SMOOTH",
"634 516 OFFCURVE",
"628 522 OFFCURVE",
"619 522 CURVE SMOOTH",
"184 522 LINE SMOOTH",
"175 522 OFFCURVE",
"169 516 OFFCURVE",
"169 507 CURVE SMOOTH",
"169 368 LINE SMOOTH",
"169 359 OFFCURVE",
"175 353 OFFCURVE",
"184 353 CURVE SMOOTH"
);
}
);
width = 803;
}
);
unicode = 06E9;
userData = {
com.typemytype.robofont.guides = (
{
angle = 90;
isGlobal = 0;
x = 323;
y = 1030;
}
);
};
},
{
glyphname = "percent-ar";
lastChange = "2016-02-01 08:54:15 +0000";
layers = (
{
components = (
{
name = period;
transform = "{0.803, 0, 0, 0.803, 458, 93}";
},
{
name = period;
transform = "{0.803, 0, 0, 0.803, 20, 788}";
}
);
layerId = "93A312F7-B931-4485-B08E-C367313EB5E7";
name = Regular;
paths = (
{
closed = 1;
nodes = (
"739 997 LINE",
"736 1057 OFFCURVE",
"719 1102 OFFCURVE",
"689 1138 CURVE",
"117 60 LINE",
"134 19 OFFCURVE",
"159 -15 OFFCURVE",
"190 -40 CURVE"
);
}
);
width = 891;
}
);
unicode = 066A;
},
{
glyphname = caron;
lastChange = "2016-02-01 08:54:15 +0000";
layers = (
{
layerId = "93A312F7-B931-4485-B08E-C367313EB5E7";
name = Regular;
paths = (
{
closed = 1;
nodes = (
"335 924 LINE",
"476 1298 LINE",
"422 1344 LINE",
"306 1038 LINE",
"265 1134 OFFCURVE",
"237 1196 OFFCURVE",
"214 1236 CURVE SMOOTH",
"178 1300 OFFCURVE",
"135 1325 OFFCURVE",
"70 1268 CURVE",
"157 1160 OFFCURVE",
"207 1025 OFFCURVE",
"255 900 CURVE"
);
}
);
width = 546;
}
);
unicode = 02C7;
},
{
glyphname = "tahabove-ar";
lastChange = "2016-02-01 08:54:15 +0000";
layers = (
{
anchors = (
{
name = _top;
position = "{202, 1523}";
},
{
name = top;
position = "{202, 2014}";
}
);
layerId = "93A312F7-B931-4485-B08E-C367313EB5E7";
name = Regular;
paths = (
{
closed = 1;
nodes = (
"150 1523 OFFCURVE",
"309 1525 OFFCURVE",
"386 1599 CURVE SMOOTH",
"444 1656 OFFCURVE",
"375 1764 OFFCURVE",
"294 1764 CURVE SMOOTH",
"247 1765 OFFCURVE",
"197 1731 OFFCURVE",
"148 1682 CURVE SMOOTH",
"142 1676 OFFCURVE",
"136 1680 OFFCURVE",
"137 1687 CURVE",
"141 1709 OFFCURVE",
"142 1733 OFFCURVE",
"141 1764 CURVE SMOOTH",
"136 1907 LINE",
"136 1912 OFFCURVE",
"130 1915 OFFCURVE",
"126 1912 CURVE SMOOTH",
"92 1888 LINE",
"91 1887 OFFCURVE",
"90 1886 OFFCURVE",
"90 1885 CURVE",
"97 1764 LINE SMOOTH",
"104 1665 OFFCURVE",
"103 1632 OFFCURVE",
"60 1587 CURVE",
"60 1587 OFFCURVE",
"58 1586 OFFCURVE",
"57 1586 CURVE",
"6 1590 LINE",
"2 1590 OFFCURVE",
"-1 1587 OFFCURVE",
"0 1583 CURVE SMOOTH",
"13 1534 OFFCURVE",
"15 1534 OFFCURVE",
"56 1530 CURVE SMOOTH"
);
},
{
closed = 1;
nodes = (
"102 1584 OFFCURVE",
"99 1591 OFFCURVE",
"104 1596 CURVE SMOOTH",
"193 1687 OFFCURVE",
"225 1710 OFFCURVE",
"270 1710 CURVE SMOOTH",
"332 1710 OFFCURVE",
"366 1657 OFFCURVE",
"373 1635 CURVE SMOOTH",
"374 1632 OFFCURVE",
"373 1630 OFFCURVE",
"371 1629 CURVE SMOOTH",
"295 1591 OFFCURVE",
"200 1580 OFFCURVE",
"108 1583 CURVE"
);
}
);
width = 0;
}
);
unicode = 0615;
userData = {
com.typemytype.robofont.guides = (
{
angle = 0;
isGlobal = 0;
x = 376;
y = 1523;
}
);
};
},
{
glyphname = "alefLamYehabove-ar";
lastChange = "2016-02-01 08:54:15 +0000";
layers = (
{
anchors = (
{
name = _top;
position = "{379, 916}";
},
{
name = top;
position = "{379, 1882}";
}
);
layerId = "93A312F7-B931-4485-B08E-C367313EB5E7";
name = Regular;
paths = (
{
closed = 1;
nodes = (
"426 925 OFFCURVE",
"544 931 OFFCURVE",
"711 941 CURVE SMOOTH",
"727 942 OFFCURVE",
"736 946 OFFCURVE",
"738 955 CURVE",
"746 983 LINE SMOOTH",
"749 993 OFFCURVE",
"743 1000 OFFCURVE",
"732 1000 CURVE",
"613 990 OFFCURVE",
"479 982 OFFCURVE",
"347 979 CURVE SMOOTH",
"238 977 OFFCURVE",
"123 972 OFFCURVE",
"32 997 CURVE",
"60 1108 OFFCURVE",
"194 1137 OFFCURVE",
"299 1163 CURVE",
"306 1164 OFFCURVE",
"311 1167 OFFCURVE",
"315 1173 CURVE SMOOTH",
"334 1202 OFFCURVE",
"358 1253 OFFCURVE",
"353 1332 CURVE SMOOTH",
"336 1673 LINE",
"391 1606 OFFCURVE",
"428 1571 OFFCURVE",
"419 1456 CURVE SMOOTH",
"388 1068 LINE SMOOTH",
"387 1059 OFFCURVE",
"392 1050 OFFCURVE",
"401 1052 CURVE SMOOTH",
"417 1056 LINE SMOOTH",
"426 1058 OFFCURVE",
"429 1061 OFFCURVE",
"430 1070 CURVE SMOOTH",
"464 1454 LINE SMOOTH",
"477 1596 OFFCURVE",
"442 1638 OFFCURVE",
"382 1718 CURVE SMOOTH",
"376 1726 OFFCURVE",
"368 1727 OFFCURVE",
"361 1721 CURVE",
"293 1670 LINE",
"287 1665 OFFCURVE",
"284 1660 OFFCURVE",
"285 1651 CURVE",
"314 1222 LINE",
"215 1197 OFFCURVE",
"114 1175 OFFCURVE",
"51 1102 CURVE SMOOTH",
"31 1079 OFFCURVE",
"2 1033 OFFCURVE",
"0 994 CURVE SMOOTH",
"-3 943 OFFCURVE",
"33 928 OFFCURVE",
"84 922 CURVE SMOOTH",
"156 913 OFFCURVE",
"259 918 OFFCURVE",
"339 921 CURVE SMOOTH"
);
}
);
width = 0;
}
);
unicode = 0616;
},
{
glyphname = "dotcenter-ar";
lastChange = "2016-02-01 08:54:15 +0000";
layers = (
{
anchors = (
{
name = _center;
position = "{123, 555}";
}
);
layerId = "93A312F7-B931-4485-B08E-C367313EB5E7";
name = Regular;
paths = (
{
closed = 1;
nodes = (
"134 427 OFFCURVE",
"137 427 OFFCURVE",
"139 429 CURVE",
"239 552 LINE",
"245 560 OFFCURVE",
"247 576 OFFCURVE",
"239 583 CURVE SMOOTH",
"122 679 LINE",
"119 681 OFFCURVE",
"116 683 OFFCURVE",
"113 679 CURVE SMOOTH",
"3 542 LINE",
"-1 538 OFFCURVE",
"-1 535 OFFCURVE",
"3 532 CURVE SMOOTH",
"132 429 LINE"
);
}
);
width = 0;
}
);
},
